<svg width="166" height="40" viewBox="0 0 166 40" fill="none" xmlns="http://www.w3.org/2000/svg">
<path d="M157.165 1.70135C157.079 1.73755 156.88 1.85068 156.726 1.95022C156.454 2.11764 156.232 2.25339 155.571 2.66063C154.864 3.09502 154.633 3.23982 154.347 3.42534C154.18 3.52941 154.03 3.61991 154.021 3.61991C154.008 3.61991 153.7 3.80543 153.337 4.03167C152.875 4.32126 152.653 4.48868 152.608 4.58371C152.535 4.71493 152.54 4.7285 152.839 5.33484C153.006 5.67421 153.192 6.0181 153.251 6.09502C153.446 6.35294 153.446 6.35294 154.492 5.8733C154.606 5.819 154.828 5.72398 154.991 5.65611C155.154 5.58823 155.376 5.48868 155.489 5.43891C155.729 5.33031 157.94 4.35294 158.284 4.20814C158.57 4.08597 158.701 3.95022 158.738 3.74208C158.765 3.56108 158.715 3.43439 158.42 2.91855C157.8 1.8371 157.745 1.75565 157.591 1.6923C157.406 1.61538 157.365 1.61538 157.165 1.70135Z" fill="black"/>
<path d="M98.4039 7.59276C98.2725 7.6923 98.2182 7.80542 97.5884 9.16289C96.6642 11.1584 95.7218 13.1855 95.2325 14.2308C94.9562 14.8281 94.494 15.8145 94.2131 16.4253C93.9322 17.0362 93.606 17.7376 93.4883 17.9864C93.3705 18.2353 93.0805 18.8552 92.8449 19.3665C92.111 20.9457 91.3226 22.6471 90.8152 23.733C90.1084 25.2579 90.1039 25.2624 90.1628 25.4253C90.258 25.6968 90.3033 25.7014 92.0883 25.7014H93.7012L93.9232 25.5837C94.041 25.5158 94.1905 25.3891 94.2494 25.2986C94.34 25.1629 94.9335 23.8597 95.2053 23.1991L95.2733 23.0317L98.7165 23.0226C100.615 23.0226 102.187 23.0181 102.214 23.0136C102.237 23.009 102.305 23.1222 102.364 23.2579C102.423 23.3937 102.554 23.6878 102.658 23.914C102.767 24.1357 102.957 24.543 103.084 24.819C103.211 25.0905 103.351 25.371 103.401 25.4434C103.569 25.6923 103.65 25.7014 105.476 25.7014H107.143L107.27 25.5928C107.365 25.5068 107.397 25.4434 107.397 25.3077C107.397 25.1267 107.356 25.0362 106.763 23.7557C106.604 23.4208 106.351 22.8688 106.196 22.5339C106.038 22.1991 105.775 21.629 105.608 21.267C105.44 20.905 105.177 20.3439 105.028 20.0226C104.878 19.6968 104.547 18.9864 104.294 18.4389C104.035 17.8914 103.7 17.1674 103.546 16.8326C103.392 16.4977 103.125 15.9276 102.957 15.5656C102.79 15.2036 102.536 14.6561 102.391 14.3439C102.25 14.0317 101.924 13.3303 101.666 12.7828C101.412 12.2353 101.072 11.5023 100.909 11.1538C100.746 10.8054 100.497 10.267 100.352 9.95475C100.207 9.64253 99.9217 9.03167 99.7178 8.59728C99.2738 7.638 99.2013 7.55656 98.8071 7.52488C98.5625 7.50678 98.4991 7.51583 98.4039 7.59276ZM98.9295 15.6878C99.0201 15.8823 99.1922 16.2534 99.31 16.5158C99.4278 16.7783 99.6 17.1538 99.6951 17.3529C100.434 18.9457 100.715 19.5566 100.715 19.5747C100.715 19.5837 99.8401 19.5928 98.7664 19.5928C97.6971 19.5928 96.8182 19.5837 96.8182 19.5701C96.8182 19.5611 96.9949 19.1674 97.2078 18.7014C97.6428 17.7466 98.5625 15.7104 98.6576 15.4842C98.6939 15.4072 98.7346 15.3394 98.7437 15.3394C98.7573 15.3394 98.8434 15.4977 98.9295 15.6878Z" fill="black"/>
<path d="M154.746 7.56107C152.571 7.76469 150.614 8.70587 149.051 10.3032C147.357 12.0271 146.473 14.2081 146.464 16.6968C146.464 17.6108 146.491 17.9185 146.632 18.6425C146.904 20.0543 147.416 21.2036 148.308 22.3937C148.657 22.8597 149.255 23.4932 149.622 23.7828C149.749 23.8778 149.858 23.9683 149.871 23.9819C149.926 24.0407 150.474 24.4253 150.718 24.5746C151.171 24.8597 152.046 25.2805 152.54 25.448C153.618 25.8235 154.506 25.9728 155.648 25.9728C157.224 25.9728 158.411 25.6878 159.888 24.9593C162.258 23.7828 163.961 21.638 164.641 18.9683C164.881 18.0136 164.953 16.4796 164.804 15.4977C164.487 13.4163 163.603 11.638 162.185 10.2172C160.812 8.84614 158.955 7.91854 157.002 7.62895C156.409 7.53845 155.317 7.50677 154.746 7.56107ZM156.699 11.7194C157.673 11.9095 158.416 12.3258 159.227 13.1403C159.716 13.6335 160.02 14.0317 160.264 14.5203C160.912 15.7964 160.935 17.5565 160.319 18.8914C159.834 19.9412 158.828 20.9457 157.772 21.4299C157.383 21.6108 157.306 21.638 156.803 21.7692C156.286 21.905 155.235 21.9276 154.683 21.8099C153.659 21.6018 152.916 21.2127 152.146 20.4796C151.416 19.7873 150.913 18.9366 150.659 17.9638C150.542 17.5022 150.528 16.2941 150.637 15.7602C150.859 14.6968 151.276 13.9321 152.064 13.1403C152.839 12.371 153.564 11.9593 154.569 11.724C155.108 11.5973 156.064 11.5927 156.699 11.7194Z" fill="black"/>
<path d="M10.4158 7.83257C10.1258 7.85067 9.74071 7.88687 9.55496 7.91855C9.16986 7.97737 8.12783 8.22624 8.02363 8.28054C7.98285 8.30316 7.77897 8.38461 7.56604 8.46606C5.40043 9.29864 3.61085 10.9774 2.59147 13.1357C1.60834 15.2127 1.46789 17.7466 2.20185 19.9547C2.85878 21.9231 4.26325 23.7104 6.03924 24.828C6.44246 25.0814 7.56604 25.6063 8.04175 25.7602C9.16533 26.1267 9.72712 26.2127 11.0093 26.2127C12.074 26.2172 12.4772 26.1674 13.3788 25.9231C14.7696 25.5475 15.9068 24.9276 16.9488 23.9683C17.3792 23.5792 17.4517 23.4253 17.3158 23.2127C17.2388 23.0905 16.6453 22.4389 15.9431 21.7014C15.7029 21.448 15.4492 21.1765 15.3813 21.095C15.3133 21.0136 15.2 20.9185 15.1276 20.8823C14.8874 20.7556 14.7515 20.7964 14.2577 21.1222C13.3244 21.7421 12.6222 21.9864 11.485 22.086C9.2061 22.2805 7.26249 21.0045 6.3745 18.733C5.99393 17.7647 5.98034 16.3167 6.34732 15.181C6.84568 13.629 8.06893 12.3756 9.55949 11.8869C10.0669 11.7195 10.4339 11.6652 11.0093 11.6652C11.6209 11.6652 12.2325 11.7647 12.7988 11.9502C13.3652 12.1403 13.7593 12.3484 14.2667 12.733C14.7515 13.0995 14.8648 13.1448 15.0369 13.0543C15.2499 12.9457 17.343 10.8009 17.3792 10.6606C17.4427 10.4027 17.2297 10.1584 16.3508 9.49321C14.7198 8.25791 12.749 7.70588 10.4158 7.83257Z" fill="black"/>
<path d="M26.2999 7.84614C26.2274 7.87782 26.1323 7.94569 26.0915 7.99094C26.0462 8.04071 25.3802 9.4389 24.601 11.1086C23.8217 12.7737 23.1059 14.3122 23.0062 14.5249C22.5396 15.5249 21.2665 18.2443 21.1532 18.4887C21.0853 18.6425 20.4646 19.9774 19.7714 21.4525C17.9592 25.3303 17.941 25.3756 17.941 25.5611C17.941 25.7466 17.9637 25.7918 18.1223 25.8959C18.2219 25.9638 18.4077 25.9728 19.8575 25.9728C21.647 25.9728 21.6425 25.9728 21.9189 25.6878C22.0503 25.552 22.526 24.5656 22.9065 23.6335L23.0379 23.3032H26.5627C28.9639 23.3032 30.083 23.3167 30.083 23.3484C30.083 23.448 31.048 25.5339 31.1794 25.7104C31.3561 25.9638 31.4331 25.9728 33.2634 25.9728H34.9397L35.0756 25.8371C35.2025 25.7059 35.2116 25.6787 35.1844 25.4796C35.1708 25.3575 35.0802 25.1086 34.9896 24.9276C34.9035 24.7421 34.7404 24.3982 34.6362 24.1629C34.532 23.9276 34.2737 23.3756 34.0699 22.9412C33.866 22.5068 33.5987 21.9366 33.4809 21.6742C33.3631 21.4118 33.1049 20.8642 32.9146 20.4525C32.4615 19.4887 31.6369 17.7104 31.1023 16.5611C30.9483 16.2262 30.613 15.5023 30.3593 14.9547C30.1011 14.4072 29.7704 13.6923 29.6208 13.371C29.4713 13.0452 29.2176 12.5068 29.0636 12.1719C28.905 11.8371 28.6286 11.2443 28.452 10.8597C28.0261 9.94116 27.65 9.13573 27.3918 8.57465C27.274 8.32578 27.1336 8.07239 27.0792 8.01356C26.8799 7.79637 26.5627 7.72849 26.2999 7.84614ZM26.8391 16.1448C26.9569 16.4299 27.1517 16.8642 27.274 17.1176C27.7361 18.095 28.0895 18.8597 28.0895 18.8869C28.0895 18.9004 28.1937 19.1176 28.316 19.371C28.4429 19.6244 28.5426 19.8326 28.5426 19.8371C28.5426 19.8371 27.6636 19.8416 26.5899 19.8416C24.6644 19.8416 24.6417 19.8416 24.6599 19.7511C24.6825 19.6606 25.6702 17.4661 26.0417 16.6832C26.1459 16.4661 26.232 16.276 26.232 16.2624C26.232 16.181 26.5672 15.5656 26.5944 15.5973C26.608 15.6154 26.7213 15.8642 26.8391 16.1448Z" fill="black"/>
<path d="M41.3323 7.83257C40.0955 7.91401 39.0353 8.24886 38.2606 8.80089C38.1111 8.90496 37.803 9.18551 37.581 9.41628C36.4348 10.6018 35.9545 11.9864 36.1267 13.5746C36.2445 14.6425 36.6341 15.4615 37.3726 16.1991C38.0794 16.9004 39.7149 18.0136 40.4942 18.3213C41.0786 18.552 42.2384 19.1131 42.4423 19.2624C43.3076 19.9004 43.6837 20.4661 43.6837 21.1538C43.6837 22.1674 42.8093 22.7873 41.5453 22.6697C40.6437 22.5837 40.1997 22.4163 38.9628 21.6832C37.9978 21.1086 37.7894 21.0588 37.5402 21.3303C37.3862 21.4932 36.24 23.5023 36.1584 23.7466C36.095 23.9502 36.1675 24.0905 36.4801 24.3575C36.7429 24.5792 37.4496 25.0452 37.9435 25.3213C39.0036 25.914 40.0502 26.1719 41.6359 26.2308C44.0778 26.3213 45.7541 25.6606 46.9819 24.1176C47.7249 23.1855 48.0647 22.3801 48.1599 21.3122C48.246 20.3846 48.0783 19.4253 47.6842 18.6199C47.3081 17.8461 46.9457 17.457 45.9852 16.7873C44.9341 16.0498 44.0824 15.5792 42.4967 14.8642C41.1647 14.2624 40.6346 13.8552 40.3175 13.19C39.9913 12.5158 40.2858 11.8009 41.0288 11.4615C41.6993 11.1584 42.7776 11.2851 43.7788 11.7918C43.9057 11.8552 44.327 12.1131 44.7212 12.3575C45.6771 12.9593 45.6862 12.9638 45.9671 12.8326C46.0894 12.7737 46.2208 12.6878 46.2616 12.6425C46.3703 12.5158 47.3625 11.0362 47.5709 10.6878C47.7838 10.3348 47.811 10.086 47.657 9.89139C47.3716 9.5294 45.3917 8.45248 44.5128 8.17646C43.5749 7.88234 42.4287 7.76017 41.3323 7.83257Z" fill="black"/>
<path d="M57.3252 7.8552C57.2437 7.88688 57.1485 7.9638 57.1123 8.0181C57.0579 8.10407 55.1143 12.2624 54.8651 12.8281C54.8198 12.9276 54.6612 13.2715 54.5072 13.5882C54.3532 13.9095 54.2308 14.1765 54.2308 14.1855C54.2308 14.19 54.1266 14.4208 53.9998 14.6878C53.7279 15.267 50.2802 22.6787 50.1307 23.009C50.0763 23.1312 49.9313 23.4389 49.8135 23.6878C48.9708 25.4751 48.8938 25.7149 49.1068 25.8869C49.2064 25.9683 49.3061 25.9729 50.8737 25.9729C52.7493 25.9729 52.7901 25.9638 53.0393 25.6244C53.1073 25.5249 53.3791 24.9638 53.6373 24.3756L54.113 23.3032H57.5925H61.072L61.1354 23.4027C61.1717 23.4615 61.3257 23.7919 61.4797 24.1403C61.9056 25.1131 62.1548 25.6244 62.2635 25.7376C62.4765 25.9638 62.549 25.9729 64.3295 25.9729C66.1598 25.9729 66.1372 25.9774 66.2323 25.6878C66.3048 25.4751 66.264 25.371 65.444 23.6199C65.2537 23.2081 64.9773 22.6199 64.8324 22.3077C64.6874 21.9955 64.4246 21.4253 64.2434 21.0407C63.9353 20.3801 63.813 20.1222 63.0972 18.5747C62.8253 17.9819 62.6396 17.5882 61.8331 15.8597C61.6564 15.4842 61.4163 14.9683 61.2985 14.7059C61.0946 14.2624 60.9406 13.9321 60.1206 12.1719C59.5905 11.0407 59.219 10.2353 58.9879 9.72851C58.5303 8.71946 58.1815 8.02715 58.0999 7.95475C58.0184 7.88235 57.6831 7.7828 57.5381 7.78733C57.5019 7.78733 57.4068 7.819 57.3252 7.8552ZM58.041 16.4977C58.2676 16.9909 58.5711 17.6516 58.7161 17.9638C59.0378 18.6561 59.5769 19.8371 59.5769 19.8371C59.5769 19.8416 58.6934 19.8371 57.6197 19.8326C56.5414 19.8281 55.6625 19.81 55.667 19.7964C55.6761 19.7828 55.735 19.6652 55.7984 19.5339C55.8664 19.4072 55.9887 19.1448 56.0702 18.9593C56.1518 18.7738 56.3285 18.3756 56.4644 18.0769C56.7226 17.5023 57.4657 15.8416 57.5427 15.6606C57.5653 15.6018 57.597 15.5611 57.6061 15.5747C57.6197 15.5837 57.8145 16 58.041 16.4977Z" fill="black"/>
<path d="M76.9924 7.85972C76.9381 7.90497 76.8701 7.98642 76.8429 8.04072C76.7705 8.18099 76.7705 25.2896 76.8429 25.448C76.8701 25.5068 76.9562 25.5928 77.0378 25.6335C77.1646 25.7014 77.4999 25.7059 80.8933 25.6923L84.6083 25.6742L85.084 25.5566C86.2575 25.267 87.0639 24.819 87.8522 24.0271C88.482 23.3937 88.7719 22.9412 88.9939 22.2398C89.1661 21.6968 89.2205 21.2081 89.1933 20.552C89.1616 19.8959 89.0709 19.5249 88.8127 19.0045C88.559 18.4932 87.8839 17.8326 87.0639 17.2941C86.7196 17.0679 86.3073 16.828 86.1442 16.7602C85.8905 16.6471 85.7772 16.5611 85.8905 16.5611C86.0128 16.5611 86.9597 15.7828 87.4852 15.2534C88.0153 14.7195 88.1241 14.5837 88.3143 14.2262C88.6224 13.629 88.7176 13.2353 88.7221 12.4887C88.7266 11.9864 88.713 11.8099 88.6315 11.5023C88.3959 10.6335 88.1014 10.1176 87.4626 9.47511C86.8193 8.82352 86.1442 8.39818 85.2834 8.10407C84.3954 7.8009 84.5177 7.80995 80.6214 7.79637C77.3096 7.7828 77.0831 7.78732 76.9924 7.85972ZM83.1314 11.5385C83.7158 11.6335 84.1961 12 84.4407 12.5339C84.5993 12.8823 84.6038 13.5204 84.4543 13.905C84.2504 14.4208 83.7113 14.914 83.2401 15.0181C83.1178 15.0407 82.5243 15.0679 81.9126 15.0724L80.8027 15.0814L80.7891 13.2851L80.78 11.4932H81.8084C82.3793 11.4932 82.9728 11.5158 83.1314 11.5385ZM83.1586 18.4163C83.7883 18.5068 84.4996 18.9819 84.7805 19.4977C85.1067 20.095 84.9074 21.009 84.332 21.5385C84.2187 21.6425 83.9922 21.7919 83.8245 21.8688L83.521 22.0136L82.1845 22.0362C81.4505 22.0498 80.8344 22.0543 80.8162 22.0452C80.7936 22.0362 80.78 21.2081 80.78 20.1991V18.371H81.813C82.3793 18.371 82.9864 18.3937 83.1586 18.4163Z" fill="black"/>
<path d="M107.03 7.81447C106.876 7.84162 106.731 8.03166 106.69 8.25338C106.631 8.57013 106.65 10.9638 106.713 11.181C106.745 11.276 106.813 11.4027 106.867 11.4615L106.971 11.5611L108.915 11.5747L110.863 11.5882V18.4842V25.3846L110.994 25.5294L111.126 25.6787L112.82 25.6923C114.632 25.7059 114.7 25.7013 114.841 25.4751C114.882 25.4072 114.895 23.8054 114.895 18.4842L114.9 11.5837H116.816H118.737L118.878 11.4525C118.955 11.3801 119.018 11.276 119.018 11.2127C119.018 11.1584 119.023 10.4434 119.027 9.62895C119.032 8.29411 119.027 8.14026 118.955 8.03166C118.782 7.76922 119.068 7.7828 112.847 7.78732C109.699 7.79185 107.08 7.80542 107.03 7.81447Z" fill="black"/>
<path d="M121.981 7.81448C121.841 7.84163 121.691 8.02262 121.641 8.22172C121.578 8.49321 121.591 25.2217 121.655 25.3756C121.682 25.4434 121.759 25.543 121.822 25.5973L121.94 25.7014H126.915C131.459 25.7014 131.898 25.6968 132.003 25.629C132.238 25.4706 132.247 25.4163 132.247 23.8371C132.247 22.5339 132.238 22.3575 132.166 22.2172C132.125 22.1312 132.039 22.0362 131.975 22.0045C131.889 21.9593 131.173 21.9502 128.745 21.9593L125.633 21.9683V15.0543C125.633 8.23077 125.633 8.13574 125.542 8.00905C125.397 7.80543 125.198 7.7828 123.562 7.78733C122.747 7.79185 122.031 7.80543 121.981 7.81448Z" fill="black"/>
<path d="M135.024 7.85068C134.947 7.88235 134.843 7.96832 134.798 8.0362C134.721 8.15837 134.716 8.51583 134.707 16.6516C134.703 21.3167 134.712 25.1991 134.725 25.276C134.739 25.3529 134.793 25.4751 134.852 25.5475L134.957 25.6787L139.995 25.6923L145.033 25.7014L145.187 25.5475L145.341 25.3937L145.345 23.9728C145.35 22.3484 145.354 22.371 145.268 22.2081C145.128 21.9366 145.227 21.9412 141.829 21.9547L138.726 21.9683V15.0452C138.726 8.37104 138.726 8.11764 138.644 8.00905C138.49 7.80543 138.354 7.79185 136.71 7.78733C135.491 7.78733 135.138 7.8009 135.024 7.85068Z" fill="black"/>
<path d="M66.3909 27.1448C65.8608 27.4389 64.6783 28.1765 64.6375 28.2398C64.5877 28.3167 64.846 28.905 64.9456 28.9412C65.0091 28.9683 66.3274 28.4118 66.9798 28.0905C67.229 27.9638 67.2426 27.9502 67.2154 27.819C67.1928 27.6923 66.8122 27.0407 66.7397 26.9955C66.7216 26.9819 66.5676 27.0498 66.3909 27.1448Z" fill="black"/>
<path d="M94.5756 29.5204C93.1711 29.7919 91.9705 30.8959 91.5583 32.2851C91.4223 32.7466 91.3906 33.6199 91.4903 34.1176C91.6489 34.8959 91.9841 35.5023 92.5776 36.0905C93.1304 36.638 93.7465 36.9774 94.4397 37.1222C95.6358 37.371 96.8771 37.0724 97.6791 36.3394C97.969 36.0769 97.9735 36.0679 97.9056 35.9593C97.8104 35.8009 97.1444 35.0769 97.0176 34.9909C96.9179 34.9276 96.8998 34.9321 96.6959 35.0769C95.8215 35.7059 94.5937 35.6425 93.8915 34.9412C92.7407 33.7964 93.1485 31.7783 94.6345 31.2217C94.9245 31.1131 95.4998 31.0905 95.8215 31.1765C96.0662 31.2398 96.5011 31.4525 96.705 31.6109C96.782 31.6697 96.8771 31.7195 96.9134 31.7195C96.9859 31.7195 97.824 30.8869 97.901 30.7376C97.9871 30.5656 97.9554 30.5068 97.6473 30.2579C96.9496 29.7059 96.3878 29.5023 95.4817 29.4751C95.1057 29.4661 94.7795 29.4796 94.5756 29.5204Z" fill="black"/>
<path d="M113.921 29.5023C113.097 29.5837 112.458 29.8597 111.833 30.3982C110.437 31.6018 110.075 33.4434 110.895 35.1086C111.121 35.5656 111.194 35.6697 111.583 36.0588C112.181 36.6652 112.666 36.9412 113.468 37.1267C113.849 37.2172 114.669 37.2308 115.054 37.1538C116.381 36.8824 117.505 35.9005 117.958 34.6109C118.289 33.6697 118.18 32.3439 117.704 31.5158C116.925 30.1538 115.425 29.3575 113.921 29.5023ZM114.814 31.2715C115.498 31.4163 116.137 32 116.372 32.6923C116.476 33.0045 116.481 33.6561 116.377 33.9909C116.205 34.5566 115.661 35.1267 115.09 35.3394C114.723 35.4751 114.143 35.5068 113.763 35.4118C112.757 35.1538 112.059 34.1041 112.218 33.0814C112.272 32.724 112.417 32.3575 112.621 32.0679C112.743 31.8824 113.137 31.5611 113.387 31.4299C113.763 31.2398 114.342 31.1719 114.814 31.2715Z" fill="black"/>
<path d="M119.571 29.5249L119.471 29.5973L119.476 33.267C119.476 35.6063 119.489 36.9683 119.521 37.0181C119.562 37.095 119.63 37.1041 120.327 37.1041C121.007 37.1041 121.098 37.095 121.161 37.0226C121.229 36.9457 121.238 36.7375 121.238 34.9638C121.238 33.8778 121.247 32.9864 121.256 32.9864C121.265 32.9864 122.239 33.9502 123.413 35.1312C125.542 37.2715 125.551 37.2805 125.714 37.2579C125.805 37.2489 125.895 37.2217 125.918 37.1991C125.936 37.181 125.954 35.4842 125.954 33.4344V29.7059L125.855 29.6244C125.773 29.5611 125.66 29.5475 125.089 29.5475C124.495 29.5475 124.414 29.5566 124.346 29.6335C124.278 29.7104 124.273 29.8914 124.283 31.6697C124.292 32.7421 124.287 33.6199 124.283 33.6199C124.273 33.6199 124.088 33.4434 123.875 33.2217C123.657 33.0045 123.245 32.6018 122.955 32.3303C122.665 32.0543 121.877 31.2986 121.202 30.6425C120.092 29.5701 119.965 29.457 119.824 29.457C119.743 29.457 119.63 29.4887 119.571 29.5249Z" fill="black"/>
<path d="M44.5264 30.1674C44.3542 30.5385 44.0099 31.2624 43.7652 31.7873C43.5206 32.3077 43.2261 32.9412 43.1083 33.19C42.9905 33.4389 42.7051 34.0498 42.474 34.5475C42.243 35.0452 41.9575 35.6561 41.8398 35.905C41.4682 36.6878 41.3731 36.9457 41.4184 37.0271C41.4547 37.095 41.5589 37.1041 42.1977 37.1041C42.7142 37.1041 42.9543 37.086 43.0086 37.0452C43.0494 37.0181 43.1944 36.7602 43.3303 36.4796L43.584 35.9728H45.0247H46.4655L46.6059 36.276C46.6784 36.448 46.7917 36.6923 46.8506 36.828C46.9095 36.9593 46.991 37.0814 47.0363 37.0995C47.0771 37.1131 47.4486 37.1222 47.8609 37.1131L48.6129 37.0995V36.9819C48.6129 36.9185 48.477 36.5792 48.3139 36.2262C48.1463 35.8778 47.8745 35.2941 47.7068 34.9321C47.5392 34.5701 47.2447 33.9412 47.0499 33.5294C46.2344 31.7873 46.1121 31.5249 45.7813 30.8145C45.0972 29.3575 45.1833 29.5023 45.0066 29.5023H44.848L44.5264 30.1674ZM45.2649 33.3937C45.3645 33.629 45.5186 33.9728 45.6047 34.1584C45.6907 34.3394 45.7587 34.4977 45.7587 34.5068C45.7587 34.5158 45.4144 34.5249 44.9885 34.5249C44.5672 34.5249 44.2183 34.5158 44.2183 34.5023C44.2183 34.4887 44.3406 34.19 44.4947 33.8371C44.6442 33.4796 44.8118 33.0769 44.8616 32.9412L44.9568 32.6968L45.0157 32.828C45.0519 32.905 45.1607 33.1584 45.2649 33.3937Z" fill="black"/>
<path d="M80.0461 29.5792C80.0099 29.6244 79.8921 29.8416 79.7924 30.0679C79.6927 30.2896 79.4979 30.7104 79.362 30.9955C79.2261 31.2805 78.995 31.7783 78.8455 32.1041C78.2747 33.3213 78.1614 33.5611 77.9756 33.9593C76.6572 36.7692 76.5802 36.9502 76.6165 37.0226C76.6572 37.095 76.7433 37.1041 77.3957 37.1041C78.3426 37.1041 78.2792 37.1448 78.6009 36.3348L78.7368 35.9955H80.2002H81.6635L81.9354 36.5249C82.0849 36.8145 82.2208 37.0679 82.2389 37.0814C82.2525 37.0995 82.6014 37.1086 83.0091 37.1086C83.58 37.1041 83.7612 37.086 83.811 37.0362C83.879 36.9683 83.7974 36.7692 83.0318 35.1357C82.2661 33.5023 81.5095 31.8824 80.993 30.7783C80.4176 29.543 80.4086 29.5294 80.25 29.5113C80.1684 29.5023 80.0914 29.5294 80.0461 29.5792ZM80.3361 33.0452C80.404 33.1991 80.5581 33.5475 80.6804 33.8235C80.8027 34.095 80.9205 34.3665 80.9341 34.4208L80.9658 34.5249H80.1684C79.729 34.5249 79.3756 34.5113 79.3846 34.4887C79.5523 34.1538 79.8105 33.5882 79.9691 33.2262C80.0778 32.9729 80.1775 32.7647 80.1911 32.7647C80.2047 32.7647 80.2681 32.8914 80.3361 33.0452Z" fill="black"/>
<path d="M99.2828 29.5973C99.2013 29.6878 99.1968 29.8235 99.1877 33.3032C99.1786 36.6652 99.1832 36.9231 99.2557 37.0136C99.3327 37.1086 99.3463 37.1086 101.666 37.1041C103.8 37.1041 104.004 37.095 104.058 37.0271C104.094 36.9728 104.112 36.7511 104.112 36.3032C104.112 35.7149 104.103 35.6471 104.022 35.5656C103.931 35.4751 103.877 35.4751 102.427 35.4751L100.923 35.4796L100.918 34.8326C100.914 34.4751 100.918 34.1584 100.932 34.1267C100.946 34.086 101.24 34.0724 102.187 34.0724C103.252 34.0724 103.437 34.0633 103.496 34C103.578 33.9185 103.573 33.9683 103.569 33.1674C103.564 32.6561 103.555 32.5475 103.492 32.4977C103.433 32.457 103.093 32.4434 102.16 32.4434H100.905L100.909 31.7738L100.918 31.1086L102.391 31.095C103.202 31.0905 103.886 31.086 103.918 31.086C103.945 31.086 104.004 31.0543 104.04 31.0136C104.099 30.9593 104.112 30.8281 104.112 30.3122C104.112 29.7421 104.103 29.6742 104.022 29.5928C103.936 29.5068 103.872 29.5023 101.652 29.5023C99.387 29.5023 99.3689 29.5023 99.2828 29.5973Z" fill="black"/>
<path d="M130.317 29.5701C130.263 29.6063 130.195 29.7014 130.163 29.7828C130.113 29.9095 129.633 30.9412 127.739 35C127.658 35.1719 127.427 35.6697 127.223 36.0995C127.019 36.5294 126.856 36.9095 126.856 36.9412C126.856 37.0814 126.965 37.1041 127.694 37.1041C128.546 37.1041 128.523 37.1176 128.759 36.5837C128.836 36.4072 128.931 36.1991 128.967 36.1222L129.035 35.9728H130.48H131.93L131.994 36.0769C132.025 36.1312 132.134 36.3575 132.225 36.5837C132.32 36.8054 132.419 37.0136 132.447 37.0452C132.501 37.1041 133.969 37.1403 134.059 37.0814C134.159 37.0181 134.155 37.009 133.557 35.7466C133.366 35.3348 133.144 34.8688 133.072 34.7059C132.913 34.3575 132.777 34.0679 132.243 32.9321C132.021 32.4661 131.84 32.0769 131.84 32.0679C131.84 32.0498 131.663 31.6697 130.965 30.2036C130.811 29.8778 130.671 29.5882 130.648 29.5566C130.589 29.4842 130.431 29.4887 130.317 29.5701ZM130.634 33.0905C130.707 33.267 130.865 33.6471 130.988 33.9321C131.106 34.2127 131.205 34.4615 131.205 34.4842C131.205 34.5023 130.856 34.5249 130.435 34.5339C130.009 34.543 129.669 34.5339 129.674 34.5204C129.864 34.0679 130.458 32.7602 130.476 32.7602C130.489 32.7602 130.562 32.9095 130.634 33.0905Z" fill="black"/>
<path d="M37.4451 29.5746C36.1267 29.7692 34.9714 30.733 34.5048 32.0271C34.233 32.7918 34.2148 33.7828 34.4595 34.5203C34.7902 35.5113 35.4109 36.2534 36.3397 36.7783C36.8516 37.0679 37.4632 37.2081 38.238 37.2081C38.8224 37.2127 39.2891 37.1448 39.7285 36.9909C40.1906 36.828 40.8159 36.5203 40.8657 36.4253C40.8929 36.3756 40.911 35.7783 40.911 34.8733C40.911 33.5113 40.9065 33.4027 40.8295 33.3348C40.757 33.267 40.6029 33.2579 39.5926 33.2579C38.7545 33.2579 38.4237 33.2715 38.383 33.3122C38.3014 33.3937 38.3059 34.6335 38.3875 34.6968C38.4192 34.724 38.6095 34.7511 38.8043 34.7602L39.1667 34.7737L39.1803 35.0543C39.1939 35.3032 39.1803 35.3439 39.0897 35.4027C38.913 35.5158 38.3059 35.5792 37.9254 35.5249C36.7021 35.3575 35.8866 34.1448 36.1766 32.9366C36.2898 32.4706 36.4031 32.2443 36.684 31.9412C36.9966 31.6108 37.273 31.4253 37.6399 31.3122C38.1927 31.1403 38.9629 31.2353 39.3616 31.5203C39.8282 31.8552 39.7602 31.8642 40.2269 31.3891C40.7706 30.8326 40.8476 30.733 40.7887 30.6425C40.6346 30.3982 39.5971 29.8461 38.9855 29.6832C38.6321 29.5882 37.7668 29.5294 37.4451 29.5746Z" fill="black"/>
<path d="M49.2925 29.6697C49.1929 29.7964 49.1929 29.8099 49.22 31.1312C49.2744 33.7195 49.3016 34.552 49.3424 34.7647C49.5508 35.8778 50.3482 36.7602 51.4446 37.0814C51.7708 37.1765 51.9474 37.2036 52.3507 37.2036C53.284 37.2081 53.8911 36.9547 54.548 36.2941C54.9648 35.8733 55.1687 35.543 55.3318 35.0317C55.4224 34.7421 55.4269 34.6244 55.445 32.2308C55.4586 29.7602 55.4586 29.733 55.368 29.6425C55.2819 29.5566 55.2185 29.5475 54.5525 29.5475H53.8276L53.7325 29.6697C53.6373 29.7873 53.6373 29.8145 53.6464 32.1267L53.6509 34.457L53.5377 34.7059C53.3066 35.2262 52.8264 35.5068 52.2193 35.4661C51.6983 35.4299 51.3766 35.2081 51.1183 34.7059L50.9915 34.457L50.9824 32.0588C50.9734 29.8507 50.9643 29.6561 50.8918 29.6063C50.8375 29.5656 50.6019 29.5475 50.1035 29.5475H49.3877L49.2925 29.6697Z" fill="black"/>
<path d="M105.589 29.629C105.521 29.7059 105.517 30.0045 105.526 33.3394C105.54 36.5656 105.549 36.9728 105.612 37.0362C105.675 37.0995 105.934 37.1086 107.809 37.1041C109.748 37.1041 109.939 37.095 109.993 37.0271C110.029 36.9728 110.047 36.7556 110.047 36.3258C110.047 35.7149 110.043 35.6923 109.934 35.5837L109.821 35.4706L108.507 35.4842L107.193 35.4977V32.5837C107.193 30.4525 107.18 29.6561 107.143 29.6109C107.103 29.5611 106.93 29.5475 106.378 29.5475C105.743 29.5475 105.657 29.5566 105.589 29.629Z" fill="black"/>
<path d="M57.2075 29.6742C57.135 29.7511 57.1305 30.0724 57.1305 33.3801C57.1305 36.4751 57.1396 37.009 57.1939 37.0543C57.2438 37.095 57.6923 37.1041 58.9744 37.0905C60.4469 37.0769 60.7278 37.0633 60.9815 36.9955C61.3439 36.8914 62.0824 36.5204 62.2953 36.3303C62.3814 36.2534 62.5037 36.1448 62.5672 36.0905C62.8073 35.8869 63.1879 35.3937 63.3691 35.0452C63.9581 33.914 63.9128 32.5611 63.2558 31.4253C63.0293 31.0407 62.3497 30.3756 61.9329 30.1357C61.5251 29.8959 60.9769 29.7013 60.5511 29.638C60.3744 29.6154 59.5679 29.5928 58.757 29.5928C57.3842 29.5928 57.2755 29.5973 57.2075 29.6742ZM60.5329 31.2579C60.8682 31.3756 61.0993 31.5249 61.3258 31.7737C61.6973 32.1765 61.8785 32.5882 61.9193 33.1312C62.0054 34.3439 61.2941 35.3439 60.2113 35.5158C60.0482 35.543 59.6676 35.5656 59.3595 35.5656H58.8068V33.3756C58.8068 32.1719 58.8249 31.1719 58.843 31.1538C58.8612 31.1357 59.1919 31.1312 59.577 31.1448C60.1161 31.1629 60.3381 31.19 60.5329 31.2579Z" fill="black"/>
<path d="M65.1043 29.6787C65.0726 29.7376 65.059 30.9774 65.059 33.3891C65.059 36.8642 65.0635 37.009 65.145 37.0679C65.2719 37.1584 66.6764 37.1086 66.7353 37.0136C66.7625 36.9728 66.7806 35.5339 66.7806 33.3575C66.7806 29.8326 66.7806 29.7737 66.69 29.6833C66.6084 29.6018 66.5405 29.5928 65.8745 29.5928C65.2085 29.5928 65.1496 29.5973 65.1043 29.6787Z" fill="black"/>
<path d="M71.062 29.724C71.0031 29.8416 70.994 30.3167 70.9986 33.4072C70.9986 36.1176 71.0122 36.9774 71.0529 37.0317C71.1028 37.0995 71.2704 37.1086 72.7156 37.1041C74.4191 37.1041 74.6275 37.0814 75.0444 36.8688C75.5744 36.6018 76.0003 36.1312 76.1362 35.6651C76.245 35.2941 76.2359 34.7466 76.1136 34.4253C76.0411 34.2217 75.9505 34.1041 75.7194 33.8914C75.4476 33.6425 74.9447 33.3484 74.7952 33.3484C74.7635 33.3484 74.8405 33.2805 74.9628 33.2036C75.0851 33.1222 75.3298 32.9095 75.5065 32.7375C75.9006 32.3439 75.9958 32.1131 76.0003 31.5339C76.0003 31.1765 75.9867 31.1222 75.8281 30.8054C75.5473 30.2353 75.058 29.8597 74.3648 29.6832C74.0522 29.6018 73.8619 29.5928 72.5752 29.5928H71.1345L71.062 29.724ZM73.9117 31.2624C74.3421 31.5294 74.392 32.0226 74.0295 32.3756C73.8256 32.5747 73.6489 32.6199 73.0826 32.6244H72.6613L72.6839 31.8869C72.6975 31.4842 72.7111 31.1448 72.7111 31.1357C72.7156 31.1267 72.9467 31.1267 73.2276 31.1403C73.6625 31.1538 73.7667 31.1765 73.9117 31.2624ZM73.948 34.1584C74.0658 34.2127 74.2153 34.3303 74.2787 34.4163C74.3874 34.5566 74.401 34.6108 74.3829 34.8416C74.3693 35.0407 74.3331 35.1448 74.2379 35.267C74.034 35.5339 73.8981 35.5792 73.2457 35.6018L72.6613 35.6199L72.6839 34.8371C72.6975 34.4027 72.7111 34.0407 72.7111 34.0317C72.7156 34.0226 72.9467 34.0226 73.2276 34.0362C73.6354 34.0498 73.7803 34.0769 73.948 34.1584Z" fill="black"/>
<path d="M84.8349 29.6425C84.7851 29.6742 84.7307 29.7194 84.7126 29.7466C84.6582 29.8235 84.7262 36.9819 84.776 37.0498C84.844 37.1312 86.3209 37.1267 86.3934 37.0407C86.4297 37 86.4478 36.5385 86.4523 35.5701L86.4614 34.1584L86.8238 34.1719L87.1908 34.1855L87.9293 35.647L88.6632 37.1041H89.4787H90.2942L90.3441 36.9955C90.3894 36.9004 90.3486 36.8009 90.0088 36.1719C89.4697 35.1584 88.9351 34.1946 88.8852 34.1357C88.858 34.0995 88.9351 34.0407 89.1253 33.9457C89.6509 33.6832 90.0813 33.2624 90.3033 32.7783C90.4845 32.3846 90.5298 31.8145 90.412 31.3575C90.2036 30.543 89.524 29.9004 88.6406 29.6832C88.3189 29.6018 84.9618 29.5701 84.8349 29.6425ZM88.1558 31.1357C88.5726 31.2217 88.8037 31.5023 88.8082 31.9231C88.8127 32.1946 88.6723 32.4887 88.4775 32.6335C88.2917 32.7737 88.0607 32.8054 87.227 32.8054H86.4432V31.9502V31.095L87.1817 31.0905C87.5895 31.086 88.0244 31.1041 88.1558 31.1357Z" fill="black"/>
</svg>
