<svg width="175" height="40" viewBox="0 0 175 40" fill="none" xmlns="http://www.w3.org/2000/svg">
<g clip-path="url(#clip0_10_646)">
<path d="M143.742 32.4072C141.907 32.0389 141.15 30.3466 142.191 28.9395C142.594 28.3952 142.611 28.2753 142.32 28.0341C141.88 27.6695 141.894 26.8982 142.351 26.2454C142.688 25.7649 142.687 25.6883 142.342 25.3065C141.364 24.227 141.812 22.0043 143.175 21.1743C143.827 20.7771 144.33 20.7118 146.742 20.7111L149.551 20.7101V21.7411C149.551 22.5047 149.462 22.772 149.207 22.772C148.966 22.772 148.863 23.0147 148.863 23.5819C148.863 25.1654 147.591 26.2084 145.66 26.2084C145.032 26.2084 144.736 26.3086 144.736 26.5213C144.736 26.7454 145.197 26.8671 146.362 26.9504C148.286 27.0879 149.108 27.5822 149.413 28.7842C149.999 31.0883 146.932 33.0474 143.742 32.4072ZM146.753 30.2685C146.917 30.1366 147.02 29.8134 146.982 29.5504C146.924 29.1395 146.731 29.0626 145.615 29.004C144.441 28.9425 144.299 28.9856 144.153 29.448C143.806 30.5392 145.683 31.1312 146.753 30.2685ZM146.127 24.3677C147.145 23.8233 146.248 22.115 145.096 22.404C144.244 22.6175 143.925 23.3519 144.381 24.0474C144.77 24.6401 145.401 24.7559 146.127 24.3677ZM53.4854 26.5521V20.7102H54.6318C55.6387 20.7102 55.7781 20.768 55.7781 21.185V21.6598L56.3822 21.185C56.7964 20.8595 57.3211 20.7102 58.0508 20.7102C60.0182 20.7102 60.9242 21.9125 60.8626 24.4418C60.8418 25.2972 60.6792 26.2765 60.5013 26.6182C59.7949 27.9749 58.5123 28.7285 56.9096 28.7285H56.0074V30.5613V32.394H54.7464H53.4854V26.5521ZM57.7488 26.322C58.2478 25.8234 58.314 25.5796 58.2542 24.4587C58.2004 23.4477 58.0811 23.1 57.7026 22.8499C57.2787 22.5698 57.1546 22.5834 56.6879 22.961C56.2645 23.3036 56.1356 23.6765 56.0547 24.7932C55.9989 25.5643 56.0138 26.3528 56.0878 26.5455C56.2912 27.0752 57.1045 26.9658 57.7488 26.322ZM38.9648 28.5758C38.8807 28.4918 38.812 26.0588 38.812 23.1691V17.915L41.7352 17.9961C44.3416 18.0684 44.7689 18.1392 45.6778 18.6491C47.0907 19.4419 47.7822 20.8181 47.7822 22.8372C47.7822 23.6646 47.6545 24.7676 47.4984 25.2883C47.1023 26.6092 45.6874 27.9563 44.2472 28.3836C43.0881 28.7276 39.2562 28.867 38.9648 28.5758ZM43.5413 26.2272C44.3017 25.8822 44.5654 25.5946 44.8829 24.7637C45.5372 23.0517 44.9796 20.8575 43.7477 20.2966C43.4171 20.1461 42.7387 20.0229 42.2403 20.0229H41.334V23.1921C41.334 24.9351 41.4027 26.4299 41.4868 26.5139C41.7555 26.7824 42.5675 26.6691 43.5413 26.2272ZM49.4067 28.4566C49.3172 28.3674 49.2745 26.588 49.3119 24.5023L49.3799 20.7102H50.5156H51.6512V24.5817V28.4533L50.6104 28.536C50.038 28.5815 49.4963 28.5458 49.4067 28.4566ZM63.0829 28.2913C62.5724 27.879 62.5352 27.6726 62.427 24.6532C62.364 22.8927 62.3458 21.2853 62.3865 21.0812C62.4428 20.7995 62.7325 20.7102 63.5902 20.7102H64.7198V23.3261C64.7198 26.318 64.8024 26.6667 65.5112 26.6667C66.5749 26.6667 66.8912 25.9194 66.9755 23.2069L67.0531 20.7102H68.2938H69.5345V24.5808V28.4513L68.6315 28.5374C67.4537 28.6496 67.2425 28.5628 67.2383 27.9649C67.2362 27.6856 67.1611 27.5745 67.0663 27.7109C66.3365 28.761 64.0728 29.0909 63.0829 28.2913ZM72.2562 28.2924C71.7571 27.8886 71.711 27.6603 71.6329 25.2014C71.5865 23.7411 71.4658 22.5975 71.3647 22.6599C70.8829 22.9575 70.4516 22.4578 70.4516 21.602C70.4516 20.8034 70.5115 20.7102 71.0248 20.7102C71.5579 20.7102 71.598 20.632 71.598 19.5919V18.4736L72.6166 18.2173C74.1283 17.8369 74.12 17.8307 74.12 19.3356V20.7102H74.9356H75.7512L75.6807 21.6805C75.6129 22.6137 75.5817 22.65 74.8651 22.6278L74.12 22.6047V24.5097C74.12 26.5315 74.3541 26.9714 75.2989 26.7245C75.6686 26.6279 75.7249 26.7529 75.7249 27.6708V28.7285H74.26C73.1615 28.7285 72.6603 28.6194 72.2562 28.2924ZM77.434 28.1662C76.805 27.5376 76.687 26.405 77.1457 25.399C77.4798 24.6662 78.8032 23.9581 80.195 23.7675C81.2304 23.6257 81.4656 23.3308 80.9523 22.8179C80.6151 22.481 79.1846 22.4593 78.3446 22.7784C77.5839 23.0674 77.5269 23.0144 77.3979 21.8986L77.2948 21.0069L78.4014 20.8013C79.0099 20.6881 80.1504 20.6472 80.9357 20.7102C82.102 20.8037 82.4795 20.9405 82.9961 21.4568C83.6178 22.0782 83.63 22.1446 83.7133 25.3612L83.798 28.6334L83.0285 28.5907C82.6054 28.5672 82.0786 28.537 81.8579 28.5237C81.6372 28.5103 81.4567 28.3373 81.4567 28.1391C81.4567 27.8405 81.3534 27.8601 80.8526 28.2537C79.9552 28.959 78.182 28.9136 77.434 28.1662ZM80.9848 26.1642C81.1746 25.8248 81.26 25.4774 81.1747 25.3921C80.9177 25.1353 79.3786 25.5218 79.242 25.8774C78.8099 27.0027 80.3722 27.2597 80.9848 26.1642ZM86.5442 28.2644C85.4843 27.6187 85.0583 26.4746 85.1663 24.5641C85.2592 22.9211 85.6264 22.1862 86.7873 21.3202C87.4176 20.85 88.9229 20.5441 89.9971 20.6679C90.5792 20.735 90.6276 20.8186 90.6276 21.7563V22.772H89.6397C88.2545 22.772 87.8386 23.152 87.7051 24.5397C87.6109 25.5192 87.6725 25.7757 88.1058 26.2086C88.5235 26.6261 88.7988 26.6998 89.6015 26.6094L90.5853 26.4986L90.6716 27.4029C90.7787 28.5258 90.4669 28.7288 88.6365 28.7276C87.7039 28.7269 87.0751 28.5878 86.5442 28.2644ZM97.831 28.5065C97.0125 28.1757 96.1669 26.9535 96.0036 25.8653C95.5453 22.8115 97.2444 20.6774 100.134 20.6774C102.275 20.6774 103.485 21.7124 103.8 23.8142C104.078 25.6624 103.155 27.5985 101.617 28.3931C100.917 28.7549 98.6159 28.8238 97.831 28.5065ZM100.835 26.2028C101.349 25.6351 101.437 23.7091 100.974 23.1512C100.801 22.9427 100.37 22.772 100.016 22.772C98.862 22.772 98.2349 23.8754 98.5215 25.4019C98.7571 26.6567 100.026 27.0961 100.835 26.2028ZM109.829 28.5464L109.199 28.4689V24.2459V20.0229H107.938H106.677V18.9919V17.961H110.46H114.243V18.9919V20.0229H112.982H111.721L111.72 24.3184L111.72 28.6139L111.09 28.6189C110.743 28.6216 110.176 28.589 109.829 28.5464ZM114.864 28.2675C114.099 27.6659 113.898 26.6993 114.325 25.6772C114.756 24.6479 115.445 24.2032 117.134 23.8666C117.877 23.7185 118.518 23.5751 118.56 23.5479C118.602 23.5208 118.515 23.2718 118.366 22.9948C118.125 22.5446 117.958 22.5024 116.8 22.5979C116.087 22.6566 115.349 22.7456 115.16 22.7956C114.902 22.8637 114.799 22.6494 114.747 21.9427C114.663 20.7967 114.849 20.7179 117.642 20.7133C119.448 20.7103 119.587 20.7462 120.221 21.3798L120.892 22.0495V25.0453C120.892 26.6931 120.917 28.1185 120.949 28.213C120.98 28.3075 120.516 28.4163 119.917 28.4547C119.059 28.5097 118.828 28.4496 118.828 28.1717C118.828 27.8747 118.71 27.8907 118.083 28.2728C117.101 28.8709 115.629 28.8685 114.864 28.2675ZM117.819 26.7204C118.069 26.5537 118.599 25.6713 118.599 25.4217C118.599 25.3504 118.289 25.2921 117.911 25.2921C117.016 25.2921 116.157 26.0959 116.548 26.5674C116.842 26.9218 117.414 26.9906 117.819 26.7204ZM134.106 28.2537C133.596 27.8533 133.502 27.5985 133.502 26.6274C133.502 25.6459 133.602 25.3821 134.183 24.8402C134.828 24.2375 136.356 23.6884 137.386 23.6884C137.936 23.6884 137.978 23.4821 137.548 22.8948C137.29 22.5418 137.034 22.4932 136.001 22.6011C135.32 22.6722 134.608 22.7655 134.419 22.8085C134.164 22.8664 134.057 22.6421 134.006 21.9407C133.944 21.0934 133.997 20.9797 134.518 20.8489C135.503 20.602 138.47 20.6534 138.98 20.9263C140.027 21.4863 140.208 22.1325 140.238 25.4117L140.265 28.4992L139.176 28.4993C138.366 28.4994 138.087 28.4124 138.087 28.1592C138.087 27.8815 137.95 27.9024 137.342 28.2729C136.35 28.8773 134.888 28.8686 134.106 28.2537ZM137.218 26.6094C137.418 26.4518 137.651 26.091 137.735 25.8075C137.871 25.3517 137.807 25.2921 137.185 25.2921C136.275 25.2921 135.411 26.0911 135.807 26.5674C136.143 26.9719 136.734 26.9895 137.218 26.6094ZM151.82 28.2085C149.543 26.6882 149.767 22.6154 152.205 21.2294C152.858 20.8581 153.482 20.7169 154.48 20.7148C156.943 20.7096 158.091 21.9096 158.091 24.4902C158.091 27.2471 156.595 28.7285 153.811 28.7285C152.933 28.7285 152.385 28.5854 151.82 28.2085ZM155.124 26.2567C155.634 25.6938 155.757 24.3928 155.385 23.5076C155.139 22.9233 154.941 22.772 154.42 22.772C153.277 22.772 152.875 23.2642 152.875 24.6656C152.875 25.3827 153.008 26.0693 153.19 26.2878C153.605 26.7878 154.658 26.7709 155.124 26.2567ZM164.862 28.5427L164.238 28.4703L164.174 25.6784L164.11 22.8866L163.485 22.8146C162.985 22.7571 162.767 22.8951 162.396 23.5019C162.02 24.1189 161.933 24.6582 161.932 26.3803L161.931 28.4994H160.796H159.661L159.593 24.9801C159.555 23.0445 159.557 21.2919 159.598 21.0855C159.653 20.8073 159.928 20.7102 160.66 20.7102C161.469 20.7102 161.671 20.797 161.774 21.1874L161.898 21.6646L162.581 21.1601C163.707 20.3283 165.72 20.5669 166.272 21.5976C166.518 22.0576 166.649 28.1002 166.421 28.4695C166.343 28.5959 166.1 28.6804 165.882 28.6573C165.664 28.6341 165.205 28.5825 164.862 28.5427ZM168.685 28.1662C168.066 27.5482 167.936 26.408 168.375 25.4463C168.705 24.7211 170.026 23.9988 171.389 23.7973C172.475 23.6367 172.724 23.3381 172.203 22.8178C171.866 22.4809 170.435 22.4593 169.595 22.7784C169.254 22.9079 168.95 22.9853 168.919 22.9502C168.888 22.9152 168.792 22.4612 168.706 21.9413C168.551 21.0018 168.555 20.9951 169.357 20.8447C170.865 20.5619 173.084 20.6564 173.816 21.0344C174.761 21.5227 174.997 22.4755 174.999 25.8075L175 28.4994H173.854C172.964 28.4994 172.707 28.4187 172.707 28.1391C172.707 27.8405 172.604 27.8601 172.103 28.2537C171.206 28.959 169.433 28.9136 168.685 28.1662ZM172.235 26.1641C172.425 25.8248 172.511 25.4774 172.425 25.3921C172.168 25.1353 170.629 25.5218 170.493 25.8774C170.06 27.0027 171.623 27.2597 172.235 26.1641ZM92.2283 28.2131C92.2108 27.0333 92.1993 21.2247 92.2141 20.9966C92.2262 20.8081 92.6245 20.7102 93.3789 20.7102H94.5252V24.6048V28.4994H93.3789C92.6169 28.4994 92.2311 28.4034 92.2283 28.2131ZM122.909 24.9801C122.871 23.0445 122.874 21.2919 122.915 21.0855C122.97 20.8055 123.246 20.7102 124.004 20.7102C124.955 20.7102 125.019 20.749 125.019 21.3339C125.019 21.9507 125.022 21.9523 125.359 21.4721C125.711 20.9704 126.94 20.416 127.177 20.6525C127.251 20.7263 127.311 21.2849 127.311 21.8939C127.311 22.8884 127.259 23.0015 126.795 23.0047C125.621 23.0127 125.248 23.8708 125.248 26.567V28.4994H124.113H122.977L122.909 24.9801ZM128.458 24.6048V20.7102H129.604C130.628 20.7102 130.75 20.7633 130.75 21.2083V21.7064L131.266 21.2288C131.55 20.9661 132.04 20.7162 132.355 20.6734C132.877 20.6027 132.926 20.6683 132.9 21.3975C132.845 22.9745 132.834 23.0011 132.246 23.0011C131.27 23.0011 130.911 23.882 130.886 26.3358L130.865 28.4959L129.661 28.4978L128.458 28.4994V24.6048ZM49.3751 19.4193C48.7641 18.6431 48.7764 18.2928 49.4377 17.632C50.3975 16.673 51.8805 17.3087 51.8805 18.6791C51.8805 19.9603 50.1934 20.4587 49.3751 19.4193ZM92.2451 19.4142C91.462 18.4193 92.0504 17.2613 93.3579 17.2242C94.2446 17.199 94.8118 17.7049 94.8118 18.5209C94.8118 19.952 93.1294 20.5375 92.2451 19.4142ZM98.7766 19.1254L98.4307 18.457L99.9445 17.6256C100.777 17.1683 101.48 16.8247 101.507 16.8621C102.036 17.6028 102.321 18.1135 102.321 18.3213C102.321 18.5451 99.7454 19.7963 99.2885 19.7945C99.1972 19.7941 98.9668 19.493 98.7766 19.1254Z" fill="white"/>
<path d="M23.3807 4.6635H7.84296V7.41264H23.3807V4.6635Z" fill="white"/>
<path d="M6.02595 3.66552C7.03895 3.66552 7.86014 2.84497 7.86014 1.83276C7.86014 0.820555 7.03895 0 6.02595 0C5.01296 0 4.19177 0.820555 4.19177 1.83276C4.19177 2.84497 5.01296 3.66552 6.02595 3.66552Z" fill="white"/>
<path d="M25.1015 3.66552C26.1144 3.66552 26.9356 2.84497 26.9356 1.83276C26.9356 0.820555 26.1144 0 25.1015 0C24.0885 0 23.2673 0.820555 23.2673 1.83276C23.2673 2.84497 24.0885 3.66552 25.1015 3.66552Z" fill="white"/>
<path d="M15.5637 3.66552C16.5767 3.66552 17.3979 2.84497 17.3979 1.83276C17.3979 0.820555 16.5767 0 15.5637 0C14.5507 0 13.7296 0.820555 13.7296 1.83276C13.7296 2.84497 14.5507 3.66552 15.5637 3.66552Z" fill="white"/>
<path d="M10.7948 3.66552C11.8078 3.66552 12.629 2.84497 12.629 1.83276C12.629 0.820555 11.8078 0 10.7948 0C9.78182 0 8.96063 0.820555 8.96063 1.83276C8.96063 2.84497 9.78182 3.66552 10.7948 3.66552Z" fill="white"/>
<path d="M20.3326 3.66552C21.3456 3.66552 22.1668 2.84497 22.1668 1.83276C22.1668 0.820555 21.3456 0 20.3326 0C19.3196 0 18.4984 0.820555 18.4984 1.83276C18.4984 2.84497 19.3196 3.66552 20.3326 3.66552Z" fill="white"/>
<path d="M13.9305 29.279C14.6468 28.5633 14.6468 27.4028 13.9305 26.6871C13.2142 25.9713 12.0529 25.9713 11.3366 26.6871C10.6203 27.4028 10.6203 28.5633 11.3366 29.279C12.0529 29.9947 13.2142 29.9947 13.9305 29.279Z" fill="white"/>
<path d="M20.6748 22.54C21.3911 21.8243 21.3911 20.6638 20.6748 19.9481C19.9585 19.2324 18.7971 19.2324 18.0808 19.9481C17.3645 20.6638 17.3645 21.8243 18.0808 22.54C18.7971 23.2558 19.9585 23.2558 20.6748 22.54Z" fill="white"/>
<path d="M14.7087 25.9094C13.9924 25.1937 13.9924 24.0332 14.7087 23.3175C15.425 22.6018 16.5864 22.6018 17.3026 23.3175C18.0189 24.0332 18.0189 25.1937 17.3026 25.9094C16.5864 26.6252 15.425 26.6252 14.7087 25.9094Z" fill="white"/>
<path d="M18.0808 29.2789C17.3645 28.5632 17.3645 27.4027 18.0808 26.687C18.7971 25.9713 19.9584 25.9713 20.6747 26.687C21.391 27.4027 21.391 28.5632 20.6747 29.2789C19.9584 29.9947 18.7971 29.9947 18.0808 29.2789Z" fill="white"/>
<path d="M11.3366 22.5399C10.6203 21.8242 10.6203 20.6637 11.3366 19.948C12.0529 19.2323 13.2142 19.2323 13.9305 19.948C14.6468 20.6637 14.6468 21.8242 13.9305 22.5399C13.2142 23.2557 12.0529 23.2557 11.3366 22.5399Z" fill="white"/>
<path d="M7.96452 25.9093C7.24823 25.1936 7.24823 24.0332 7.96452 23.3174C8.68081 22.6017 9.84215 22.6017 10.5584 23.3174C11.2747 24.0332 11.2747 25.1936 10.5584 25.9093C9.84215 26.6251 8.68081 26.6251 7.96452 25.9093Z" fill="white"/>
<path d="M14.7088 19.1705C13.9925 18.4547 13.9925 17.2943 14.7088 16.5785C15.4251 15.8628 16.5864 15.8628 17.3027 16.5785C18.019 17.2943 18.019 18.4547 17.3027 19.1705C16.5864 19.8862 15.4251 19.8862 14.7088 19.1705Z" fill="white"/>
<path d="M21.4529 25.9093C20.7366 25.1936 20.7366 24.0332 21.4529 23.3174C22.1692 22.6017 23.3305 22.6017 24.0468 23.3174C24.7631 24.0332 24.7631 25.1936 24.0468 25.9093C23.3305 26.6251 22.1692 26.6251 21.4529 25.9093Z" fill="white"/>
<path d="M15.5637 8.89676L0 24.4484L15.5637 40L31.1274 24.4484L15.5637 8.89676ZM15.5637 12.8365L27.1846 24.4484L15.5637 36.0603L3.94278 24.4484L15.5637 12.8365Z" fill="white"/>
<path d="M13.3312 30.4994V31.9656H14.594V33.61H16.6091V31.9656H17.9166V30.4994H13.3312Z" fill="white"/>
</g>
<defs>
<clipPath id="clip0_10_646">
<rect width="175" height="40" fill="white"/>
</clipPath>
</defs>
</svg>
