<svg width="40" height="40" viewBox="0 0 40 40" fill="none" xmlns="http://www.w3.org/2000/svg">
<rect width="40" height="40" fill="#F9F4EC"/>
<path d="M21.7716 5.08679C24.4204 4.74847 28.9223 5.43323 31.4071 6.54997C31.936 6.82143 31.9301 8.22288 31.9389 8.74636C31.954 9.65176 32.514 13.4666 32.1185 14.0449C31.9639 14.0891 31.6803 14.1651 31.5872 14.021C31.3515 13.6564 31.1092 12.9841 30.9114 12.5784C29.9303 10.5996 28.2723 8.52107 26.2742 7.51737C21.3951 5.06645 15.3575 6.86135 12.8927 11.8174C11.0869 15.4486 10.8837 19.6139 12.1009 23.3987C12.0862 20.5161 12.158 17.3981 14.2931 15.0794C14.8262 14.5005 16.3685 13.5718 17.1491 13.5693C17.2908 13.6581 17.3319 13.6628 17.3964 13.8313C17.5798 14.3106 17.5446 15.01 17.5409 15.4796C17.5129 19.0691 14.9364 17.7491 13.9828 20.5105C13.2062 23.011 13.8587 25.2145 14.8506 27.5364C16.664 31.7812 21.8533 33.8091 26.1177 32.231C26.8869 31.9464 27.2927 31.1876 27.5467 30.4246C27.8132 29.3113 28.0019 27.0266 27.7501 25.8868C27.1714 23.2675 23.5429 24.2033 21.9789 22.1333C20.7267 20.4761 20.7128 19.5898 20.8117 17.5928C21.3923 18.1738 22.1704 18.9889 22.894 19.3377C25.3533 20.5232 28.7902 19.9272 31.0462 21.7021C33.2631 23.4889 32.775 26.6527 32.7463 29.1604C32.7405 29.6679 33.2638 31.92 32.8238 32.1616C30.7156 33.3176 27.3882 33.6855 25.0501 33.8883C19.9188 34.3333 14.6017 33.5259 10.6016 30.0674C7.90884 27.6977 6.26965 24.3582 6.04442 20.783C5.74471 17.0193 6.97075 13.2929 9.44794 10.4384C12.5721 6.87079 17.1583 5.38811 21.7716 5.08679Z" fill="#4A3523"/>
</svg>
