<svg width="194" height="40" viewBox="0 0 194 40" fill="none" xmlns="http://www.w3.org/2000/svg">
<path d="M51.0877 1C51.0553 1.56956 51.0627 2.24287 51.0555 2.82031C50.1043 3.72561 48.0828 5.07315 46.9559 5.78809C41.4404 9.28721 35.2615 11.7428 28.7196 12.377C19.2947 13.2904 8.23417 8.67464 1.03498 2.87207C0.993265 2.28679 1.01196 1.59437 1.01447 1H8.83381C9.26493 1.48507 9.69295 2.00273 10.1473 2.46387C18.0204 10.4547 32.5664 10.8677 40.9383 3.44043C41.3919 3.04208 41.8207 2.61629 42.2215 2.16504C42.5248 1.81768 42.9139 1.3166 43.2215 1H51.0877Z" fill="black"/>
<path d="M1.01582 10.3046C1.291 10.4328 1.88838 10.8048 2.17944 10.97C2.76583 11.2974 3.36156 11.6076 3.96595 11.9005C6.64676 13.2055 9.44199 14.2619 12.3165 15.0561C23.4186 18.1955 35.2626 17.4485 45.8808 12.9392C47.8896 12.0744 49.2019 11.3422 51.0641 10.2943L51.0597 14.7595L51.0549 16.182C51.0181 16.1992 50.9808 16.216 50.9435 16.2325C49.9957 16.6558 48.7508 17.0808 47.7647 17.4179C45.691 18.1333 43.5897 18.7648 41.4649 19.3109C37.6573 20.2999 32.7202 21.249 28.7639 21.4274C19.4443 21.8477 9.67574 19.4839 1.02313 16.2064C1.01064 14.2392 1.00822 12.2719 1.01582 10.3046Z" fill="black"/>
<path d="M51.0374 21.9257C51.1589 22.3458 51.0626 26.7492 51.0612 27.4997C50.3961 27.721 49.6148 27.879 48.9274 28.043C47.2386 28.4457 45.5463 28.7472 43.8405 29.0555C29.6182 31.5489 15.0298 31.0313 1.02071 27.5364L1.0135 26.3306L1.00885 21.9321C15.6315 27.7 36.4363 27.7563 51.0374 21.9257Z" fill="black"/>
<path d="M1.01513 33.2593C14.319 36.0898 28.0094 36.6311 41.4959 34.8601C43.749 34.5577 45.996 34.211 48.2357 33.8203C49.1622 33.6525 50.1565 33.3824 51.0583 33.2473C51.0733 34.2701 51.0616 35.3219 51.0626 36.347C51.066 37.2313 51.0636 38.1157 51.0549 39L1.03246 38.9921C0.980425 37.1332 1.00385 35.1268 1.01513 33.2593Z" fill="black"/>
<path d="M91.6892 27.94C91.8132 28.0528 91.8133 28.0663 92.0182 28.073C92.6084 28.0916 93.2103 28.0937 93.8008 28.0989C95.0178 28.1092 96.2348 28.1128 97.4518 28.1108L106.966 28.1077C108.15 28.1072 109.53 28.0611 110.689 28.0833C110.826 28.1951 110.964 28.2997 111.084 28.4291L110.901 28.5507C110.762 28.4545 110.518 28.4601 110.349 28.4591C105.982 28.4363 101.602 28.4363 97.2361 28.4451L93.5927 28.456C93.2653 28.4565 92.1481 28.4338 91.8846 28.4809C91.7354 28.6175 91.7748 28.5487 91.7297 28.7391C91.8003 28.8934 91.7564 28.8406 91.925 28.9275C92.1227 28.9508 92.2989 28.8173 92.476 28.7143C92.661 28.8426 92.8863 29.0341 93.0663 29.1786C93.2756 29.0373 93.3812 28.8965 93.5744 28.7743L93.6168 28.8173C93.611 28.8732 93.6133 28.9446 93.5842 28.9891C93.2534 29.4995 92.3751 29.6827 91.8712 29.3359C91.5206 29.0952 91.4835 28.8421 91.4094 28.4658C91.1108 28.456 90.855 28.4664 90.5585 28.4788C90.3334 28.4498 89.6701 28.4643 89.4172 28.4653C89.1258 28.3587 88.6968 28.4431 88.5404 28.2997C88.8136 27.8949 91.0523 28.3199 91.5909 28.0978C91.6438 28.0761 91.658 28.0067 91.6892 27.94Z" fill="black"/>
<path d="M89.0332 26.4074C89.2172 26.2262 89.8181 25.8303 90.0623 25.6621C89.9407 25.9612 89.8759 26.2407 89.8277 26.558C89.7071 27.3515 89.1426 27.6284 88.5183 28.0745C89.5197 28.0844 90.5212 28.0818 91.5225 28.0668C91.4794 27.9602 91.4061 27.7868 91.3837 27.6832C91.1957 26.8132 92.3456 25.9732 93.1044 26.4938C93.2947 26.6243 93.5014 26.8644 93.5423 27.0813C93.0645 27.0062 93.1235 26.1983 92.2595 27.3473C92.0867 27.3836 91.9727 27.4053 91.804 27.4669C91.6727 27.6553 91.712 27.6765 91.6892 27.94C91.658 28.0067 91.6438 28.0761 91.5909 28.0978C91.0523 28.3199 88.8136 27.8949 88.5404 28.2997C88.6968 28.4431 89.1258 28.3587 89.4172 28.4653C89.6701 28.4643 90.3334 28.4498 90.5585 28.4788C90.3433 28.6516 89.3399 28.486 89.1774 28.5823L89.2114 28.6206C89.6229 28.6661 90.8741 29.162 90.6662 29.619C89.5586 29.6563 89.2771 29.8768 88.4423 28.9456C88.5398 30.2422 88.2267 29.8084 87.4321 30.5822C87.4569 30.3343 87.4322 29.8478 87.4062 29.5952C87.3505 29.0533 88.2296 28.9658 88.2096 28.5797C87.9515 28.427 87.3224 28.4695 87 28.47V28.0751C87.2265 28.0782 87.819 28.1123 87.9756 28.0057C88.149 27.5973 87.3326 26.5844 87.6522 26.0642C87.7642 25.8821 88.1265 25.7584 88.2902 25.865C88.1805 26.0855 88.0487 26.3593 88.3028 26.5244C88.709 26.7878 88.2894 27.5011 88.4007 27.6822C88.829 27.5611 88.9117 26.793 89.0332 26.4074Z" fill="black"/>
<path d="M89.2114 28.6206C88.9869 28.6754 88.6036 28.7681 88.4186 28.6025C88.616 28.412 89.1486 28.4601 89.4172 28.4653C89.6701 28.4643 90.3334 28.4498 90.5585 28.4788C90.3433 28.6516 89.3399 28.486 89.1774 28.5823L89.2114 28.6206Z" fill="white"/>
<path d="M112.671 28.5373C113.46 28.0735 113.699 28.088 114.582 28.1367C114.339 28.2386 114.31 28.1952 114.317 28.4954L114.262 28.557L113.868 28.8856C113.938 28.956 113.975 29.0042 114.066 29.0471C113.15 29.3799 112.806 28.9907 112.012 28.8758L111.964 28.8691L112.07 28.8137L111.997 28.7081C112.121 28.5052 111.932 28.425 112.226 28.2537C112.407 28.2925 112.524 28.4157 112.671 28.5373Z" fill="black"/>
<path d="M113.868 28.8856C113.594 28.9099 113.238 28.9492 112.98 28.8349L112.997 28.7391C113.246 28.487 113.774 28.2603 114.151 28.3649C114.216 28.383 114.236 28.4891 114.262 28.5569L113.868 28.8856Z" fill="white"/>
<path d="M114.582 28.1366C115.182 28.044 116.024 27.9601 116.619 28.104C116.533 28.2065 115.147 28.2836 114.836 28.3468C114.645 28.5284 114.26 28.9073 114.066 29.0471C113.975 29.0041 113.938 28.956 113.868 28.8856L114.262 28.5569L114.317 28.4953C114.31 28.1951 114.339 28.2386 114.582 28.1366Z" fill="black"/>
<path d="M111.084 28.4291C111.294 28.5295 111.767 28.6718 111.997 28.7081L112.07 28.8137L111.964 28.8691C111.735 28.8913 111.509 28.8965 111.282 28.8577C110.873 28.7873 110.879 28.8866 110.559 29.087L110.484 29.0492C110.483 28.8251 110.74 28.6687 110.901 28.5507L111.084 28.4291Z" fill="black"/>
<path d="M110.378 33.9191C111.173 33.8725 112.135 33.873 112.928 33.9108C113.632 33.9439 114.05 34.4838 113.906 35.1799C113.813 35.6256 113.62 35.7798 113.258 36.0433C113.551 36.7555 113.924 37.7673 114.33 38.3817C114.002 38.4071 112.935 38.5287 112.706 38.2968C112.687 38.1151 112.694 38.1711 112.812 37.978C112.884 37.904 112.854 37.9469 112.873 37.8243C112.728 37.4511 112.337 36.2399 111.806 36.419C111.632 36.6587 111.682 37.5215 111.682 37.8621C111.867 37.9987 111.933 38.0411 111.966 38.2611L111.889 38.3465C111.654 38.4397 110.689 38.4516 110.466 38.3626C110.391 38.0794 110.611 37.8952 110.615 37.7016C110.635 36.61 110.656 35.4791 110.572 34.3891C110.566 34.314 110.417 34.079 110.378 33.9191Z" fill="black"/>
<path d="M111.843 34.3233C111.882 34.3213 111.921 34.3207 111.96 34.3213C112.818 34.328 113.277 35.0034 112.474 35.6706C112.26 35.7803 111.917 35.8952 111.682 35.9817C111.676 35.5293 111.595 34.6556 111.843 34.3233Z" fill="white"/>
<path d="M126.369 26.9162C126.464 26.6067 126.64 26.0264 127.112 26.2024C127.127 26.3784 126.919 26.7485 126.862 27.0093C127.285 27.2899 127.469 27.4312 127.795 27.8318C128.235 27.7433 128.998 27.7697 129.176 27.705C129.199 27.5057 129.148 27.2873 129.222 27.1822C129.398 27.2055 129.521 27.3359 129.666 27.4524C129.814 27.3406 130.202 26.9969 130.333 26.9565C130.396 27.3799 129.702 27.8923 129.724 28.1258L129.571 28.2966C129.534 28.3871 129.509 28.4042 129.521 28.4881L129.296 28.2681C129.248 27.9881 128.801 27.9736 128.565 27.9943C127.976 28.0461 127.738 29.3234 127.081 28.5786C126.972 28.4813 126.222 28.4006 125.802 28.2365C125.62 28.3861 125.557 28.4529 125.332 28.5264L125.247 28.5735C125.462 28.707 125.553 28.7909 125.666 29.0145C125.543 29.2003 125.201 28.9782 124.876 29.1594C124.589 29.5962 125.053 29.7955 125.488 29.6676L125.55 29.649L125.599 29.6764C125.104 30.2825 124.5 30.0884 124.19 29.4378C123.908 29.6288 122.625 30.4394 122.404 29.7655C122.363 29.6412 122.369 29.545 122.426 29.4311C122.586 29.443 122.514 29.6687 122.721 29.7681C123.054 29.7313 123.55 29.5134 123.502 29.1118C123.335 28.972 123.059 29.0196 122.829 29.0315L122.776 28.9275C122.839 28.5062 123.608 28.5843 123.963 28.574C124.287 28.3338 124.361 27.7754 123.827 27.6812L123.155 27.7138L123.185 27.4969C123.755 27.5073 124.793 27.1475 125.695 27.1103C125.523 26.9508 125.44 26.925 125.374 26.7252C125.566 26.5751 126.146 26.8282 126.369 26.9162Z" fill="black"/>
<path d="M124.334 27.5926C124.64 27.5802 124.937 27.692 125.159 27.9022C125.423 28.1553 125.423 28.2034 125.332 28.5264L125.247 28.5735L124.759 28.6185C124.604 28.2758 124.45 27.9508 124.334 27.5926Z" fill="white"/>
<path d="M125.802 28.2366C126.137 28.0865 126.034 27.8608 126.422 27.9478C126.539 27.9736 126.568 28.1776 126.588 28.2738C126.862 28.4804 126.893 28.2153 127.07 28.4565L127.081 28.5787C126.972 28.4814 126.222 28.4006 125.802 28.2366Z" fill="black"/>
<path d="M126.862 27.5777C127.067 27.5906 127.477 27.705 127.533 27.925L127.426 28.0093C127.261 28.1165 127.311 28.1159 127.137 28.1284C126.918 27.9643 126.928 27.8623 126.862 27.5777Z" fill="white"/>
<path d="M125.128 27.4451C125.512 27.3965 125.805 27.4431 125.857 27.8597C125.594 27.8525 125.308 27.6237 125.128 27.4451Z" fill="white"/>
<path d="M119.809 25.2532C119.866 25.1947 119.917 25.145 119.977 25.0891C120.141 25.1295 120.163 25.1921 120.193 25.352C120.5 25.3174 120.622 24.7537 121.092 25.0979C121.126 25.1724 121.153 25.2283 121.178 25.307C121.041 25.5731 121.007 25.5591 121.25 25.7998L121.229 25.9053L121.069 25.9835C121.077 26.262 121.838 27.0285 122.04 27.2837C122.122 27.3877 122.233 27.4058 122.361 27.4006C122.36 27.4317 122.356 27.5285 122.361 27.5528C122.243 27.9094 122.155 28.0176 122.056 28.4519L122.158 28.4322L122.252 28.2303C122.367 28.2919 122.324 28.2479 122.379 28.3747C122.324 28.5326 122.308 28.4964 122.357 28.6133C122.361 29.0776 121.742 29.3193 121.366 29.4083C121.039 29.3587 120.507 29.0662 120.226 29.0947C120.025 29.1149 119.69 29.5807 119.744 29.839C119.893 29.9208 120.183 29.8286 120.467 29.8597C120.644 30.0025 120.587 30.2096 120.451 30.3721C120.199 30.6723 119.7 30.3819 119.49 30.1428C119.009 29.5921 119.757 29.0357 120.148 28.7391C120.166 28.6232 120.125 27.8054 120.127 27.5616L120.042 27.454L119.929 27.808L119.882 27.8701C119.744 27.9177 119.186 28.3059 119.019 28.4141L119.423 27.8515C119.559 27.4979 119.845 26.3334 119.977 26.2231L119.96 26.1088L119.781 26.0756C119.696 25.9038 119.702 25.9804 119.763 25.7884L119.8 25.7785L119.821 25.5762C119.7 25.4721 119.443 25.2791 119.465 25.115C119.609 25.1228 119.681 25.1802 119.809 25.2532Z" fill="white"/>
<path d="M120.127 27.5616L120.254 27.4845C120.389 27.6175 120.512 28.4488 120.599 28.7495C121.385 29.4839 121.509 28.7541 122.056 28.4519L122.158 28.4322L122.252 28.2303C122.367 28.2919 122.324 28.2479 122.379 28.3747C122.324 28.5326 122.308 28.4964 122.357 28.6133C122.361 29.0776 121.742 29.3193 121.366 29.4084C121.039 29.3587 120.507 29.0662 120.226 29.0947C120.025 29.1149 119.69 29.5807 119.744 29.839C119.893 29.9208 120.183 29.8286 120.467 29.8597C120.644 30.0025 120.587 30.2096 120.451 30.3721C120.199 30.6723 119.7 30.3819 119.49 30.1428C119.009 29.5921 119.757 29.0357 120.148 28.7391C120.166 28.6232 120.125 27.8054 120.127 27.5616Z" fill="black"/>
<path d="M120.832 26.1377C121.118 26.4472 121.977 27.3308 121.884 27.7381C121.759 27.8261 121.829 27.7997 121.663 27.8018C121.132 27.5471 121.044 26.7045 120.756 26.4074C120.754 26.2718 120.767 26.2619 120.832 26.1377Z" fill="black"/>
<path d="M120.658 26.5259C120.936 27.0042 121.112 27.5704 121.425 28.0398C121.515 28.1739 121.624 28.3457 121.703 28.4839C121.506 28.3452 121.092 27.985 120.938 27.9255C120.833 27.9658 120.76 27.9964 120.659 28.0455C120.525 27.8851 120.583 27.5549 120.602 27.3432L120.62 27.1625C120.599 26.9607 120.549 26.6827 120.658 26.5259Z" fill="black"/>
<path d="M119.977 26.2231C120.06 26.4638 120.042 27.0865 120.044 27.3706L120.042 27.4539L119.929 27.808L119.882 27.8701C119.744 27.9177 119.186 28.3059 119.019 28.4141L119.423 27.8514C119.559 27.4979 119.845 26.3334 119.977 26.2231Z" fill="black"/>
<path d="M119.423 27.8515C119.773 27.911 119.532 27.7583 119.929 27.808L119.882 27.8701C119.744 27.9177 119.186 28.3059 119.019 28.4141L119.423 27.8515Z" fill="black"/>
<path d="M120.805 26.0591L120.832 26.1377C120.767 26.262 120.754 26.2718 120.756 26.4074L120.658 26.5259C120.549 26.6828 120.599 26.9607 120.62 27.1626C120.537 27.1605 120.441 27.1745 120.357 27.1833C120.2 27.0218 120.195 26.8422 120.16 26.6238C120.045 26.8903 120.139 27.0828 120.044 27.3706C120.042 27.0865 120.06 26.4638 119.977 26.2231L119.96 26.1088C120.323 26.1657 120.461 26.1786 120.805 26.0591Z" fill="white"/>
<path d="M120.16 26.6238C120.201 26.4431 120.172 26.4105 120.295 26.3256C120.459 26.5151 120.446 26.9602 120.357 27.1833C120.2 27.0218 120.195 26.8422 120.16 26.6238Z" fill="black"/>
<path d="M119.8 25.7785C120.091 25.6631 120.635 25.5684 120.899 25.7718L120.921 25.895L120.805 26.0591C120.461 26.1786 120.323 26.1657 119.96 26.1087L119.781 26.0756C119.696 25.9038 119.702 25.9804 119.763 25.7884L119.8 25.7785Z" fill="black"/>
<path d="M119.821 25.5762C119.7 25.4721 119.443 25.2791 119.465 25.115C119.609 25.1228 119.681 25.1802 119.809 25.2532L119.913 25.4757C119.871 25.5311 119.875 25.5384 119.821 25.5762Z" fill="black"/>
<path d="M149.397 27.4084C149.455 27.4809 149.526 27.5544 149.557 27.6398C149.493 27.7971 149.374 27.9638 149.522 28.1035C149.634 28.0963 149.862 28.0756 149.965 28.0859C150.203 28.1506 152.122 28.1693 152.594 28.2055C152.733 28.1165 152.747 28.0885 152.852 27.9565C153.164 27.9674 153.038 28.4581 153.804 28.0813L153.942 28.1056C154.021 28.2583 154.001 28.1962 153.988 28.3809C153.662 28.5916 153.226 28.3147 152.879 28.6387L152.779 28.6506C152.773 28.4684 152.801 28.4958 152.716 28.3654C152.382 28.3235 151.67 28.295 151.387 28.4643C150.965 28.4674 149.82 28.4079 149.52 28.5331C149.451 28.634 149.449 28.676 149.422 28.7929C149.366 28.8825 149.283 29.0243 149.216 29.1014L149.098 29.0362C149.19 28.8048 149.206 28.7417 149.248 28.4964C148.978 28.4539 147.686 28.4684 147.353 28.4674L143.269 28.4565C139.089 28.4513 134.728 28.3778 130.571 28.4296C130.397 28.5585 130.205 28.6646 130.019 28.7748C129.873 28.633 129.711 28.4482 129.571 28.2966L129.724 28.1258C130.359 28.5481 130.086 28.0776 130.63 28.0761L143.152 28.1087C144.387 28.1102 145.622 28.1051 146.857 28.0927C147.418 28.087 148.494 28.0492 149.008 28.103C149.261 28.0626 149.215 27.6801 149.397 27.4084Z" fill="black"/>
<path d="M149.397 27.4084C149.455 27.4809 149.526 27.5544 149.557 27.6398C149.493 27.7971 149.374 27.9638 149.522 28.1035L149.5 28.1532C149.317 28.2215 149.165 28.2345 149.008 28.103C149.261 28.0626 149.215 27.6801 149.397 27.4084Z" fill="black"/>
<path d="M128.857 33.7778C129.235 33.7747 129.722 33.7804 130.035 34.0112C130.325 34.2245 130.481 34.5242 130.224 34.8233C129.77 34.9729 129.586 34.1215 129.137 34.1836C127.625 34.3932 128.244 35.4217 129.419 35.5857C130.074 35.6773 130.768 36.2814 130.679 37.0018C130.515 38.3191 129.849 38.5846 128.623 38.5158C128.099 38.3988 127.058 37.9304 127.279 37.2549C127.368 37.1602 127.434 37.1581 127.56 37.1261C128.004 37.3315 128.556 38.8408 129.576 37.7865C130.437 36.7948 128.207 36.7539 127.789 36.2891C126.816 35.2084 127.375 33.9082 128.857 33.7778Z" fill="black"/>
<path d="M121.66 33.8606C122.063 33.8565 123.084 33.6945 123.222 34.1034C123.195 34.2949 123.041 34.4051 122.898 34.5397C122.81 35.5019 122.356 38.4604 124.182 37.9112C125.081 37.6405 124.788 35.3699 124.763 34.6303C124.754 34.3839 124.27 34.2198 124.495 33.9036C124.761 33.8295 125.189 33.8575 125.478 33.8622C125.621 33.9093 125.567 33.8668 125.649 33.991C125.62 34.1753 125.492 34.2861 125.364 34.4331C125.36 35.1245 125.347 36.0019 125.371 36.7684C125.429 38.6172 123.307 38.9479 122.194 37.9894C121.599 37.4764 121.83 35.2995 121.908 34.4279C121.625 34.1955 121.59 34.2276 121.66 33.8606Z" fill="black"/>
<path d="M116.133 33.9186C116.188 33.9139 116.244 33.9108 116.299 33.9082C116.795 33.8901 119.058 33.8124 119.321 34.0536C119.395 34.3078 119.363 34.6965 119.355 34.9713C119.102 34.74 118.948 34.5976 118.664 34.3994C118.199 34.3456 117.95 34.3259 117.485 34.387L117.484 35.7125C118.175 35.7306 118.257 35.6902 118.951 35.5971C119.049 35.8574 119.168 36.2249 118.941 36.435C118.723 36.4149 118.743 36.3745 118.541 36.2063C118.198 36.198 117.828 36.2037 117.483 36.2032L117.476 36.7466C117.467 37.1374 117.474 37.5096 117.483 37.8998C118.01 37.9138 118.438 37.919 118.964 37.8936C119.111 37.7243 119.256 37.4992 119.455 37.4619L119.536 37.5282C119.608 37.7606 119.558 38.1327 119.54 38.3874C118.777 38.4619 117.096 38.4195 116.293 38.3734C116.233 38.3698 116.238 38.3413 116.19 38.2688C116.2 38.068 116.302 37.9459 116.411 37.7709C116.436 36.7001 116.416 35.5696 116.407 34.4972C116.243 34.271 116.17 34.1924 116.133 33.9186Z" fill="black"/>
<path d="M116.927 25.424C117.139 25.6331 117.352 26.0839 117.683 26.0285C117.982 25.9783 118.75 25.8717 118.938 25.6486C118.834 25.5135 118.668 25.5622 118.439 25.4493L118.489 25.366C118.819 25.2107 119.462 25.4664 119.7 25.7154L119.763 25.7884C119.702 25.9804 119.696 25.9038 119.781 26.0756L119.747 26.1212C119.623 26.5249 119.49 26.926 119.348 27.324C119.226 27.6398 119.159 27.8799 118.857 28.0683C118.558 28.2541 118.251 28.4643 117.885 28.4638L117.771 28.4115C117.706 28.1775 117.807 28.0295 117.789 27.8256C117.508 27.925 116.961 28.1403 116.87 27.721C116.921 27.5321 117.037 27.47 117.192 27.3525C116.962 27.1149 115.728 27.0673 116.174 26.3406C116.587 26.2749 116.339 26.5461 116.683 26.7842C116.977 26.8013 117.824 26.6574 117.88 26.3303L117.79 26.2744C117.563 26.2842 117.336 26.3919 117.122 26.4768L117.072 26.4364C117.096 26.4048 117.119 26.3732 117.142 26.3411C117.161 26.3059 117.179 26.2708 117.197 26.235C117.047 25.9695 116.977 25.6947 116.927 25.424Z" fill="black"/>
<path d="M116.927 25.424C117.139 25.6331 117.352 26.0839 117.683 26.0285C117.982 25.9783 118.75 25.8717 118.938 25.6486C118.834 25.5135 118.668 25.5622 118.439 25.4493L118.489 25.366C118.819 25.2107 119.462 25.4664 119.7 25.7154C119.224 25.9706 118.865 26.191 118.452 26.5508C118.107 26.8515 117.819 27.1869 117.429 27.4172L117.382 27.4457C117.351 27.4628 117.32 27.4798 117.29 27.4969L117.192 27.3525C116.962 27.1149 115.728 27.0673 116.174 26.3406C116.587 26.2749 116.339 26.5461 116.683 26.7842C116.977 26.8013 117.824 26.6574 117.88 26.3303L117.79 26.2744C117.563 26.2842 117.336 26.3919 117.122 26.4768L117.072 26.4364C117.096 26.4048 117.119 26.3732 117.142 26.3411C117.161 26.3059 117.179 26.2708 117.197 26.235C117.047 25.9695 116.977 25.6947 116.927 25.424Z" fill="black"/>
<path d="M118.366 27.559C118.631 27.4229 118.818 26.9933 119.054 26.9322C119.1 27.0885 119.061 27.1683 119.019 27.3266L119.072 27.3101C119.149 27.2852 119.167 27.2713 119.236 27.2257L119.348 27.324C119.226 27.6398 119.159 27.8799 118.857 28.0683C118.558 28.2541 118.251 28.4643 117.885 28.4638L117.771 28.4115C117.706 28.1775 117.807 28.0295 117.789 27.8256C117.907 27.6553 118.144 27.6263 118.366 27.559Z" fill="black"/>
<path d="M118.366 27.559C118.631 27.4229 118.818 26.9933 119.054 26.9322C119.1 27.0885 119.061 27.1683 119.019 27.3266C118.825 27.5844 118.527 27.986 118.198 28.0621L118.119 28.0005C118.125 27.7454 118.149 27.8002 118.366 27.559Z" fill="white"/>
<path d="M117.29 27.4969C117.32 27.4798 117.351 27.4627 117.382 27.4457L117.429 27.4172C117.819 27.1869 118.107 26.8515 118.452 26.5508C118.865 26.191 119.224 25.9705 119.7 25.7154L119.763 25.7884C119.702 25.9804 119.696 25.9038 119.781 26.0756L119.747 26.1212C119.478 26.0839 119.409 26.0818 119.193 26.2557C118.442 26.8623 118.353 27.3716 117.353 27.6398L117.268 27.6056L117.29 27.4969Z" fill="white"/>
<path d="M121.178 25.307C121.471 25.1253 121.748 25.0172 122.04 25.2687L122.08 25.3945C121.896 25.5715 121.752 25.3893 121.707 25.5736C122.053 25.9623 123.033 25.6429 123.487 25.5208C123.312 25.6538 123.117 25.7692 123.038 25.9664C123.077 26.2811 123.473 26.2645 123.743 26.292C123.944 26.2599 124.156 26.2485 124.32 26.1393C124.37 26.0058 124.391 25.9286 124.47 25.8106L124.573 25.8096L124.641 25.8909C124.593 26.2889 124.195 26.4369 123.843 26.4462C123.76 26.9089 124.48 27.3758 123.011 27.1413C122.74 27.0979 122.426 26.8608 122.235 26.8784L122.197 26.9462C122.348 27.1978 122.378 27.1563 122.361 27.4006C122.233 27.4058 122.122 27.3877 122.04 27.2837C121.838 27.0285 121.077 26.262 121.069 25.9835L121.229 25.9053L121.25 25.7998C121.007 25.5591 121.041 25.5731 121.178 25.307Z" fill="black"/>
<path d="M123.743 26.292C123.944 26.2599 124.156 26.2485 124.32 26.1393C124.37 26.0058 124.391 25.9286 124.47 25.8106L124.573 25.8096L124.641 25.8908C124.593 26.2889 124.195 26.4369 123.843 26.4462C123.687 26.3344 123.699 26.3665 123.493 26.351L123.743 26.292Z" fill="black"/>
<path d="M122.33 26.4048C122.638 26.4053 122.978 26.7257 123.401 26.5704C123.47 26.5451 123.462 26.5601 123.539 26.5911L123.534 26.7914C123.336 26.9032 123.338 26.9322 123.083 26.8794C122.841 26.8292 122.466 26.6118 122.33 26.4048Z" fill="white"/>
<path d="M117.441 28.3116C117.519 28.3659 117.486 28.3297 117.513 28.4456C117.181 29.0766 117.429 29.1697 118.026 29.4006C117.741 29.4839 117.334 29.5574 117.114 29.7158C116.948 30.0848 117.262 30.1428 117.365 30.546L117.295 30.62C116.886 30.7437 116.602 30.1557 116.483 29.8493C115.655 30.2173 115.086 30.5206 114.26 29.986C114.152 29.8203 114.08 29.6247 114.162 29.4322C114.392 29.4197 114.858 29.8359 115.141 29.8742C115.451 29.9156 115.782 29.6288 116.013 29.4513L115.975 29.4259C115.745 29.2696 115.427 29.0776 115.367 28.7774C115.593 28.7412 115.943 29.0476 116.227 28.9912C116.252 28.7857 116.126 28.7386 116.069 28.4606C116.494 28.1144 116.528 29.3188 117.441 28.3116Z" fill="black"/>
<path d="M151.387 28.4643C151.67 28.295 152.382 28.3235 152.716 28.3654C152.801 28.4958 152.773 28.4684 152.779 28.6506L152.879 28.6387C152.929 28.883 153.273 28.9653 153.503 29.1584C153.818 29.4218 153.646 29.9854 153.699 30.5398C152.814 29.8374 152.609 30.2577 152.635 28.9565C151.948 29.781 151.266 29.781 150.312 29.5398C151.036 28.6361 151.299 28.649 152.333 28.6806C152.502 28.6858 152.627 28.691 152.671 28.5155C152.496 28.3737 151.648 28.4534 151.387 28.4643Z" fill="black"/>
<path d="M151.018 25.5933C151.458 26.0203 152.068 26.2159 152.182 26.8598C152.257 27.2795 152.355 27.3914 152.642 27.6921L152.755 27.6589C152.761 27.4033 152.59 27.1683 152.603 26.94C152.611 26.8008 152.94 26.3184 152.991 26.247C153.015 26.2113 152.78 26.0317 152.778 25.8521C153.04 25.7206 153.266 25.7703 153.423 26.0223C153.738 26.5259 152.89 27.7769 153.1 28.0332C153.316 28.103 153.573 28.0839 153.804 28.0813C153.038 28.4581 153.164 27.9674 152.852 27.9566C152.747 28.0885 152.733 28.1165 152.594 28.2055C152.122 28.1693 150.203 28.1506 149.965 28.0859C150.382 28.0834 152.437 28.1424 152.664 27.9395L152.589 27.8085C151.053 27.323 151.385 26.9913 151.018 25.5933Z" fill="black"/>
<path d="M114.237 26.4172C114.372 26.2433 114.482 26.0622 114.683 25.9819C114.958 26.043 114.926 26.4612 114.952 26.7143C115.143 26.6092 115.331 26.4938 115.537 26.425C115.561 26.6921 115.144 26.8949 115.095 27.2071L114.953 27.367C114.863 27.5652 114.714 27.854 114.527 27.9679C114.384 27.8613 114.506 27.7138 114.346 27.4985C114.139 27.4379 113.638 27.4658 113.4 27.4705C113.614 27.2588 113.79 27.1656 113.761 26.8582C113.662 26.6993 113.576 26.6641 113.417 26.5704L113.375 26.3593C113.698 26.1439 113.929 26.2387 114.237 26.4172Z" fill="black"/>
<path d="M111.096 27.3246C111.45 27.248 111.417 27.4974 111.588 27.3877C111.499 27.1486 111.4 27.117 111.397 26.8996L111.497 26.7935C111.822 26.7889 112.307 27.161 112.361 27.499L112.331 27.6103L112.251 27.6087L111.971 27.3111L111.919 27.3132C111.837 27.6253 112.123 27.5295 111.993 28.0533C111.824 28.1951 111.811 28.2179 111.726 28.4208C111.344 28.4208 110.889 28.0813 110.864 27.6843L110.946 27.6056C111.045 27.5285 111.056 27.4452 111.096 27.3246Z" fill="black"/>
<path d="M110.946 27.6056C111.045 27.5285 111.056 27.4451 111.096 27.3245C111.22 27.8965 111.373 28.0869 111.993 28.0533C111.824 28.1951 111.811 28.2179 111.726 28.4208C111.344 28.4208 110.889 28.0813 110.864 27.6843L110.946 27.6056Z" fill="white"/>
<path d="M110.946 27.6056C111.185 27.9669 111.318 28.1051 111.699 28.3214L111.726 28.4208C111.344 28.4208 110.889 28.0813 110.864 27.6843L110.946 27.6056Z" fill="black"/>
<path d="M147.686 26.4623C148.33 25.939 148.976 26.3049 149.479 26.8629C149.674 27.0787 149.786 27.4012 149.557 27.6398C149.526 27.5544 149.455 27.4809 149.397 27.4084L148.607 27.1419C148.37 26.8153 148.316 26.6879 147.932 26.5906L147.905 26.5347L147.686 26.4623Z" fill="black"/>
<path d="M122.361 27.5528L122.387 27.5445C122.634 27.4653 122.922 27.4912 123.185 27.4969L123.155 27.7138C123.216 28.3121 122.993 28.5869 122.357 28.6133C122.308 28.4964 122.324 28.5326 122.379 28.3747C122.324 28.2479 122.367 28.2919 122.252 28.2303L122.158 28.4322L122.056 28.4519C122.155 28.0176 122.243 27.9094 122.361 27.5528Z" fill="black"/>
<path d="M122.435 27.736C122.661 27.7386 122.788 27.7086 122.938 27.8773C122.939 28.0295 122.859 28.1004 122.764 28.2267C122.629 28.3033 122.602 28.3287 122.467 28.2733C122.379 28.0983 122.418 27.9379 122.435 27.736Z" fill="white"/>
<path d="M148.291 28.692C148.579 28.8312 148.799 28.9223 149.098 29.0362L149.216 29.1014C148.444 29.9047 147.595 29.4963 147.115 28.6335C147.445 28.7867 147.559 29.0636 147.881 29.073C148.069 29.0238 148.171 28.8488 148.291 28.692Z" fill="black"/>
<path d="M115.095 27.207C115.496 27.4689 115.847 27.6418 116.336 27.5626C116.411 27.5507 116.596 27.4255 116.69 27.3815C116.816 27.4731 116.775 27.4151 116.824 27.5569C116.476 28.0756 115.449 27.7086 115.034 27.4244C115.007 27.4058 114.98 27.3867 114.953 27.367L115.095 27.207Z" fill="black"/>
<path d="M129.521 28.4881C129.426 28.662 129.407 28.7122 129.244 28.8318C129.056 28.8732 129.128 28.8815 128.963 28.8152C128.872 28.6573 128.89 28.7303 128.915 28.5259C129.009 28.3597 129.12 28.3375 129.296 28.2681L129.521 28.4881Z" fill="black"/>
<path d="M113.417 26.5704C113.265 26.7278 113.035 27.0476 112.89 27.1144C112.83 26.8204 113.156 26.5083 113.375 26.3593L113.417 26.5704Z" fill="black"/>
<path d="M147.686 26.4623L147.905 26.5347L147.932 26.5906C147.684 26.7604 147.435 26.9291 147.185 27.0953C147.364 26.8324 147.472 26.6999 147.686 26.4623Z" fill="black"/>
<path d="M131.656 10.7555C134.902 10.4959 137.747 12.9079 138.014 16.1471C138.281 19.3866 135.87 22.2296 132.626 22.5035C129.372 22.7779 126.513 20.3635 126.244 17.1149C125.976 13.8656 128.401 11.0165 131.656 10.7555ZM131.833 11.2633C127.108 11.9599 128.177 21.8174 132.33 21.9459C135.384 21.5072 135.61 17.9464 135.291 15.5133C135.077 13.8744 133.773 11.1392 131.833 11.2633Z" fill="black"/>
<path d="M137.549 10.8975C138.395 11.0709 139.105 11.1588 139.979 11.1475C141.665 11.1225 143.375 10.6508 144.93 11.5635C146.488 12.4785 146.71 15.0699 145.306 16.2178C145.105 16.3827 144.644 16.4437 144.501 16.6777C144.454 17.1392 146.107 19.9963 146.417 20.5938C146.75 21.2322 147.296 21.2652 147.927 21.4443L147.963 21.5215C147.589 22.4328 146.067 22.42 145.279 22.1719C144.45 21.9112 144.09 21.1548 143.737 20.4316C143.317 19.5745 142.962 18.6666 142.541 17.8135C142.344 17.4133 141.908 16.8323 141.416 17.0703C141.287 17.1162 141.16 17.3207 141.15 17.4658C141.068 18.6806 140.913 20.2738 141.523 21.3701C141.73 21.7436 142.6 21.6886 142.506 22.1055C142.167 22.2954 140.043 22.1 139.493 22.1709C139.192 22.2089 138.111 22.309 137.854 22.2246C137.782 21.9212 138.615 21.2815 138.731 20.8848C138.826 20.552 138.914 20.1233 138.915 19.7764C138.925 17.5225 138.901 15.2572 138.952 13.0039C138.981 11.7273 137.719 11.9011 137.456 11.3359C137.432 11.1298 137.461 11.0889 137.549 10.8975ZM141.834 11.6582C141.539 11.7948 141.381 11.926 141.265 12.249C141.035 12.8879 141.063 15.5245 141.199 16.084C141.524 16.4708 142.73 16.3299 143.151 16.1475C144.824 14.8819 144.048 11.5828 141.834 11.6582Z" fill="black"/>
<path d="M169.925 10.9092C171.062 10.9075 172.237 10.9603 173.365 10.9245C174.668 11.9172 178.611 17.6042 179.4 17.9539L179.504 17.9114C179.577 17.7402 179.58 15.3071 179.558 14.9868C179.487 13.9353 179.866 12.3814 178.761 11.8395C178.481 11.7023 177.955 11.5107 177.779 11.335C177.7 11.1473 177.704 11.2278 177.764 11.0328C178.008 10.899 179.064 10.9036 179.364 10.9444C179.84 11.0096 181.144 10.8236 181.49 11.0107C181.699 11.3741 181.253 11.4999 181.035 11.6626C180.002 12.4359 180.231 14.7981 180.231 15.9296L180.24 20.4437C180.245 20.8768 180.39 22.1846 179.988 22.3825C179.636 22.3275 179.405 21.9545 179.178 21.6727C178.563 20.9862 177.9 20.1432 177.302 19.4233C176.282 18.1903 175.254 16.963 174.22 15.7414C173.779 15.2153 172.97 14.1076 172.483 13.7465L172.413 13.7794C172.201 14.2465 172.275 16.0843 172.268 16.675C172.248 17.7629 172.266 18.891 172.314 19.9652C172.391 21.6483 173.553 21.2697 174.111 21.9357C174.27 22.739 172.258 21.9584 171.784 22.1631C171.615 22.2362 170.426 22.2702 170.283 22.1733C170.263 22.1319 170.239 22.0837 170.212 22.0276C170.545 21.5015 171.307 21.0248 171.408 20.3541C171.665 18.6461 171.562 16.8837 171.552 15.1615C171.549 14.6411 171.531 14.1161 171.523 13.5951C171.515 13.064 171.428 12.7374 171.196 12.2715C170.91 11.6961 170.072 11.7188 169.795 11.314C169.789 11.1144 169.82 11.0906 169.925 10.9092Z" fill="black"/>
<path d="M157.37 10.7233C158.042 10.7947 158.716 10.8372 159.391 10.852C159.856 10.8594 161.86 10.6927 162.065 10.8299C162.163 10.9829 162.164 11.0045 162.145 11.1853C161.998 11.3695 161.518 11.6122 161.287 11.7505C160.973 12.3225 160.874 13.2613 160.867 13.9438C160.809 16.6989 160.103 21.6699 164.408 21.3757C168.135 21.1211 167.293 15.6263 167.324 13.0634C167.34 11.6456 166.407 11.7947 165.737 11.2482C165.653 11.0583 165.661 11.1422 165.712 10.9313C165.969 10.8089 167.042 10.9461 167.429 10.9631C167.891 10.9132 168.887 10.6008 169.178 10.9784C169.116 11.3673 168.218 11.7448 168.133 12.5175C167.85 15.1167 168.668 19.1149 166.743 21.2203C164.834 23.3082 159.425 23.0015 158.805 19.6631C158.42 17.5248 158.755 15.2607 158.736 13.0889C158.72 11.187 158.127 11.9466 157.409 11.2539C157.304 11.0731 157.346 10.9376 157.37 10.7233Z" fill="black"/>
<path d="M118.681 10.9019C121.296 11.0107 123.887 10.9246 126.504 10.9104C126.578 11.4308 126.898 13.5362 126.415 13.738C125.959 13.4977 125.978 12.352 125.391 12.017C124.744 11.6468 123.578 11.6451 122.835 11.7284C122.545 11.7607 122.367 12.0578 122.234 12.2783C122.209 12.8021 122.126 15.2782 122.333 15.6121C122.784 15.9999 123.342 15.7618 123.809 15.755C124.652 15.7425 124.957 14.2941 125.476 14.3259C125.566 14.4602 125.662 17.9795 125.571 18.1971C125.422 18.3207 125.494 18.2913 125.299 18.3077C124.849 16.9256 124.801 16.6694 123.272 16.6762C123.115 16.679 122.523 16.6603 122.442 16.7884C122.171 17.2402 122.166 17.9511 122.187 18.4931C122.228 19.5339 121.942 21.2277 123.154 21.6994C123.375 21.7855 123.593 21.734 123.774 21.908C123.82 22.1637 123.785 22.2209 123.602 22.3728C123.369 22.438 121.578 22.1529 121.012 22.2209C120.782 22.2481 119.2 22.3893 119.054 22.3524C118.732 21.9216 119.633 21.425 119.78 21.0577C119.855 20.849 119.919 20.5356 119.918 20.315C119.909 17.8287 119.944 15.3383 119.909 12.8525C119.889 11.4552 119.044 11.8401 118.631 11.3679C118.573 11.1842 118.624 11.0901 118.681 10.9019Z" fill="black"/>
<path d="M186.118 10.9319C186.313 10.9013 186.527 10.8786 186.691 10.9994C187.01 11.8367 185.39 11.3032 186.224 12.8616C186.479 13.3367 187.35 15.9721 187.904 15.9959C188.238 15.7573 189.391 13.3435 189.491 12.8163C189.765 11.3594 188.603 11.9739 188.173 11.2766C188.151 11.0935 188.131 11.1581 188.229 11.0306C188.603 10.8407 191.104 11.0073 191.707 10.9705C191.824 10.9637 191.93 11.017 192 11.1139C191.915 11.517 190.762 11.9574 190.324 13.0011C189.431 15.1269 188.082 16.4381 188.072 18.908C188.087 20.1376 187.922 21.332 189.393 21.692C189.665 21.7583 189.975 21.7538 189.949 22.082C189.918 22.1274 189.783 22.3082 189.738 22.3071C187.974 22.2629 186.288 22.1013 184.503 22.2663C184.419 22.2742 184.379 22.1234 184.356 22.0661C184.502 21.603 185.66 21.4528 185.84 20.8564C186.688 18.0112 184.672 15.5606 183.669 13.0668C183.185 11.8656 182.058 11.7437 181.934 11.3112C182.021 10.7959 182.319 10.9665 182.733 11.0226C183.869 11.1768 184.988 11.0595 186.118 10.9319Z" fill="black"/>
<path d="M146.93 10.9002C148.082 10.9461 149.205 10.9529 150.357 10.954C152.276 10.9563 154.195 11.0124 156.113 10.9041C156.449 10.8849 156.644 11.0498 156.694 11.382C156.731 11.9478 157.075 13.2312 156.764 13.6926L156.848 13.6031L156.745 13.6921C156.184 13.4217 156.221 11.8565 154.933 11.9466C154.479 11.979 153.408 11.7777 153.036 12.0889C152.751 12.8378 152.944 16.0571 152.885 17.0991C152.831 18.0418 152.817 19.8706 153.108 20.7634C153.216 21.0945 153.76 21.4227 154.088 21.5809C154.385 21.6534 155.003 21.7702 154.828 22.2107C154.581 22.349 154.354 22.2889 154.095 22.2317C152.656 21.9142 151.184 22.0962 149.746 22.3167C149.511 22.353 149.226 22.4505 148.992 22.4097C148.246 21.7192 150.208 21.7311 150.506 21.1291C150.82 20.4947 150.775 20.2351 150.777 19.5327C150.781 17.7606 150.78 15.9942 150.779 14.2227C150.776 13.5798 150.82 12.7363 150.689 12.1195C150.379 11.8197 148.554 11.9036 148.127 11.9926C147.617 12.0997 147.26 13.4426 146.864 13.7045L146.775 13.6586C146.632 13.2471 146.772 11.3293 146.93 10.9002Z" fill="black"/>
<path d="M95.6331 10.9749C96.6605 11.1472 97.3879 11.2372 98.4377 11.2122C99.9567 11.1668 101.139 10.8045 102.639 11.3821C104.46 12.0842 104.932 14.4741 103.768 15.9456C103.579 16.1848 102.748 16.5376 102.647 16.7796C102.766 17.3103 104.282 20.3076 104.769 20.8802C104.916 21.0525 105.099 21.183 105.292 21.306C105.528 21.3145 105.862 21.3079 106.073 21.389C106.185 21.6789 105.813 21.9179 105.586 22.0335C104.936 22.3588 104.182 22.4089 103.494 22.1732C102.654 21.8863 102.297 21.3168 101.925 20.5765C101.375 19.5028 101.025 18.1435 100.284 17.2659C99.5276 16.7574 99.3019 17.1549 99.3001 17.8714C99.2973 18.9347 99.1246 19.9195 99.3899 20.9642C99.5519 21.601 100.527 21.6188 100.648 22.0257L100.573 22.0901C100.116 22.2313 98.9007 22.1494 98.3567 22.1409C97.8059 22.1325 96.3707 22.3329 95.9329 22.1868C95.9734 21.8433 96.8361 21.3512 96.9885 20.3382C97.1174 19.4791 97.1747 12.8646 96.9368 12.3851C96.6508 11.81 95.9342 11.901 95.6008 11.4544C95.534 11.2634 95.5799 11.1671 95.6331 10.9749ZM100.118 11.6683C99.8297 11.7522 99.667 11.8097 99.5061 12.0999C99.1608 12.7227 99.2587 15.655 99.4387 16.2327C99.7241 16.4775 100.914 16.3203 101.259 16.1849C102.975 15.016 102.26 11.7223 100.118 11.6683Z" fill="black"/>
<path d="M80.6183 10.942C80.9865 11.0315 81.6998 13.0503 81.877 13.4762L83.6915 17.775C84.1294 18.8243 84.5305 19.8254 85.0313 20.8531C85.39 21.5887 86.2238 21.7403 86.3019 22.1646L86.1515 22.2984C85.8041 22.3273 81.607 22.2343 81.5294 22.1978C81.5805 21.7999 82.1614 21.5792 82.4747 20.9449C82.3099 20.3666 82.0465 19.2243 81.6407 18.8043C81.3256 18.4777 80.97 18.5317 80.544 18.5328C78.4469 18.6405 77.4654 17.9475 77.4542 20.7154C77.4525 21.1496 77.5992 21.3925 77.877 21.6969C77.9987 21.7342 78.1204 21.7734 78.2413 21.8131C78.4801 21.893 78.578 21.91 78.6847 22.1236L78.6349 22.232C78.4124 22.3488 77.5375 22.2287 77.2169 22.2174C76.562 22.1947 75.9146 22.3081 75.2755 22.2701C75.1258 22.1601 75.1662 22.221 75.1114 22.0504C75.1982 21.827 75.5417 21.6883 75.714 21.4644C76.4212 20.5472 76.7941 19.3261 77.252 18.2564C77.9547 16.617 78.6787 14.9861 79.4229 13.3648C79.7342 12.6867 80.236 11.5251 80.6183 10.942ZM79.8038 14.4078C79.3047 15.0796 78.5454 16.8335 78.3595 17.6617C78.9017 17.6832 79.4448 17.6908 79.9874 17.6851C80.1994 17.6868 81.3206 17.744 81.2677 17.5201C81.0322 16.523 80.3898 15.3867 79.9103 14.4683C79.8973 14.4436 79.8202 14.4138 79.8038 14.4078Z" fill="black"/>
<path d="M66.7941 10.9759C69.2121 11.1086 71.6719 11.0253 74.0902 11.0014C74.4971 11.002 74.4867 11.6568 74.4802 11.9385C74.47 12.3818 74.626 13.5309 74.2239 13.7843C74.0132 13.663 73.8596 12.4255 73.2952 12.1375C72.6326 11.7775 70.8782 11.5133 70.3821 12.239C70.1535 12.5734 70.235 13.0904 70.2407 13.468C70.2667 15.2168 69.6758 16.3268 72.1219 15.7548C72.5356 15.6578 72.8609 14.5445 73.272 14.4317C73.4148 14.5853 73.3973 15.1998 73.3661 15.4141C73.2731 16.0552 73.6702 17.5853 73.3414 18.0847L73.2527 18.0972C72.9966 17.8557 72.8349 17.1805 72.6152 16.9589C72.2791 16.6193 70.7787 16.553 70.3769 16.8336C70.1835 16.9685 70.2175 17.6607 70.2128 17.8988C70.2082 18.7179 70.1763 19.7564 70.2367 20.5626C70.3632 22.2473 73.115 21.1476 73.8642 20.6124C74.181 20.3863 74.7269 19.5081 75.0527 19.4356L75.1417 19.5342C75.2431 19.9424 75.1314 20.4112 75.0465 20.8165C74.8589 21.7122 74.1007 22.3908 73.1657 22.3749C72.0455 22.3562 70.9372 22.1855 69.8109 22.1753C68.9418 22.168 68.0644 22.2984 67.2058 22.2286C67.0963 22.219 67.0784 22.1175 67.034 22.0189C67.1162 21.6827 67.9078 21.3171 67.9537 20.8811C68.0374 20.0875 68.0242 19.2638 68.0257 18.4639V14.0144C68.0226 13.0524 68.1602 12.3705 67.4957 11.7112C67.2353 11.6358 66.9263 11.6267 66.7624 11.4612C66.6876 11.2832 66.7438 11.1692 66.7941 10.9759Z" fill="black"/>
<path d="M106.309 10.9878C108.031 11.0473 109.725 11.0689 111.448 11.0371C112.001 11.0269 112.553 11.0241 113.107 11.0014C113.379 10.9907 113.923 10.9181 113.925 11.3359C113.929 11.9544 114.3 13.3489 113.737 13.7491C113.501 13.5502 113.283 12.2888 112.758 12.0779C112.073 11.8036 110.28 11.4997 109.86 12.2786C109.795 12.4016 109.754 12.536 109.74 12.6743C109.653 13.5037 109.773 14.7877 109.784 15.6357C109.79 16.0138 111.427 15.8642 111.642 15.7621C112.058 15.5649 112.353 14.6221 112.761 14.4413L112.826 14.4827L112.835 14.5309C112.904 14.9095 113.004 17.8885 112.841 18.1176C112.558 18.0252 112.443 17.3494 112.078 16.9294C111.488 16.6777 110.122 16.3268 109.79 17.1091C109.696 17.3307 109.711 17.7445 109.709 17.9974C109.708 18.6827 109.476 20.8125 110.051 21.2354C110.755 21.7536 112.683 21.1215 113.339 20.6175C113.582 20.431 114.332 19.4758 114.535 19.4492C114.649 19.583 114.663 19.7281 114.656 19.901C114.523 23.3822 111.641 22.0739 109.352 22.1447C108.902 22.1583 106.734 22.2796 106.546 22.0948C106.501 21.6589 107.128 21.4832 107.321 21.1413C107.45 20.9112 107.466 20.5484 107.486 20.2882C107.569 19.236 107.693 12.6375 107.363 12.0938C107.086 11.6369 106.5 11.7633 106.202 11.417C106.184 11.2248 106.23 11.163 106.309 10.9878Z" fill="black"/>
<path d="M85.2229 10.9295C88.3119 11.0763 91.3786 11.0769 94.4653 10.9742C95.0796 10.9538 95.0468 12.019 95.0952 12.4476C95.1288 12.7458 95.2589 13.561 94.9775 13.7418C94.6914 13.663 94.3756 11.595 92.4862 11.9487C91.4026 12.1511 91.1748 11.4499 91.1746 13.2843C91.1744 15.5626 91.1754 17.7548 91.1539 20.0269C91.1487 20.8936 91.7385 21.3358 92.4844 21.6045C92.7912 21.6448 93.1623 21.736 93.0977 22.1215C92.8047 22.3732 91.9923 22.1034 91.5699 22.0671C90.4773 21.9735 89.457 22.0609 88.3767 22.2156C88.2012 22.2406 87.3022 22.4135 87.1986 22.3823C87.1639 22.3125 87.0703 21.9821 87.1202 21.9463C87.4865 21.6856 88.8523 21.3613 88.899 20.77C89.1054 18.1607 88.9764 15.4742 89.0067 12.8529C89.0087 12.676 89.0149 12.2231 88.8532 12.1126C88.3025 11.8115 87.3139 12.0003 86.7632 11.9538C85.6607 11.8597 85.5148 13.7469 85.0269 13.786C84.7731 13.4277 84.9966 11.8603 85.0033 11.3864C85.0061 11.1919 85.0729 11.0559 85.2229 10.9295Z" fill="black"/>
<path d="M65.0696 10.9578C66.3718 10.8189 65.9979 11.5117 66.1381 12.4669C66.1841 12.7798 66.2382 13.3104 66.1394 13.5989L66.0653 13.629C65.4047 13.1834 65.4615 11.7464 63.9506 11.9261C63.5484 11.9737 62.6947 11.7821 62.3425 12.1029C62.1775 12.6823 62.2155 15.2474 62.2191 16.015C62.2563 17.4906 62.1435 18.9849 62.2804 20.4532C62.3766 21.4849 64.2052 21.5325 64.1991 22.1725L64.0978 22.2644C63.7404 22.3239 62.8466 22.0728 62.3767 22.0495C61.1568 21.9877 60.0016 22.0869 58.8047 22.3375C58.4411 22.414 58.1846 22.3806 58.1008 21.9877C58.1981 21.8052 58.1407 21.8658 58.3204 21.7587C60.2511 21.3709 60.1162 20.7224 60.0955 18.9339C60.0883 18.3098 60.0935 17.6357 60.0927 17.0088L60.0849 14.1505C60.0878 13.6488 60.1663 12.248 59.9805 12.1432C59.1485 11.6727 56.9548 11.7469 56.6188 12.9708C56.5142 13.3518 56.3719 13.6726 56.2064 13.8041L56.1141 13.7911C55.891 13.5094 56.0278 11.3008 56.2439 11.0111C56.766 10.9578 57.7419 11.0026 58.3114 11.0054L62.5881 11.0043C63.2799 11.002 64.3582 11.0281 65.0101 10.964L65.0696 10.9578Z" fill="black"/>
<path d="M124.62 1.41978C125.899 1.32524 126.828 1.93696 127.193 3.18149C127.412 3.92879 127.319 4.73302 126.934 5.41001C126.569 6.05011 126.081 6.36619 125.388 6.56138C124.875 6.66511 124.341 6.57733 123.888 6.31528C122.012 5.23596 122.299 1.96419 124.62 1.41978ZM125.011 1.91294C123.54 2.1268 123.297 5.62244 124.995 6.11802C126.644 5.44469 126.333 2.08844 125.011 1.91294Z" fill="black"/>
<path d="M105.77 1.42588C109.187 1.08776 109.521 5.72783 106.73 6.53233C105.494 6.72994 104.54 6.12309 104.125 4.95127C103.86 4.21085 103.906 3.39458 104.253 2.68858C104.59 2.00233 105.069 1.66825 105.77 1.42588ZM106.096 1.9083C104.637 2.71454 104.854 6.0789 106.438 6.04697C107.98 5.09518 107.61 1.88494 106.096 1.9083Z" fill="black"/>
<path d="M129.406 1.55987C130.338 1.55152 131.377 1.49471 132.282 1.60773C133.004 1.69817 133.306 2.4443 133.113 3.07648C132.978 3.51838 132.766 3.65565 132.387 3.87042C132.739 4.55676 133.2 5.57501 133.49 6.28937C133.298 6.45653 132.117 6.54314 131.867 6.27765C131.839 6.08004 131.853 6.12856 131.944 5.92315L132.006 5.86163C131.997 5.51898 131.433 4.46969 131.215 4.17413L130.756 4.35187C130.738 4.85083 130.743 5.32653 130.749 5.82648C130.942 5.97368 131.111 6.03562 131.032 6.28937C130.799 6.46488 129.72 6.49066 129.521 6.33038C129.474 6.12223 129.523 6.03115 129.547 5.82452C129.68 4.63081 129.574 3.3728 129.58 2.16827C129.581 1.98637 129.366 1.85731 129.406 1.55987ZM130.993 2.05011C130.594 2.37066 130.732 3.28352 130.751 3.78155C131.079 3.69259 131.22 3.64137 131.531 3.50226C132.361 2.90738 132.038 2.07762 131.141 2.05206C131.092 2.05059 131.042 2.04963 130.993 2.05011Z" fill="black"/>
<path d="M113.924 2.33333C113.774 2.13372 113.637 2.04277 113.549 1.80236C113.555 1.72025 113.539 1.68141 113.593 1.63716C113.761 1.50196 114.488 1.55358 114.687 1.58013C114.938 1.76597 114.503 2.26893 114.473 2.66667C114.431 3.23403 114.615 6.10572 114.396 6.37318C114.226 6.45381 114.046 6.42431 113.851 6.41694C113.591 6.15096 113.381 5.75862 113.171 5.46068C112.642 4.71093 112.004 3.48525 111.433 2.81809C111.413 3.76156 111.407 4.70552 111.416 5.64899C111.618 5.825 111.802 5.92529 111.783 6.21241C111.584 6.61753 110.837 6.59786 110.656 6.11457C110.662 5.92824 110.766 5.81024 110.871 5.65734L110.867 2.16027C110.842 2.12586 110.818 2.09144 110.794 2.05703C110.655 1.8525 110.626 1.8058 110.672 1.56047L111.845 1.56194C112.575 2.45968 113.165 3.48083 113.947 4.36677C113.968 3.71338 113.94 2.99066 113.924 2.33333Z" fill="black"/>
<path d="M118.174 1.46706C118.631 1.42674 119.639 1.47296 119.913 1.91396C119.964 2.11603 119.953 2.39774 119.847 2.58211C119.487 2.72124 119.079 1.81563 118.509 1.90167C118.23 1.84857 117.695 2.29794 117.789 2.6121C118.169 3.89332 120.326 2.94986 120.321 4.75174C120.317 6.09393 119.545 6.54083 118.299 6.53542C117.767 6.43709 117.297 6.29845 116.914 5.89186C116.68 5.64407 116.643 5.26305 116.921 5.04377C117.289 5.05852 117.498 5.61113 117.869 5.90808C118.401 6.43758 119.544 5.78271 119.253 5.10424C118.909 4.29991 117.012 4.68979 116.814 3.52459C116.603 2.28564 117.064 1.74483 118.174 1.46706Z" fill="black"/>
<path d="M137.466 1.4233C137.581 1.41544 137.696 1.41249 137.811 1.41445C138.515 1.43215 139.672 1.66716 139.562 2.66618C139.542 2.84465 139.473 2.88693 139.34 2.98329C138.987 2.94298 138.939 2.3825 138.658 2.21731C136.919 1.19784 136.243 3.42086 136.617 4.74634C136.785 5.34123 136.987 5.59147 137.478 5.87859C138.055 5.91841 138.29 5.943 138.782 5.65883C138.981 5.47397 139.162 5.23552 139.45 5.27338L139.511 5.35548C139.441 6.43267 137.304 6.89679 136.403 6.21783C134.58 4.84564 135.082 1.94494 137.466 1.4233Z" fill="black"/>
<path d="M99.2391 1.46753C99.2859 1.46163 99.3328 1.45721 99.3798 1.45377C99.9067 1.41296 100.793 1.50588 101.211 1.84462C101.472 2.05603 101.605 2.69222 101.322 2.96557C100.898 3.01031 100.952 2.44591 100.639 2.26301C98.4348 0.969054 97.6461 4.74926 99.3921 5.87955C99.9343 5.9179 100.192 5.93953 100.661 5.69322C100.89 5.51967 101.156 5.15438 101.47 5.29253C101.554 5.7473 100.589 6.39283 100.193 6.47543C96.8855 7.16225 96.061 2.38396 99.2391 1.46753Z" fill="black"/>
<path d="M141.926 1.56734C142.293 1.55604 143.526 1.39084 143.618 1.81317C143.576 1.98475 143.441 2.07128 143.304 2.18387C143.246 3.25959 143.268 4.71289 143.289 5.79942C143.58 6.05262 143.653 5.98576 143.606 6.39776C143.222 6.41791 141.99 6.6013 141.93 6.15243C141.984 5.97347 142.109 5.88595 142.247 5.76156L142.236 2.23107C141.958 1.97099 141.884 1.94984 141.926 1.56734Z" fill="black"/>
<path d="M145.153 3.52751C145.948 3.44147 146.327 3.91837 145.648 4.48228C145.033 4.61994 144.591 4.10028 145.153 3.52751Z" fill="black"/>
<path d="M95.2233 3.52901C95.9994 3.43756 96.398 3.9002 95.7432 4.46854C95.1824 4.65094 94.7027 4.09883 95.2233 3.52901Z" fill="black"/>
</svg>
