<svg width="143" height="40" viewBox="0 0 143 40" fill="none" xmlns="http://www.w3.org/2000/svg">
<path d="M108.543 8.70335C113.139 8.44177 117.837 9.31512 121.524 12.2912C127.672 17.256 127.822 27.5662 122.885 33.4143C119.937 36.9062 116.212 38.2815 111.728 38.6623C108.631 38.769 105.571 38.2984 102.46 38.3117C101.681 38.3147 97.5867 38.5168 97.213 38.343L97.1281 38.0901C97.3933 36.9937 100.285 38.1385 100.475 35.7571C100.555 34.7421 100.551 33.4641 100.55 32.4143L100.543 26.0862L100.539 16.5959C100.539 15.1086 100.569 13.3545 100.526 11.8772C100.444 9.06027 97.6447 10.0285 97.13 9.28929C97.1463 9.02942 97.1477 9.10301 97.3322 8.85569C98.436 8.71466 101.02 8.88651 102.255 8.89476C104.435 8.9092 106.375 8.80957 108.543 8.70335ZM111.336 10.1282C110.678 10.0263 109.689 10.0226 109.008 10.1008C107.213 10.3139 106.06 10.5383 106.006 12.6565C105.969 14.1029 105.979 15.5473 105.98 16.9944L105.984 25.0071L105.995 31.0012C105.999 32.2418 105.969 33.5702 106.117 34.7971C106.451 37.5618 110.127 37.4818 112.162 37.1203C113.462 36.8878 114.693 36.3697 115.769 35.6047C118.6 33.4275 119.729 30.4956 120.214 26.9885C121.13 20.3619 119.183 11.3435 111.336 10.1282Z" fill="white"/>
<path d="M16.7919 8.2531C19.6121 7.8921 24.4052 8.62277 27.0507 9.81437C27.6139 10.104 27.6076 11.5994 27.6169 12.158C27.633 13.1241 28.2292 17.1946 27.8082 17.8117C27.6435 17.8589 27.3417 17.94 27.2425 17.7863C26.9915 17.3972 26.7336 16.6799 26.523 16.2469C25.4784 14.1355 23.7131 11.9176 21.5858 10.8466C16.391 8.2314 9.96288 10.1466 7.33865 15.4349C5.41594 19.3095 5.19959 23.754 6.49563 27.7926C6.47992 24.7167 6.55638 21.3897 8.82963 18.9156C9.39718 18.2979 11.0393 17.307 11.8703 17.3043C12.0212 17.399 12.065 17.4041 12.1337 17.5839C12.3289 18.0953 12.2914 18.8416 12.2875 19.3426C12.2577 23.1727 9.51447 21.7643 8.49925 24.7108C7.67237 27.3789 8.36706 29.7301 9.42318 32.2077C11.3539 36.737 16.8789 38.9009 21.4192 37.2171C22.2381 36.9133 22.6702 36.1036 22.9406 35.2895C23.2243 34.1016 23.4253 31.6637 23.1572 30.4475C22.541 27.6526 18.6778 28.6512 17.0126 26.4424C15.6794 24.674 15.6645 23.7284 15.7699 21.5975C16.3881 22.2174 17.2165 23.0872 17.9869 23.4593C20.6053 24.7244 24.2646 24.0884 26.6665 25.9822C29.0268 27.8888 28.5071 31.2648 28.4765 33.9405C28.4704 34.482 29.0275 36.8852 28.5591 37.143C26.3145 38.3764 22.7718 38.7691 20.2825 38.9854C14.8192 39.4602 9.15815 38.5987 4.89929 34.9084C2.03233 32.3798 0.287093 28.8164 0.0472915 25.0016C-0.271804 20.9855 1.03355 17.0093 3.67099 13.9635C6.99731 10.1567 11.8802 8.57462 16.7919 8.2531Z" fill="white"/>
<path d="M48.031 8.28953C48.3168 8.26804 48.9837 8.29115 49.1121 8.52C49.8517 9.83812 50.6824 11.6331 51.3201 12.9585L57.3074 25.4819L59.7117 30.5337C60.6003 32.396 61.5349 34.5774 62.8611 36.1684C63.8769 37.3871 64.407 37.1967 65.6179 37.7368C65.6392 38.035 65.6543 38.0843 65.5847 38.3686C65.3126 38.5086 59.5262 38.2532 58.6375 38.311C57.915 38.3577 54.2101 38.4985 53.6179 38.3667C53.4923 38.1167 53.4961 38.2059 53.5134 37.9536C53.7983 37.5033 54.7064 37.5429 55.2146 37.3364C55.8193 37.0905 56.3141 36.6042 56.0945 35.9204C55.6561 34.5562 54.9933 33.2582 54.3806 31.9702C53.4493 30.0261 52.5297 28.0764 51.6209 26.1216C50.3209 26.0978 48.9595 26.1162 47.6551 26.1157L41.8259 26.1206C40.8761 28.3733 39.6847 30.7516 38.9441 33.0571C38.2678 35.1633 39.451 37.3835 41.7664 37.4829C41.9724 37.4918 42.7318 37.5947 42.8943 37.7222C42.9514 38.02 42.9502 38.0574 42.8845 38.353C42.6729 38.535 37.8172 38.3382 37.2693 38.3071C36.4443 38.2605 32.0553 38.5644 31.6492 38.3218C31.4171 37.7595 32.0075 37.5256 32.4353 37.4448C34.4578 37.0609 35.5853 35.3883 36.4812 33.6089C37.6291 31.3292 38.681 28.8621 39.742 26.4917L44.9773 14.8218C45.6138 13.3947 46.2606 11.9717 46.9158 10.5532C47.1637 10.0127 47.7155 8.72931 48.031 8.28953ZM46.5847 15.228C45.3469 18.3052 43.8511 21.5529 42.5066 24.605L46.9148 24.5845L50.9148 24.5923L47.8562 18.0307C47.6148 17.5067 46.8112 15.5913 46.5847 15.228Z" fill="white"/>
<path d="M64.6394 8.79184C66.7142 8.80517 68.9731 8.88763 71.0496 8.89103C72.0417 8.89266 76.3295 8.73442 76.8252 8.85969L76.897 8.98771C76.8978 9.07342 76.9252 9.26885 76.9 9.34196C76.7689 9.71971 74.7424 9.57918 73.9659 10.4755C73.6221 10.8722 73.5473 11.3362 73.4917 11.8381C73.2443 14.0714 73.4184 17.0098 73.4199 19.3061C73.4213 22.1686 73.2732 25.4634 73.4643 28.2738C73.6333 30.7519 74.349 33.2075 76.2991 34.8817C78.0025 36.3444 80.3824 36.8815 82.5844 36.6896C84.536 36.52 86.2165 35.6891 87.479 34.1802C88.4059 33.0726 88.9742 31.7087 89.2602 30.3012C89.5906 28.676 89.5529 27.0058 89.5529 25.356L89.5506 20.6703C89.5521 19.9119 89.5914 19.0488 89.5558 18.2973C89.4232 15.5302 90.3019 10.6375 86.6573 9.83468C86.2387 9.74245 85.5881 9.61644 85.2762 9.35864C85.1784 9.09861 85.2081 9.18084 85.2518 8.87503C85.8186 8.74376 89.2676 8.85577 90.0834 8.87133C90.8725 8.88214 95.1091 8.7525 95.5062 8.85414C95.6018 9.0912 95.61 9.10016 95.5596 9.34219C95.2447 9.78556 94.2792 9.71378 93.7198 9.9721C91.1007 11.1821 91.4207 14.9571 91.4215 17.3699L91.4259 23.9212C91.4244 26.8876 91.6171 30.07 90.5183 32.8656C89.578 35.2692 87.7116 37.1948 85.3384 38.2098C81.3463 39.9218 75.207 39.2291 71.8061 36.4511C67.663 33.0667 68.0047 28.4941 68.008 23.7566L68.0124 15.0071C68.0117 13.9131 68.1261 11.6642 67.7292 10.7059C67.1968 9.42034 65.5762 9.88691 64.7168 9.55814C64.5881 9.33523 64.632 9.06335 64.6394 8.79184Z" fill="white"/>
<path d="M129.746 8.80885C131.299 8.66499 134.043 8.93412 135.75 8.88975C137.641 8.90516 139.533 8.77737 141.425 8.80278C141.819 8.80804 142.131 8.90227 141.985 9.37706C141.363 9.99712 139.243 9.3309 138.809 10.9491C138.296 12.8558 138.459 15.1948 138.459 17.1857L138.461 23.9743L138.459 30.8162C138.457 32.1474 138.436 33.4877 138.484 34.8166C138.516 35.71 138.685 36.9229 139.632 37.3052C140.427 37.626 141.152 37.3622 141.96 37.6963C142.085 37.8845 142.037 38.2016 142.029 38.4446C139.895 38.4712 137.621 38.2897 135.425 38.3053C134.159 38.3253 132.893 38.3549 131.628 38.3942C131.216 38.4053 130.174 38.4579 129.819 38.4023C129.652 38.2246 129.642 38.2357 129.602 38.0053C129.944 37.1659 131.872 37.8756 132.545 36.7748C132.858 36.2629 133.025 35.8814 133.048 35.2226C133.101 33.7303 133.071 32.181 133.065 30.6896V22.787V15.6464C133.065 14.2538 133.118 12.6303 132.938 11.2594C132.685 9.32187 130.445 9.93171 129.802 9.46381C129.665 9.25386 129.721 9.07169 129.746 8.80885Z" fill="white"/>
<path d="M137.964 0C138.648 0.0779336 141.556 1.38732 141.962 1.80811C142.061 2.08021 142.044 1.96864 141.977 2.27163C141.551 2.61033 135.706 4.49414 134.66 4.85603C133.999 5.09324 131.996 6.00889 131.464 5.65737C131.38 5.41431 131.383 5.53262 131.446 5.29015C131.889 4.83581 133.233 3.93594 133.84 3.46857C135.052 2.53588 136.697 0.619172 137.964 0Z" fill="white"/>
</svg>
