<svg width="154" height="40" viewBox="0 0 154 40" fill="none" xmlns="http://www.w3.org/2000/svg">
<path d="M46.9467 9.71566H52.5534V17.0365H50.6845L50.4065 15.3314C49.696 16.1605 48.6766 17.3962 46.2207 17.3962C42.9926 17.3962 40.058 15.0498 40.058 10.2944C40.058 6.58711 42.0968 3.08313 46.6069 3.11442C50.7154 3.11442 52.3372 5.82061 52.4916 7.69774H49.696C49.696 7.16589 48.7384 5.46083 46.7613 5.46083C44.7843 5.46083 42.9154 6.85304 42.9154 10.3414C42.9154 14.0487 44.9079 15.0185 46.8231 15.0185C47.4409 15.0185 49.4952 14.7683 50.0667 12.0308H46.9467V9.74694V9.71566Z" fill="black"/>
<path d="M56.8782 11.014C57.0327 9.68437 57.6814 8.90223 58.917 8.90223C59.7511 8.90223 60.7859 9.38716 60.9404 11.014H56.8937H56.8782ZM60.8168 14.0956C60.616 14.8152 59.8592 15.1906 59.1333 15.1906C57.0172 15.1906 56.8782 13.4856 56.801 12.7347H63.6125V12.2654C63.6125 7.66645 60.9095 6.72789 58.9479 6.72789C54.5923 6.72789 54.1907 10.6073 54.1907 11.8118C54.1907 15.9571 56.3376 17.318 59.1333 17.318C60.8323 17.318 62.8093 16.5202 63.5044 14.1113H60.8168V14.0956Z" fill="black"/>
<path d="M74.3471 17.0365H71.7368V10.9358C71.7368 10.2006 71.7059 8.94916 70.0378 8.94916C68.8794 8.94916 67.9836 9.74694 67.9836 11.2799V17.0521H65.3733V6.99382H67.8754V8.46424H67.9063C68.2616 7.85417 69.003 6.72789 70.8873 6.72789C72.7717 6.72789 74.3471 7.88545 74.3471 10.0911V17.0521V17.0365Z" fill="black"/>
<path d="M78.6719 11.014C78.8264 9.68437 79.4751 8.90223 80.7107 8.90223C81.5448 8.90223 82.5797 9.38716 82.7341 11.014H78.6874H78.6719ZM82.6105 14.0956C82.4097 14.8152 81.6529 15.1906 80.927 15.1906C78.8109 15.1906 78.6719 13.4856 78.5947 12.7347H85.4062V12.2654C85.4062 7.66645 82.7032 6.72789 80.7416 6.72789C76.386 6.72789 75.9844 10.6073 75.9844 11.8118C75.9844 15.9571 78.1313 17.318 80.927 17.318C82.626 17.318 84.603 16.5202 85.2981 14.1113H82.6105V14.0956Z" fill="black"/>
<path d="M87.1361 6.97818H89.6383V8.71452H89.6692C90.2098 7.69774 90.8122 6.71225 92.3876 6.71225C92.5575 6.71225 92.7274 6.72789 92.8973 6.74354V9.43409C92.6811 9.4028 92.3876 9.4028 92.1559 9.4028C90.1171 9.4028 89.7464 10.6855 89.7464 11.8118V17.0521H87.1361V6.99382V6.97818Z" fill="black"/>
<path d="M99.8941 13.423C99.8941 14.6588 98.7203 15.4096 97.5618 15.4096C97.0521 15.4096 96.3417 15.128 96.3417 14.2051C96.3417 13.1101 97.1448 12.8598 98.1179 12.6878C99.1991 12.5157 99.6316 12.3436 99.8941 12.1403V13.423ZM102.458 9.6218C102.458 7.15025 99.8941 6.71225 98.504 6.71225C96.4652 6.71225 94.3646 7.15025 94.0557 10.2319H96.5733C96.6506 9.63744 96.8668 8.83966 98.1797 8.83966C98.8593 8.83966 99.8941 8.90223 99.8941 10.0129C99.8941 10.576 99.3844 10.7481 98.9829 10.8106L96.6351 11.1704C94.967 11.4207 93.7468 12.4219 93.7468 14.3772C93.7468 16.4577 95.2759 17.3024 96.7741 17.3024C98.5504 17.3024 99.3844 16.4733 99.9868 15.8476C100.049 16.4107 100.079 16.5672 100.234 17.0365H103.061V16.6454C102.736 16.5359 102.489 16.27 102.489 15.0811V9.63744L102.458 9.6218Z" fill="black"/>
<path d="M107.478 17.0365H104.868V3.45856H107.478V17.0365Z" fill="black"/>
<path d="M112.668 6.97818V17.0365H110.057V6.97818H112.668ZM112.668 5.78933H110.057V3.33342H112.668V5.78933Z" fill="black"/>
<path d="M118.104 6.97817H119.726V8.87094H118.104V14.3303C118.104 14.909 118.12 15.1437 119.186 15.1437C119.356 15.1437 119.541 15.128 119.726 15.1124V17.1147C119.309 17.1303 118.908 17.146 118.491 17.146H118.151C115.896 17.146 115.479 16.27 115.479 14.9716V8.87094H114.135V6.97817H115.479V4.25633H118.089V6.97817H118.104Z" fill="black"/>
<path d="M126.878 13.423C126.878 14.6588 125.704 15.4096 124.545 15.4096C124.036 15.4096 123.325 15.128 123.325 14.2051C123.325 13.1101 124.128 12.8598 125.101 12.6878C126.183 12.5157 126.615 12.3436 126.878 12.1403V13.423ZM129.442 9.6218C129.442 7.15025 126.878 6.71225 125.487 6.71225C123.449 6.71225 121.348 7.15025 121.039 10.2319H123.557C123.634 9.63744 123.85 8.83966 125.163 8.83966C125.843 8.83966 126.878 8.90223 126.878 10.0129C126.878 10.576 126.368 10.7481 125.966 10.8106L123.619 11.1704C121.95 11.4207 120.73 12.4219 120.73 14.3772C120.73 16.4577 122.259 17.3024 123.758 17.3024C125.534 17.3024 126.368 16.4733 126.97 15.8476C127.032 16.4107 127.063 16.5672 127.217 17.0365H130.044V16.6454C129.72 16.5359 129.472 16.27 129.472 15.0811V9.63744L129.442 9.6218Z" fill="black"/>
<path d="M134.693 6.97817H136.315V8.87094H134.693V14.3303C134.693 14.909 134.708 15.1437 135.774 15.1437C135.944 15.1437 136.129 15.128 136.315 15.1124V17.1147C135.898 17.1303 135.496 17.146 135.079 17.146H134.739C132.484 17.146 132.067 16.27 132.067 14.9716V8.87094H130.723V6.97817H132.067V4.25633H134.678V6.97817H134.693Z" fill="black"/>
<path d="M42.5601 30.9898C42.5601 29.3942 43.1162 27.9082 44.7843 27.9082C46.576 27.9082 47.0239 29.535 47.0239 31.1462C47.0239 32.6323 46.3752 34.0401 44.7071 34.0401C43.039 34.0401 42.5601 32.1943 42.5601 30.9898ZM49.5261 22.3706H46.9158V27.1886H46.8849C46.4679 26.5472 45.6956 25.6243 44.012 25.6243C41.8342 25.6243 39.8881 27.3294 39.8881 30.8021C39.8881 33.5708 41.1237 36.2145 44.0738 36.2145C45.155 36.2145 46.3134 35.8234 46.9467 34.6815H46.9776V35.9485H49.5415V22.3706H49.5261Z" fill="black"/>
<path d="M53.7736 29.9104C53.9281 28.5808 54.5768 27.7987 55.8125 27.7987C56.6465 27.7987 57.6814 28.2836 57.8358 29.9104H53.7891H53.7736ZM57.7123 32.992C57.5115 33.7116 56.7546 34.087 56.0287 34.087C53.9127 34.087 53.7737 32.382 53.6964 31.6311H60.5079V31.1618C60.5079 26.5629 57.805 25.6243 55.8434 25.6243C51.4877 25.6243 51.0861 29.5037 51.0861 30.7082C51.0861 34.8535 53.2331 36.2144 56.0287 36.2144C57.7277 36.2144 59.7048 35.4167 60.3998 33.0077H57.7123V32.992Z" fill="black"/>
<path d="M76.1852 26.8132C75.9689 25.9998 75.5365 24.4668 73.2196 24.4668C71.8759 24.4668 69.8988 25.374 69.8988 29.2065C69.8988 31.6468 70.8565 33.8368 73.2196 33.8368C74.7642 33.8368 75.8454 32.9451 76.1852 31.287H78.9808C78.4248 34.2435 76.5095 36.2927 73.1578 36.2927C69.5899 36.2927 67.0414 33.8524 67.0414 29.1596C67.0414 24.4668 69.7444 21.9952 73.2042 21.9952C77.22 21.9952 78.8418 24.7953 78.9963 26.7975H76.2006L76.1852 26.8132Z" fill="black"/>
<path d="M86.3947 32.3351C86.3947 33.5708 85.2208 34.3217 84.0624 34.3217C83.5527 34.3217 82.8422 34.0401 82.8422 33.1172C82.8422 32.0222 83.6454 31.7719 84.6185 31.5998C85.6997 31.4278 86.1321 31.2557 86.3947 31.0523V32.3351ZM88.9587 28.5339C88.9587 26.0623 86.3947 25.6243 85.0046 25.6243C82.9658 25.6243 80.8652 26.0623 80.5563 29.1439H83.0739C83.1511 28.5495 83.3673 27.7517 84.6802 27.7517C85.3598 27.7517 86.3947 27.8143 86.3947 28.9249C86.3947 29.4881 85.885 29.6601 85.4834 29.7227L83.1357 30.0825C81.4675 30.3328 80.2473 31.3339 80.2473 33.2893C80.2473 35.3697 81.7764 36.2144 83.2747 36.2144C85.0509 36.2144 85.885 35.3854 86.4874 34.7597C86.5492 35.3228 86.5801 35.4792 86.7345 35.9485H89.561V35.5575C89.2367 35.448 88.9895 35.182 88.9895 33.9932V28.5495L88.9587 28.5339Z" fill="black"/>
<path d="M94.2256 25.8902H95.8474V27.783H94.2256V33.2423C94.2256 33.8211 94.241 34.0558 95.3068 34.0558C95.4767 34.0558 95.662 34.0401 95.8474 34.0245V36.0267C95.4304 36.0424 95.0288 36.058 94.6118 36.058H94.272C92.0169 36.058 91.5999 35.182 91.5999 33.8837V27.783H90.2561V25.8902H91.5999V23.1684H94.2102V25.8902H94.2256Z" fill="black"/>
<path d="M102.999 32.3351C102.999 33.5708 101.825 34.3217 100.666 34.3217C100.157 34.3217 99.4462 34.0401 99.4462 33.1172C99.4462 32.0222 100.249 31.7719 101.222 31.5998C102.304 31.4278 102.736 31.2557 102.999 31.0523V32.3351ZM105.563 28.5339C105.563 26.0623 102.999 25.6243 101.609 25.6243C99.5698 25.6243 97.4692 26.0623 97.1603 29.1439H99.6779C99.7551 28.5495 99.9713 27.7517 101.284 27.7517C101.964 27.7517 102.999 27.8143 102.999 28.9249C102.999 29.4881 102.489 29.6601 102.087 29.7227L99.7397 30.0825C98.0715 30.3328 96.8513 31.3339 96.8513 33.2893C96.8513 35.3697 98.3804 36.2144 99.8787 36.2144C101.655 36.2144 102.489 35.3854 103.091 34.7597C103.153 35.3228 103.184 35.4792 103.339 35.9485H106.165V35.5575C105.841 35.448 105.594 35.182 105.594 33.9932V28.5495L105.563 28.5339Z" fill="black"/>
<path d="M110.582 35.9485H107.957V22.3706H110.582V35.9485Z" fill="black"/>
<path d="M122.043 35.9485H119.541V34.525H119.51C118.908 35.6044 117.873 36.2145 116.483 36.2145C114.521 36.2145 113.1 35.0725 113.1 32.5071V25.8902H115.71V32.1317C115.71 33.6803 116.606 33.9775 117.409 33.9775C118.274 33.9775 119.433 33.4926 119.433 31.6937V25.8902H122.043V35.9485Z" fill="black"/>
<path d="M133.473 35.9485H130.863V29.8479C130.863 29.1127 130.832 27.8612 129.164 27.8612C128.005 27.8612 127.109 28.659 127.109 30.192V35.9642H124.499V25.9059H127.001V27.3763H127.032C127.387 26.7662 128.129 25.64 130.013 25.64C131.897 25.64 133.473 26.7975 133.473 29.0032V35.9642V35.9485Z" fill="black"/>
<path d="M140.964 35.7765C139.728 39.4994 139.388 40 137.118 40C136.763 40 136.315 39.9844 135.944 39.9687V37.8569C136.052 37.8726 136.222 37.8882 136.454 37.8882C137.411 37.8882 137.921 37.7631 138.168 36.3709L134.508 25.8902H137.427L139.558 33.3049H139.589L141.628 25.8902H144.393L140.979 35.7765H140.964Z" fill="black"/>
<path d="M150.834 32.3351C150.834 33.5708 149.66 34.3217 148.501 34.3217C147.992 34.3217 147.281 34.0401 147.281 33.1172C147.281 32.0222 148.084 31.7719 149.057 31.5998C150.139 31.4278 150.571 31.2557 150.834 31.0523V32.3351ZM153.398 28.5339C153.398 26.0623 150.834 25.6243 149.444 25.6243C147.405 25.6243 145.304 26.0623 144.995 29.1439H147.513C147.59 28.5495 147.806 27.7517 149.119 27.7517C149.783 27.7517 150.834 27.8143 150.834 28.9249C150.834 29.4881 150.324 29.6601 149.922 29.7227L147.575 30.0825C145.907 30.3328 144.686 31.3339 144.686 33.2893C144.686 35.3697 146.215 36.2144 147.714 36.2144C149.49 36.2144 150.324 35.3854 150.926 34.7597C150.988 35.3228 151.019 35.4792 151.173 35.9485H154V35.5575C153.676 35.448 153.429 35.182 153.429 33.9932V28.5495L153.398 28.5339Z" fill="black"/>
<path d="M30.1882 34.0401C30.7134 34.4938 30.8833 35.3385 30.7597 36.0267C29.9257 36.105 29.2769 35.9172 28.7827 35.4323C28.3502 35.5418 27.8405 35.7921 27.5779 36.0111C27.4389 35.667 27.269 35.3854 27.0682 35.1038C25.1684 36.3865 22.9597 35.9642 19.9478 35.9955C21.2452 35.5105 21.8013 35.3072 22.6662 34.8223C24.4425 33.8524 24.875 32.9451 26.3732 32.82C26.4813 32.1161 26.4658 32.0535 26.4041 31.6155C26.7902 31.6468 27.1146 31.6624 27.4544 31.5842C27.4544 30.5987 27.9332 29.7853 28.0104 29.6445C28.1649 29.3942 28.273 29.1752 28.5047 28.7998C29.3387 27.5484 30.2963 25.1707 30.6825 23.3561L30.7288 29.5976C30.6362 30.7082 30.4817 31.3339 29.8793 32.2412C30.1573 32.4758 30.4199 32.601 30.7288 32.7574C30.4817 33.1172 30.2809 33.5865 30.1728 34.0401H30.1882ZM30.4199 32.8826C30.0956 32.82 29.7249 32.4758 29.694 32.4289C29.694 32.4915 29.416 32.8513 28.9989 33.1016C29.0453 33.2111 29.0607 33.3049 29.0607 33.4144C29.0607 33.4144 30.1573 32.9921 30.389 32.8982L30.4199 32.8826ZM29.5086 27.6109C28.6746 29.4881 27.4698 30.4892 27.8559 32.1161C27.8559 32.1161 27.9177 32.4446 28.1185 32.6792C28.2266 32.6636 28.4583 32.6792 28.4583 32.6792C29.2924 30.4736 29.972 28.4869 30.4663 25.7964C30.528 25.3428 30.5589 24.717 30.6053 24.2321C30.3581 25.2645 30.6207 25.155 29.5241 27.6109H29.5086ZM26.7439 31.944C26.7439 31.944 26.8057 32.2412 26.6821 32.82C26.6821 32.82 27.0373 32.82 27.5625 33.0859C27.5625 33.0859 27.6397 32.9451 27.686 32.8982C27.7169 32.8669 27.7478 32.8356 27.7787 32.82L26.7439 31.944ZM22.0793 35.6982C23.8556 35.2915 26.3732 34.3373 27.4853 33.7898C27.4544 33.6803 27.4389 33.5708 27.4544 33.4613V33.4144C27.1763 33.258 26.8674 33.1641 26.4967 33.1485C24.8904 33.1798 24.288 34.572 21.9094 35.4792L20.8128 35.8234C21.1371 35.8234 21.5542 35.8234 22.0793 35.6982ZM27.7169 35.62L28.1803 34.2904C28.0567 34.2904 27.9486 34.2435 27.8405 34.1809C27.7324 34.4625 27.6552 34.6033 27.3308 34.8848C27.5779 35.1664 27.6706 35.4323 27.7324 35.6044L27.7169 35.62ZM27.9332 33.8055C28.1185 33.9932 28.412 33.9932 28.5973 33.8055C28.7827 33.6178 28.7827 33.3206 28.5973 33.1328C28.412 32.9451 28.1185 32.9451 27.9332 33.1328C27.7478 33.3206 27.7478 33.6178 27.9332 33.8055ZM28.9526 35.1351C29.3387 35.62 29.8793 35.7608 30.4971 35.6982L28.8599 34.0088C28.7672 34.134 28.6282 34.1965 28.5201 34.2435C28.6128 34.6345 28.7209 34.8535 28.9526 35.1351Z" fill="black"/>
<path d="M30.7597 0.032795C30.8833 0.721076 30.7134 1.55014 30.1882 2.01942C30.2964 2.47306 30.4972 2.9267 30.7443 3.30213C30.4354 3.45855 30.1728 3.56805 29.8948 3.81834C30.4972 4.74126 30.6516 5.36697 30.7443 6.46196L30.698 12.7034C30.2964 10.8889 29.3387 8.51116 28.5201 7.25974C28.273 6.89996 28.1649 6.66532 28.0259 6.41503C27.9332 6.27425 27.4544 5.46083 27.4698 4.47533C27.13 4.41276 26.8211 4.41276 26.4195 4.44405C26.4659 4.00605 26.4967 3.94348 26.3886 3.23956C24.8904 3.11441 24.4579 2.20714 22.6817 1.23729C21.8167 0.768004 21.2607 0.549005 19.9633 0.0640805C22.9751 0.095366 25.1839 -0.326988 27.0837 0.955716C27.2999 0.674147 27.4544 0.392578 27.5934 0.0484374C27.856 0.251793 28.3657 0.51772 28.7981 0.627219C29.2924 0.142294 29.9411 -0.0454187 30.7752 0.032795H30.7597ZM30.4045 3.16134C30.1728 3.06749 29.0762 2.66078 29.0762 2.66078C29.0762 2.73899 29.0453 2.83285 29.0144 2.9267C29.4314 3.20827 29.7094 3.56805 29.7094 3.63062C29.7403 3.5837 30.111 3.23956 30.4354 3.17699L30.4045 3.16134ZM29.4932 8.43295C30.5898 10.9045 30.3427 10.795 30.5744 11.8118C30.5435 11.3112 30.5126 10.7011 30.4354 10.2475C29.9565 7.55695 29.2615 5.57032 28.4275 3.3647C28.4275 3.3647 28.1958 3.38034 28.0876 3.3647C27.8869 3.59934 27.8251 3.92784 27.8251 3.92784C27.4389 5.55468 28.6437 6.55582 29.4777 8.43295H29.4932ZM26.7284 4.09991L27.7633 3.22391C27.7633 3.22391 27.7015 3.16134 27.6706 3.13006C27.6243 3.08313 27.5779 3.02056 27.547 2.95799C27.0219 3.20827 26.6667 3.20827 26.6667 3.20827C26.8057 3.78705 26.7284 4.08426 26.7284 4.08426V4.09991ZM22.0639 0.34565C21.5387 0.220508 21.1217 0.23615 20.7973 0.220508L21.894 0.564648C24.2726 1.47193 24.875 2.86413 26.4813 2.89542C26.852 2.89542 27.1609 2.78592 27.4389 2.62949V2.58256C27.4389 2.47306 27.4389 2.37921 27.4698 2.26971C26.3577 1.69093 23.8247 0.752361 22.0639 0.34565ZM27.7015 0.423864C27.6397 0.595934 27.547 0.877503 27.2999 1.14343C27.6243 1.425 27.7015 1.58143 27.8096 1.863C27.9177 1.80042 28.0259 1.7535 28.1494 1.7535L27.686 0.423864H27.7015ZM27.9177 2.23842C27.7324 2.42613 27.7324 2.72335 27.9177 2.91106C28.1031 3.09877 28.3965 3.09877 28.5819 2.91106C28.7672 2.72335 28.7672 2.42613 28.5819 2.23842C28.3965 2.05071 28.1031 2.05071 27.9177 2.23842ZM28.9371 0.908788C28.69 1.19036 28.5973 1.40936 28.5047 1.80042C28.6282 1.83171 28.7672 1.90992 28.8445 2.03507L30.4817 0.34565C29.8639 0.283079 29.3233 0.439506 28.9371 0.908788Z" fill="black"/>
<path d="M0.0384631 36.0111C-0.0851015 35.3228 0.0847923 34.4938 0.609942 34.0245C0.501823 33.5708 0.301029 33.1172 0.0539002 32.7418C0.362812 32.5853 0.625391 32.4758 0.903412 32.2256C0.301034 31.3026 0.146574 30.6769 0.0539002 29.5819L0.100235 23.3405C0.50182 25.155 1.45945 27.5327 2.27807 28.7842C2.5252 29.1439 2.63333 29.3786 2.77234 29.6289C2.86501 29.7696 3.34382 30.5831 3.32838 31.5686C3.66818 31.6311 3.97708 31.6311 4.37867 31.5998C4.33233 32.0378 4.30145 32.1004 4.40957 32.8043C5.90779 32.9295 6.34025 33.8368 8.1165 34.8066C8.98145 35.2759 9.5375 35.4949 10.8349 35.9798C7.82304 35.9485 5.61433 36.3709 3.71452 35.0882C3.49828 35.3698 3.34382 35.6513 3.20481 35.9955C2.94224 35.7921 2.43253 35.5262 2.00006 35.4167C1.5058 35.9016 0.857087 36.0893 0.023026 36.0111H0.0384631ZM0.393705 32.8826C0.625389 32.9764 1.72203 33.3831 1.72203 33.3831C1.72203 33.3049 1.75293 33.2111 1.78382 33.1172C1.36679 32.8356 1.08875 32.4758 1.08875 32.4133C1.05786 32.4602 0.687164 32.8043 0.362807 32.8669L0.393705 32.8826ZM1.30499 27.611C0.208352 25.1394 0.455486 25.2489 0.223803 24.2321C0.254694 24.7327 0.285579 25.3428 0.362807 25.7964C0.84162 28.4869 1.53668 30.4736 2.3553 32.6792C2.3553 32.6792 2.58699 32.6636 2.6951 32.6792C2.8959 32.4446 2.95768 32.1161 2.95768 32.1161C3.34382 30.4892 2.13905 29.4881 1.30499 27.611ZM4.06976 31.944L3.03491 32.82C3.03491 32.82 3.09669 32.8826 3.12758 32.9138C3.17392 32.9608 3.22026 33.0233 3.25115 33.0859C3.7763 32.8356 4.13153 32.8356 4.13153 32.8356C3.99252 32.2568 4.06976 31.9596 4.06976 31.9596V31.944ZM8.73433 35.6982C9.24404 35.8234 9.6765 35.8077 10.0009 35.8234L8.90423 35.4793C6.52562 34.572 5.92324 33.1798 4.3169 33.1485C3.9462 33.1485 3.63727 33.258 3.35925 33.4144V33.4613C3.35925 33.5708 3.35927 33.6647 3.32838 33.7742C4.44046 34.353 6.97354 35.2915 8.73433 35.6982ZM3.09668 35.62C3.15846 35.448 3.25115 35.1664 3.49828 34.9005C3.17392 34.6189 3.09669 34.4625 2.98857 34.1809C2.88046 34.2435 2.77233 34.2904 2.64877 34.2904L3.11214 35.62H3.09668ZM2.88044 33.8055C3.06579 33.6178 3.06579 33.3206 2.88044 33.1328C2.6951 32.9451 2.40164 32.9451 2.2163 33.1328C2.03095 33.3206 2.03095 33.6178 2.2163 33.8055C2.40164 33.9932 2.6951 33.9932 2.88044 33.8055ZM1.86103 35.1351C2.10816 34.8535 2.20083 34.6345 2.2935 34.2435C2.16994 34.2122 2.03095 34.134 1.95372 34.0088L0.316472 35.6982C0.934295 35.7608 1.47489 35.6044 1.86103 35.1351Z" fill="black"/>
<path d="M0.625405 2.00378C0.100255 1.55014 -0.0696622 0.705435 0.0539024 0.0171548C0.887964 -0.0610589 1.53668 0.126654 2.03093 0.611579C2.46341 0.50208 2.97311 0.251796 3.23569 0.0327979C3.3747 0.376938 3.5446 0.658507 3.7454 0.940077C5.6452 -0.342628 7.85392 0.0797257 10.8658 0.0484402C9.56838 0.533365 9.01235 0.736721 8.14739 1.22165C6.37115 2.1915 5.93869 3.09877 4.44047 3.22392C4.33235 3.92784 4.34779 3.99041 4.40957 4.42841C4.02343 4.39712 3.69906 4.38148 3.35926 4.45969C3.35926 5.44519 2.88044 6.25861 2.80321 6.39939C2.64876 6.64968 2.54065 6.86868 2.30897 7.2441C1.47491 8.49552 0.517275 10.8732 0.131135 12.6878L0.0848002 6.44632C0.177474 5.33569 0.331934 4.70998 0.934312 3.8027C0.656291 3.56806 0.393712 3.44292 0.0848002 3.28649C0.331929 2.9267 0.532723 2.45742 0.640842 2.00378H0.625405ZM0.393707 3.16135C0.718064 3.22392 1.08876 3.56806 1.11965 3.61499C1.11965 3.55241 1.39767 3.19263 1.8147 2.94235C1.76836 2.83285 1.75293 2.73899 1.75293 2.62949C1.75293 2.62949 0.656289 3.05185 0.424605 3.1457L0.393707 3.16135ZM1.30499 8.43295C2.13905 6.55582 3.34382 5.55468 2.95768 3.92784C2.95768 3.92784 2.8959 3.59934 2.69511 3.3647C2.58699 3.38034 2.3553 3.3647 2.3553 3.3647C1.52124 5.57033 0.841622 7.55696 0.362809 10.2475C0.285581 10.7011 0.254696 11.3269 0.223805 11.8118C0.470934 10.7794 0.208354 10.8889 1.30499 8.43295ZM4.06976 4.09991C4.06976 4.09991 4.00797 3.8027 4.13153 3.22392C4.13153 3.22392 3.7763 3.22392 3.25115 2.95799C3.25115 2.95799 3.17392 3.09877 3.12758 3.1457C3.09669 3.17699 3.0658 3.20827 3.03491 3.22392L4.06976 4.09991ZM8.73433 0.345652C6.95809 0.752364 4.44046 1.70657 3.32838 2.25407C3.35927 2.36357 3.3747 2.47307 3.35926 2.58256V2.62949C3.63728 2.78592 3.9462 2.87978 4.3169 2.89542C5.92324 2.86413 6.52562 1.47193 8.90424 0.564651L10.0009 0.220511C9.6765 0.220511 9.25948 0.22051 8.73433 0.345652ZM3.09668 0.423866L2.63331 1.7535C2.75688 1.7535 2.865 1.80043 2.97312 1.863C3.08124 1.58143 3.15847 1.44064 3.48282 1.15907C3.23569 0.877506 3.14303 0.611579 3.08125 0.439509L3.09668 0.423866ZM2.88045 2.23842C2.6951 2.05071 2.40164 2.05071 2.2163 2.23842C2.03095 2.42614 2.03095 2.72335 2.2163 2.91106C2.40164 3.09877 2.6951 3.09877 2.88045 2.91106C3.06579 2.72335 3.06579 2.42614 2.88045 2.23842ZM1.86103 0.908791C1.47489 0.423866 0.934298 0.283081 0.316474 0.345652L1.95373 2.03507C2.03095 1.90993 2.18539 1.84736 2.29351 1.80043C2.20083 1.40936 2.09272 1.19036 1.86103 0.908791Z" fill="black"/>
<path d="M15.4377 0.157944C23.7938 0.157944 30.5744 8.16703 30.5744 18.0376C30.5744 27.9082 23.7938 35.9172 15.4377 35.9172C7.08164 35.9172 0.301025 27.9082 0.301025 18.0376C0.301025 8.16703 7.08164 0.157944 15.4377 0.157944ZM4.87293 26.9383V9.13688C3.42104 11.6554 2.57153 14.7213 2.57153 18.0376C2.57153 21.3539 3.42104 24.4198 4.87293 26.9383ZM8.13195 5.21055V30.8646C8.96601 31.5686 9.87729 32.1473 10.8504 32.601V3.4742C9.87729 3.92784 8.98145 4.50663 8.13195 5.21055ZM14.0939 2.53564V33.5396C14.5419 33.6021 14.9898 33.6178 15.4531 33.6178C15.9165 33.6178 16.3644 33.5865 16.8124 33.5239V2.53564C16.3644 2.47307 15.9165 2.44178 15.4531 2.44178C14.9898 2.44178 14.5419 2.47307 14.0939 2.52V2.53564ZM20.0559 3.4742V32.5853C21.029 32.1317 21.9248 31.5529 22.7743 30.849V5.22619C21.9403 4.52227 21.029 3.94349 20.0559 3.48985V3.4742ZM26.0179 9.13688V26.907C27.4698 24.3885 28.3193 21.3226 28.3193 18.022C28.3193 14.7213 27.4698 11.6554 26.0179 9.13688ZM1.56757 18.022C1.56757 22.1203 2.80322 25.8746 4.87293 28.7685V27.7987C3.14302 25.0925 2.10816 21.7136 2.10816 18.0376C2.10816 14.3616 3.14302 10.9827 4.87293 8.27652V7.30668C2.81867 10.2006 1.56757 13.9548 1.56757 18.0532V18.022ZM26.0179 27.7674V28.7529C28.0722 25.859 29.3078 22.1203 29.3078 18.022C29.3078 13.9236 28.0722 10.1849 26.0179 7.29103V8.27652C27.7478 10.9827 28.7672 14.3616 28.7672 18.022C28.7672 21.6824 27.7478 25.0768 26.0179 27.7674ZM22.7743 3.92784C21.9248 3.30213 21.0135 2.77028 20.0559 2.36357V2.97364C21.0135 3.39599 21.9248 3.95913 22.7743 4.63177V3.94349V3.92784ZM15.4531 1.42501C14.9898 1.42501 14.5419 1.45629 14.0939 1.50322V2.06636C14.5419 2.01943 14.9898 1.98814 15.4531 1.98814C15.9165 1.98814 16.3644 2.01943 16.8124 2.06636V1.50322C16.3644 1.45629 15.9165 1.42501 15.4531 1.42501ZM10.8504 2.36357C9.89273 2.77028 8.98145 3.28649 8.13195 3.92784V4.61612C8.98145 3.94349 9.87729 3.39599 10.8504 2.97364V2.36357ZM8.13195 32.1161C8.98145 32.7418 9.89273 33.2736 10.8504 33.6803V33.0703C9.89273 32.6479 8.98145 32.0848 8.13195 31.4278V32.1161ZM15.4531 34.6189C15.9165 34.6189 16.3644 34.5876 16.8124 34.5407V33.9775C16.3644 34.0401 15.9165 34.0558 15.4531 34.0558C14.9898 34.0558 14.5419 34.0245 14.0939 33.9775V34.5407C14.5419 34.5876 14.9898 34.6189 15.4531 34.6189ZM20.0714 33.6803C21.029 33.2736 21.9403 32.7574 22.7898 32.1161V31.4278C21.9403 32.1004 21.0444 32.6479 20.0714 33.0859V33.696V33.6803Z" fill="black"/>
</svg>
