<svg width="256" height="40" viewBox="0 0 256 40" fill="none" xmlns="http://www.w3.org/2000/svg">
<path d="M100.038 6.04214H101.182V18.0562H100.038V6.04214Z" fill="black"/>
<path d="M103.412 9.36843H104.472V10.8702H104.5C104.89 9.83159 106.047 9.1158 107.288 9.1158C109.728 9.1158 110.48 10.393 110.48 12.4702V18.0561H109.421V12.6386C109.421 11.1369 108.933 10.014 107.204 10.014C105.476 10.014 104.5 11.2912 104.472 12.9895V18.0561H103.412V9.36843Z" fill="black"/>
<path d="M117.632 11.9228C117.577 10.6035 116.573 10.0141 115.36 10.0141C114.412 10.0141 113.297 10.379 113.297 11.5158C113.297 12.4562 114.37 12.793 115.095 12.9755L116.517 13.2983C117.73 13.4807 118.999 14.1965 118.999 15.6983C118.999 17.579 117.13 18.3088 115.513 18.3088C113.492 18.3088 112.112 17.3684 111.93 15.2491H112.99C113.074 16.6807 114.133 17.4246 115.555 17.4246C116.545 17.4246 117.939 16.9895 117.939 15.7684C117.939 14.7579 116.991 14.4211 116.029 14.1825L114.663 13.8737C113.283 13.5088 112.237 13.0316 112.237 11.5439C112.237 9.77546 113.98 9.10178 115.513 9.10178C117.256 9.10178 118.636 10.0141 118.706 11.8948H117.646L117.632 11.9228Z" fill="black"/>
<path d="M122.149 9.36844H123.92V10.2667H122.149V16.1193C122.149 16.807 122.247 17.2141 123.014 17.2702C123.32 17.2702 123.627 17.2562 123.92 17.2141V18.1263C123.599 18.1263 123.292 18.1544 122.972 18.1544C121.55 18.1544 121.062 17.6912 121.076 16.2035V10.2667H119.556V9.36844H121.076V6.75792H122.135V9.36844H122.149Z" fill="black"/>
<path d="M125.412 6.04214H126.471V7.74039H125.412V6.04214ZM125.412 9.38249H126.471V18.0702H125.412V9.38249Z" fill="black"/>
<path d="M130.124 9.36844H131.894V10.2667H130.124V16.1193C130.124 16.807 130.221 17.2141 130.988 17.2702C131.295 17.2702 131.601 17.2562 131.894 17.2141V18.1263C131.574 18.1263 131.267 18.1544 130.946 18.1544C129.524 18.1544 129.036 17.6912 129.05 16.2035V10.2667H127.531V9.36844H129.05V6.75792H130.11V9.36844H130.124Z" fill="black"/>
<path d="M140.412 18.0562H139.436V16.4842H139.408C138.851 17.6492 137.708 18.2948 136.411 18.2948C134.222 18.2948 133.358 17.0176 133.358 14.9965V9.35442H134.418V15.0106C134.473 16.5825 135.059 17.3965 136.746 17.3965C138.572 17.3965 139.367 15.6842 139.367 13.9158V9.35442H140.426V18.0421L140.412 18.0562Z" fill="black"/>
<path d="M144.051 9.36844H145.821V10.2667H144.051V16.1193C144.051 16.807 144.149 17.2141 144.915 17.2702C145.222 17.2702 145.529 17.2562 145.821 17.2141V18.1263C145.501 18.1263 145.194 18.1544 144.873 18.1544C143.451 18.1544 142.964 17.6912 142.991 16.2035V10.2667H141.472V9.36844H142.991V6.75792H144.051V9.36844Z" fill="black"/>
<path d="M160.92 9.67724C160.515 7.82461 158.982 6.75794 157.225 6.75794C154.033 6.75794 152.694 9.41057 152.694 12.0492C152.694 14.6878 154.047 17.3404 157.225 17.3404C159.456 17.3404 160.864 15.6281 161.087 13.4807H162.23C161.91 16.4281 160.041 18.3088 157.225 18.3088C153.433 18.3088 151.537 15.3334 151.537 12.0492C151.537 8.76496 153.419 5.78952 157.225 5.78952C159.498 5.78952 161.756 7.15092 162.063 9.67724H160.92Z" fill="black"/>
<path d="M163.61 12.0351C163.708 10 165.144 9.1158 167.138 9.1158C168.671 9.1158 170.344 9.59299 170.344 11.9088V16.5263C170.344 16.9333 170.553 17.1719 170.971 17.1719C171.083 17.1719 171.222 17.1439 171.306 17.1018V18C171.069 18.0561 170.902 18.0702 170.609 18.0702C169.535 18.0702 169.354 17.4667 169.354 16.5544H169.326C168.587 17.6772 167.821 18.3228 166.162 18.3228C164.503 18.3228 163.248 17.5368 163.248 15.7825C163.248 13.3404 165.632 13.2561 167.918 12.9895C168.797 12.8912 169.285 12.7649 169.285 11.8105C169.285 10.379 168.253 10.0281 167.012 10.0281C165.702 10.0281 164.712 10.6316 164.684 12.0491H163.624L163.61 12.0351ZM169.285 13.3123H169.257C169.117 13.5649 168.643 13.6491 168.364 13.7053C166.566 14.0281 164.321 14.014 164.321 15.7123C164.321 16.779 165.269 17.4246 166.259 17.4246C167.876 17.4246 169.312 16.4 169.298 14.7018V13.3263L169.285 13.3123Z" fill="black"/>
<path d="M174.094 9.36844H175.865V10.2667H174.094V16.1193C174.094 16.807 174.192 17.2141 174.959 17.2702C175.265 17.2702 175.572 17.2562 175.865 17.2141V18.1263C175.544 18.1263 175.237 18.1544 174.917 18.1544C173.495 18.1544 173.007 17.6912 173.035 16.2035V10.2667H171.515V9.36844H173.035V6.75792H174.094V9.36844Z" fill="black"/>
<path d="M177.231 12.0351C177.329 10 178.765 9.1158 180.758 9.1158C182.292 9.1158 183.965 9.59299 183.965 11.9088V16.5263C183.965 16.9333 184.174 17.1719 184.592 17.1719C184.704 17.1719 184.843 17.1439 184.927 17.1018V18C184.69 18.0561 184.522 18.0702 184.23 18.0702C183.156 18.0702 182.975 17.4667 182.975 16.5544H182.947C182.208 17.6772 181.441 18.3228 179.782 18.3228C178.123 18.3228 176.869 17.5368 176.869 15.7825C176.869 13.3404 179.253 13.2561 181.539 12.9895C182.417 12.8912 182.905 12.7649 182.905 11.8105C182.905 10.379 181.873 10.0281 180.633 10.0281C179.322 10.0281 178.332 10.6316 178.305 12.0491H177.245L177.231 12.0351ZM182.905 13.3123H182.877C182.738 13.5649 182.264 13.6491 181.985 13.7053C180.187 14.0281 177.942 14.014 177.942 15.7123C177.942 16.779 178.89 17.4246 179.88 17.4246C181.497 17.4246 182.933 16.4 182.919 14.7018V13.3263L182.905 13.3123Z" fill="black"/>
<path d="M186.028 6.04214H187.087V18.0562H186.028V6.04214Z" fill="black"/>
<path d="M188.97 12.0351C189.067 10 190.503 9.11583 192.497 9.11583C194.03 9.11583 195.703 9.59303 195.703 11.9088V16.5264C195.703 16.9334 195.912 17.172 196.331 17.172C196.442 17.172 196.581 17.1439 196.665 17.1018V18C196.428 18.0562 196.261 18.0702 195.968 18.0702C194.895 18.0702 194.713 17.4667 194.713 16.5544H194.685C193.947 17.6772 193.18 18.3228 191.521 18.3228C189.862 18.3228 188.607 17.5369 188.607 15.7825C188.607 13.3404 190.991 13.2562 193.277 12.9895C194.156 12.8913 194.644 12.765 194.644 11.8106C194.644 10.379 193.612 10.0281 192.371 10.0281C191.061 10.0281 190.071 10.6316 190.043 12.0492H188.983L188.97 12.0351ZM194.644 13.3123H194.616C194.476 13.565 194.002 13.6492 193.723 13.7053C191.925 14.0281 189.681 14.0141 189.681 15.7123C189.681 16.779 190.629 17.4246 191.618 17.4246C193.236 17.4246 194.671 16.4 194.658 14.7018V13.3264L194.644 13.3123ZM190.364 5.78952H191.674L193.445 8.16145H192.58L190.35 5.78952H190.364Z" fill="black"/>
<path d="M210.035 18.0562H209.059V16.4H209.031C208.571 17.5228 207.191 18.3088 205.922 18.3088C203.273 18.3088 202.005 16.1755 202.005 13.7193C202.005 11.2632 203.273 9.12985 205.922 9.12985C207.219 9.12985 208.487 9.7895 208.947 11.0386H208.975V6.05617H210.035V18.0702V18.0562ZM205.922 17.4106C208.181 17.4106 208.975 15.5018 208.975 13.7053C208.975 11.9088 208.181 10 205.922 10C203.901 10 203.078 11.9088 203.078 13.7053C203.078 15.5018 203.901 17.4106 205.922 17.4106Z" fill="black"/>
<path d="M212.614 14C212.628 15.5439 213.436 17.4105 215.486 17.4105C217.033 17.4105 217.884 16.4983 218.218 15.193H219.278C218.818 17.1579 217.675 18.3088 215.486 18.3088C212.725 18.3088 211.554 16.1895 211.554 13.7193C211.554 11.4316 212.711 9.12984 215.486 9.12984C218.26 9.12984 219.403 11.5719 219.32 14.014H212.628L212.614 14ZM218.246 13.1018C218.19 11.5018 217.201 10 215.486 10C213.771 10 212.781 11.5158 212.614 13.1018H218.246Z" fill="black"/>
<path d="M225.328 6.04214H226.388V18.0562H225.328V6.04214Z" fill="black"/>
<path d="M228.981 14C228.995 15.5439 229.803 17.4105 231.853 17.4105C233.4 17.4105 234.251 16.4983 234.585 15.193H235.645C235.185 17.1579 234.042 18.3088 231.853 18.3088C229.092 18.3088 227.921 16.1895 227.921 13.7193C227.921 11.4316 229.078 9.12984 231.853 9.12984C234.627 9.12984 235.77 11.5719 235.687 14.014H228.995L228.981 14ZM234.613 13.1018C234.557 11.5018 233.568 10 231.853 10C230.138 10 229.148 11.5158 228.981 13.1018H234.613Z" fill="black"/>
<path d="M242.253 11.9228C242.197 10.6035 241.193 10.0141 239.98 10.0141C239.032 10.0141 237.917 10.379 237.917 11.5158C237.917 12.4562 238.991 12.793 239.716 12.9755L241.138 13.2983C242.35 13.4807 243.619 14.1965 243.619 15.6983C243.619 17.579 241.751 18.3088 240.134 18.3088C238.112 18.3088 236.732 17.3684 236.565 15.2491H237.624C237.708 16.6807 238.768 17.4246 240.19 17.4246C241.179 17.4246 242.574 16.9895 242.574 15.7684C242.574 14.7579 241.626 14.4211 240.664 14.1825L239.297 13.8737C237.917 13.5088 236.872 13.0316 236.872 11.5439C236.872 9.77546 238.614 9.10178 240.148 9.10178C241.89 9.10178 243.271 10.0141 243.34 11.8948H242.281L242.253 11.9228Z" fill="black"/>
<path d="M99.899 22.9263H108.905V25.1439H102.548V27.7123H108.389V29.7614H102.548V32.7088H109.044V34.9263H99.899V22.9123V22.9263Z" fill="black"/>
<path d="M110.578 26.2527H112.837V27.4316H112.864C113.492 26.5334 114.398 26.0141 115.527 26.0141C116.656 26.0141 117.604 26.4211 118.078 27.4597C118.58 26.7018 119.5 26.0141 120.713 26.0141C122.568 26.0141 123.906 26.8702 123.906 29.1299V34.9544H121.508V30.0281C121.508 28.8632 121.41 27.9088 120.044 27.9088C118.678 27.9088 118.441 29.0176 118.441 30.1123V34.9544H116.043V30.0702C116.043 29.0597 116.113 27.8948 114.593 27.8948C114.119 27.8948 112.976 28.2035 112.976 29.9018V34.9544H110.578V26.2527Z" fill="black"/>
<path d="M125.732 26.2527H128.005V27.3614H128.032C128.604 26.4351 129.552 26.0141 130.626 26.0141C133.358 26.0141 134.585 28.2176 134.585 30.6878C134.585 33.0035 133.302 35.179 130.751 35.179C129.705 35.179 128.716 34.7299 128.13 33.8597H128.102V38H125.704V26.2386L125.732 26.2527ZM132.215 30.6316C132.215 29.2562 131.657 27.8246 130.124 27.8246C128.59 27.8246 128.046 29.2281 128.046 30.6316C128.046 32.0351 128.59 33.3965 130.138 33.3965C131.685 33.3965 132.215 32.0492 132.215 30.6316Z" fill="black"/>
<path d="M135.965 26.2527H138.237V27.8667H138.265C138.698 26.772 139.883 26.0141 141.054 26.0141C141.221 26.0141 141.43 26.0421 141.583 26.0983V28.3158C141.36 28.2597 141.012 28.2316 140.719 28.2316C138.962 28.2316 138.363 29.4948 138.363 31.0246V34.9404H135.965V26.2386V26.2527Z" fill="black"/>
<path d="M144.427 31.179C144.497 32.6948 145.236 33.3825 146.574 33.3825C147.536 33.3825 148.317 32.793 148.47 32.2597H150.575C149.906 34.3088 148.47 35.193 146.491 35.193C143.744 35.193 142.043 33.3123 142.043 30.6176C142.043 27.9228 143.842 26.0281 146.491 26.0281C149.46 26.0281 150.896 28.5264 150.729 31.193H144.441L144.427 31.179ZM148.331 29.6632C148.108 28.4562 147.592 27.8106 146.421 27.8106C144.901 27.8106 144.469 28.9895 144.427 29.6632H148.331Z" fill="black"/>
<path d="M153.935 32.1193C153.949 33.1579 154.828 33.579 155.776 33.579C156.473 33.579 157.351 33.3123 157.351 32.4702C157.351 31.7404 156.361 31.4878 154.632 31.1228C153.252 30.8141 151.872 30.3369 151.872 28.793C151.872 26.5755 153.796 26 155.664 26C157.532 26 159.331 26.6456 159.512 28.779H157.239C157.17 27.8527 156.459 27.6 155.608 27.6C155.065 27.6 154.27 27.6983 154.27 28.4141C154.27 29.2702 155.622 29.3965 156.988 29.7053C158.383 30.0281 159.749 30.5334 159.749 32.1474C159.749 34.4351 157.755 35.179 155.762 35.179C153.768 35.179 151.76 34.4211 151.663 32.1193H153.935Z" fill="black"/>
<path d="M163.039 31.179C163.109 32.6948 163.847 33.3825 165.186 33.3825C166.148 33.3825 166.928 32.793 167.082 32.2597H169.187C168.518 34.3088 167.082 35.193 165.102 35.193C162.356 35.193 160.655 33.3123 160.655 30.6176C160.655 27.9228 162.453 26.0281 165.102 26.0281C168.072 26.0281 169.508 28.5264 169.34 31.193H163.053L163.039 31.179ZM166.928 29.6632C166.705 28.4562 166.19 27.8106 165.019 27.8106C163.499 27.8106 163.067 28.9895 163.025 29.6632H166.915H166.928Z" fill="black"/>
<path d="M172.533 32.1193C172.547 33.1579 173.425 33.579 174.373 33.579C175.07 33.579 175.935 33.3123 175.935 32.4702C175.935 31.7404 174.945 31.4878 173.216 31.1228C171.836 30.8141 170.456 30.3369 170.456 28.793C170.456 26.5755 172.38 26 174.248 26C176.116 26 177.914 26.6456 178.095 28.779H175.823C175.753 27.8527 175.042 27.6 174.192 27.6C173.648 27.6 172.854 27.6983 172.854 28.4141C172.854 29.2702 174.206 29.3965 175.572 29.7053C176.966 30.0281 178.332 30.5334 178.332 32.1474C178.332 34.4351 176.339 35.179 174.345 35.179C172.352 35.179 170.344 34.4211 170.247 32.1193H172.519H172.533Z" fill="black"/>
<path d="M192.58 26.9684C192.413 25.7755 191.27 24.8632 189.945 24.8632C187.561 24.8632 186.669 26.8842 186.669 28.9895C186.669 31.0947 187.561 33.0176 189.945 33.0176C191.563 33.0176 192.469 31.9088 192.678 30.3228H195.243C194.978 33.3123 192.901 35.2351 189.945 35.2351C186.223 35.2351 184.02 32.4562 184.02 28.9895C184.02 25.5228 186.209 22.6456 189.945 22.6456C192.594 22.6456 194.825 24.1895 195.146 26.9684H192.58Z" fill="black"/>
<path d="M204.904 34.9544H202.632V33.7474H202.576C201.963 34.7298 200.917 35.193 199.913 35.193C197.362 35.193 196.721 33.7614 196.721 31.6141V26.2667H199.119V31.179C199.119 32.6106 199.537 33.3123 200.652 33.3123C201.949 33.3123 202.506 32.5825 202.506 30.8281V26.2667H204.904V34.9684V34.9544Z" fill="black"/>
<path d="M206.731 22.9263H209.129V34.9404H206.731V22.9263Z" fill="black"/>
<path d="M213.98 26.2527H215.737V27.8527H213.98V32.1614C213.98 32.9755 214.189 33.172 214.998 33.172C215.249 33.172 215.486 33.1579 215.737 33.1018V34.9685C215.332 35.0386 214.803 35.0527 214.343 35.0527C212.879 35.0527 211.596 34.7158 211.596 32.9895V27.8527H210.146V26.2527H211.596V23.6422H213.994V26.2527H213.98Z" fill="black"/>
<path d="M225.008 34.9544H222.735V33.7474H222.679C222.066 34.7298 221.02 35.193 220.017 35.193C217.465 35.193 216.824 33.7614 216.824 31.6141V26.2667H219.222V31.179C219.222 32.6106 219.64 33.3123 220.756 33.3123C222.052 33.3123 222.61 32.5825 222.61 30.8281V26.2667H225.008V34.9684V34.9544Z" fill="black"/>
<path d="M226.75 26.2527H229.023V27.8667H229.051C229.483 26.772 230.668 26.0141 231.839 26.0141C232.006 26.0141 232.215 26.0421 232.369 26.0983V28.3158C232.145 28.2597 231.797 28.2316 231.504 28.2316C229.748 28.2316 229.148 29.4948 229.148 31.0246V34.9404H226.75V26.2386V26.2527Z" fill="black"/>
<path d="M233.149 28.9193C233.289 26.6877 235.296 26 237.248 26C238.991 26 241.082 26.393 241.082 28.4702V33.0035C241.082 33.7895 241.165 34.5895 241.389 34.9404H238.963C238.879 34.6737 238.809 34.379 238.795 34.0983C238.043 34.8842 236.927 35.179 235.854 35.179C234.195 35.179 232.884 34.3509 232.884 32.5684C232.884 30.6035 234.362 30.1263 235.854 29.9299C237.318 29.7053 238.684 29.7614 238.684 28.779C238.684 27.7544 237.973 27.6 237.136 27.6C236.23 27.6 235.631 27.9649 235.547 28.9193H233.149ZM238.684 30.6877C238.28 31.0386 237.429 31.0527 236.69 31.193C235.951 31.3474 235.268 31.6 235.268 32.4702C235.268 33.3404 235.965 33.579 236.732 33.579C238.6 33.579 238.67 32.0913 238.67 31.572V30.6877H238.684Z" fill="black"/>
<path d="M242.936 22.9263H245.334V34.9404H242.936V22.9263Z" fill="black"/>
<path d="M249 32.1193C249.014 33.1579 249.893 33.579 250.841 33.579C251.538 33.579 252.402 33.3123 252.402 32.4702C252.402 31.7404 251.412 31.4878 249.684 31.1228C248.303 30.8141 246.923 30.3369 246.923 28.793C246.923 26.5755 248.847 26 250.715 26C252.583 26 254.382 26.6456 254.563 28.779H252.291C252.221 27.8527 251.51 27.6 250.659 27.6C250.116 27.6 249.321 27.6983 249.321 28.4141C249.321 29.2702 250.673 29.3965 252.04 29.7053C253.434 30.0281 254.8 30.5334 254.8 32.1474C254.8 34.4351 252.806 35.179 250.813 35.179C248.819 35.179 246.812 34.4211 246.714 32.1193H248.986H249Z" fill="black"/>
<path d="M43.5208 28.821C41.3041 28.821 39.5754 28.1052 38.3625 26.8421V35.3754C39.9379 35.7403 41.6248 35.9228 43.4093 35.9228C50.589 35.9228 57.4481 32.7087 59.372 25.2982H49.5295C48.5396 27.6421 46.0581 28.821 43.5347 28.821H43.5208Z" fill="black"/>
<path d="M75.3904 28.4421C69.9534 28.4421 67.8622 23.6421 67.8622 18.8421C67.8622 14.0421 69.9534 9.2421 75.3904 9.2421C78.9315 9.2421 81.4688 10.9684 81.9149 14.2246H90.3494C90.1263 6.43509 82.5562 2 75.5717 2C66.7051 2 60.6824 8.13333 59.6229 16.2316C58.2846 7.97895 52.7081 2 43.1583 2C41.4993 2 39.8961 2.22456 38.3625 2.63158V11.1649C39.5476 9.85965 41.1647 9.10175 43.1583 9.10175C46.6855 9.10175 49.2228 12.0632 49.404 15.6421H38.3625V21.5088H59.6369C60.7382 29.5789 66.7469 35.6561 75.5717 35.6561C83.7831 35.6561 89.9032 30.7719 90.3494 22.4351H81.9149C81.5943 26.1403 79.3358 28.414 75.3904 28.414V28.4421Z" fill="black"/>
<path d="M1 2.68771H3.85795V7.26315H1V2.68771ZM1 11.6421H3.85795V34.9965H1V11.6421Z" fill="black"/>
<path d="M25.8432 18.9824C25.0765 15.5017 22.9435 13.3684 19.2212 13.3684C13.7423 13.3684 11.0098 18.3509 11.0098 23.3193C11.0098 28.2877 13.7283 33.2702 19.2212 33.2702C22.7622 33.2702 25.662 30.5052 26.0245 26.6175H28.8824C28.1157 32.2316 24.4352 35.6702 19.2212 35.6702C12.0554 35.6702 8.16577 30.014 8.16577 23.3193C8.16577 16.6246 12.0693 10.9684 19.2212 10.9684C24.2121 10.9684 28.0599 13.6351 28.7012 18.9824H25.8432Z" fill="black"/>
</svg>
