<svg width="146" height="78" viewBox="0 0 146 78" fill="none" xmlns="http://www.w3.org/2000/svg">
<path d="M130.924 56.7091C131.335 56.8165 131.399 56.848 131.555 57.2169C131.538 57.7932 130.274 60.5032 129.963 61.2335C130.474 60.557 133.17 57.1734 134.364 57.9982C135.374 58.9649 133.972 61.2549 134.569 62.2091C135.156 63.1499 137.9 60.1629 138.235 59.674C138.704 58.988 138.896 58.2045 139.54 57.6407C139.754 57.4548 139.872 57.4185 140.138 57.4445C140.381 57.5734 140.383 57.5924 140.535 57.8331C140.45 58.9126 138.215 61.6501 138.771 62.7872C140.196 63.6692 143.482 59.3328 144.223 59.3165L144.227 59.4728C143.683 60.6142 141.969 62.1642 140.916 62.9073C138.911 64.3245 137.052 64.2437 137.702 61.2345C135.735 63.3924 132.69 64.5787 133.45 60.2218C133.53 59.756 133.614 59.2578 133.642 58.7853L133.648 58.6818L133.597 58.7091C131.523 59.861 130.303 62.2168 128.865 64.0177C128.714 64.205 128.543 64.2104 128.327 64.2052C127.429 63.6911 128.501 61.5352 128.799 60.7462C127.376 62.0582 124.016 64.9392 122.133 62.7501C121.726 62.2751 121.956 61.1016 122.083 60.5402C121.292 61.1735 119.934 62.0567 119.263 62.7286C118.81 63.182 118.068 65.2525 117.744 65.9884C117.364 66.8522 116.965 67.7076 116.546 68.5529C115.186 71.2138 113.125 74.6753 110.513 76.3302C109.863 76.742 108.896 77.0662 108.137 76.8351C107.801 76.7328 107.363 76.4164 107.272 76.132C106.466 72.6716 112.147 67.7216 114.462 65.754C117.969 62.7727 117.578 63.6811 118.909 59.3683C117.935 60.5958 116.883 61.7737 115.661 62.7775C114.405 63.8093 112.96 63.712 113.367 61.712C113.695 60.1 115.092 58.3987 116.408 57.4601C117.401 56.7512 118.365 56.538 119.086 57.7247C119.341 57.2648 119.45 56.8809 120.029 56.9357C120.865 57.6166 119.662 60.9719 119.353 61.8898C120.275 61.1327 121.459 60.3624 122.298 59.6505C123.427 58.5615 123.932 57.3545 125.564 56.8907C127.015 56.4774 127.264 57.822 126.585 58.8029C125.831 59.8924 124.55 60.651 123.245 60.9103C123.23 60.9799 123.215 61.0506 123.201 61.1202C122.375 65.0931 128.704 60.4721 129.366 59.381C129.935 58.4439 129.972 57.4382 130.851 56.7648L130.924 56.7091ZM116.955 64.4415C115.343 65.7824 106.116 73.3963 108.16 75.9855C111.272 76.2633 115.14 68.8035 116.207 66.3995C116.384 66.0023 116.953 64.8808 117.01 64.5001L116.955 64.4415ZM118.07 57.924C116.6 58.4241 114.608 60.7111 114.516 62.2208L114.582 62.382C114.803 62.4027 114.768 62.3762 115.001 62.2726C115.883 61.6466 118.48 59.0757 118.696 58.257C118.53 58.0014 118.375 57.9484 118.07 57.924ZM125.986 57.7755C125.271 58.1777 124.102 59.118 123.752 59.8595L123.766 59.9698C124.416 59.655 125.66 58.6122 125.995 57.9611L125.986 57.7755Z" fill="#4A3523"/>
<path d="M38.2294 55.8242C40.3489 54.8715 41.1953 57.3456 39.6484 57.6923C38.7735 57.5005 39.5008 57.0914 39.4502 56.5839L39.2724 56.4872C38.4611 56.4896 37.2367 57.4625 37.0234 58.2773C36.7339 59.3826 37.4172 60.4008 37.9023 61.3261C39.6546 60.2608 40.7927 59.7639 42.6572 58.9609C42.8644 58.5498 43.0274 58.1327 43.2509 57.7001C43.5825 57.0585 43.9681 55.7895 44.9003 55.9443C45.0846 55.9747 45.0758 56.0316 45.164 56.1767C45.1627 56.6531 43.3752 60.3961 43.039 61.162C42.7738 61.6428 42.5525 62.1842 42.332 62.6894C42.6576 62.2109 42.9192 61.729 43.2011 61.2245C44.0556 59.7511 45.4123 57.6721 46.9531 56.832C47.7085 56.4201 48.5955 56.5308 48.9628 57.4072C49.3719 58.3834 49.1354 59.2413 48.7666 60.1894C49.2588 60.0153 50.6483 59.5628 50.9931 59.2695C51.939 58.4591 52.36 57.4672 53.6064 57.0146C55.1601 56.4503 55.9532 57.2621 55.0478 58.7236C54.3517 59.8466 52.9577 60.6303 51.6582 60.914C51.4558 61.9082 51.2588 62.9156 52.747 62.6415C54.4518 62.3273 56.7873 60.6408 57.8027 59.2275C58.4058 58.3881 58.6798 56.1908 59.9502 55.999C60.3258 56.1508 60.3527 56.4986 60.2041 56.8408C59.6118 58.2031 58.9597 59.4758 58.4834 60.8915C59.169 59.7833 61.6595 55.6435 63.0478 58.3349C63.2031 58.6355 63.3225 58.8916 63.2099 59.2255L62.9502 59.3535C62.2989 59.3142 62.5309 58.62 62.0244 58.3193C60.8606 58.1807 58.5421 61.9094 58.0839 62.9501C57.9663 63.1674 57.5583 63.968 57.3505 64.0331C55.7228 64.5446 57.128 61.2775 57.3457 60.6415C55.9911 61.955 52.2588 65.1288 50.4785 62.621C50.07 62.0454 50.4532 60.7109 50.6533 60.0849C49.878 60.4012 49.0758 60.6731 48.2851 60.9501C47.5031 62.1273 46.5466 63.3649 45.2802 64.0361C43.3648 65.0516 42.1453 63.7423 44.1699 62.3437C45.14 61.6734 46.088 61.2756 47.1484 60.7861C47.5106 60.2186 47.8173 59.5501 47.9648 58.8915C48.0384 58.5635 48.0972 58.1253 47.8886 57.8349C47.8044 57.7179 47.6733 57.6373 47.5263 57.6269C46.7784 57.5754 45.8714 58.6838 45.456 59.2001C42.6686 62.6649 40.7506 67.1924 39.1416 71.3017C38.8558 72.0315 38.0538 74.9347 37.622 75.2421C37.4909 75.3355 37.2539 75.3743 37.1005 75.3232C36.9297 75.2669 36.8073 75.1652 36.7382 74.997C36.299 73.9307 41.5198 61.5783 42.3144 59.7372C40.6438 60.4751 39.7417 60.9848 38.1894 61.956C38.6996 63.9397 38.1701 65.1215 36.625 66.5341C35.6837 67.3942 32.8215 68.2443 33.1728 66.0253C33.4289 64.4096 35.5293 62.8834 36.8828 61.9892C36.6202 61.3632 36.2135 60.6898 35.8759 60.0927C34.4735 61.4891 31.4185 64.1814 29.2197 63.414C27.8386 62.9317 28.1651 60.8165 28.7265 59.7919C29.3414 58.6696 30.4114 57.3932 31.6718 56.9257C33.0752 56.454 33.6614 57.7889 32.8964 58.8593C32.1207 59.9438 30.832 60.6499 29.5478 60.9247C29.3921 61.5485 29.2335 62.7735 30.2519 62.6923C32.2064 62.5368 34.2374 60.7656 35.665 59.4921C35.403 57.7079 36.7294 56.499 38.2294 55.8242ZM36.9746 62.7314C36.1034 63.402 33.4312 65.4631 34.1005 66.7216C35.9041 66.2919 37.3227 64.8571 37.0947 62.8954C37.0849 62.8119 37.0332 62.7743 36.9746 62.7314ZM46.3496 61.7167C45.9289 61.9426 43.7202 63.1138 44.0859 63.6074C44.7821 63.294 46.0237 62.3917 46.3945 61.7568L46.3496 61.7167ZM32.2705 57.7763C31.6102 58.1459 30.3836 59.1744 30.0878 59.8486L30.163 59.9433C30.5345 59.7085 32.6146 58.183 32.2705 57.7763ZM54.372 57.7695C53.7962 58.109 52.3314 59.2662 52.1826 59.8847L52.2412 59.9277C52.8436 59.5662 54.1936 58.5432 54.4492 57.8906L54.372 57.7695Z" fill="#4A3523"/>
<path d="M18.0976 46.5313C18.2991 46.5269 18.4793 46.5331 18.666 46.6182C18.8397 46.6968 18.9804 46.8474 19.039 47.0304C19.7759 49.3298 14.8635 55.4817 13.4101 57.1309C12.7084 57.9272 11.3674 58.952 10.9131 59.838C10.2875 61.0587 9.84773 64.1027 10.333 65.3497C10.5872 66.0031 10.8387 65.8527 11.3593 66.1075C11.4862 66.1697 11.4834 66.1901 11.5205 66.3175L11.3945 66.4845C11.1079 66.6355 10.7659 66.7099 10.4521 66.6241C8.24136 66.0218 8.99795 62.2261 9.3779 60.7022C7.9634 61.9875 3.76944 65.3678 2.43552 62.4112C2.31302 61.5956 2.38348 60.8753 2.7988 59.9679C3.35143 58.7603 5.36943 56.349 6.9697 56.9024C7.51342 57.0901 7.57476 58.1503 7.17673 58.6866C6.37891 59.7606 5.17499 60.6314 3.83005 60.8907L3.71775 60.9112C3.31983 62.6763 3.87785 63.0327 5.624 62.4239C6.88279 61.9846 8.93822 60.5225 9.6904 59.4024C10.0849 58.8142 10.4964 56.8235 10.9599 56.1427C12.3405 53.3165 15.0321 47.6991 18.0976 46.5313ZM6.43552 57.7735C5.79804 58.1543 4.5049 59.196 4.24802 59.8731L4.31833 59.9532C4.81971 59.6435 6.46091 58.3925 6.50388 57.8458L6.43552 57.7735ZM18.082 47.544C15.652 49.205 12.818 55.0576 11.6357 57.7364L11.6572 57.8341L11.7383 57.8155C13.7598 55.6153 17.8609 50.7194 18.2929 47.7354L18.2256 47.5841L18.082 47.544Z" fill="#4A3523"/>
<path d="M111.313 46.5294C111.536 46.5234 111.75 46.5175 111.947 46.6397C112.164 46.7745 112.275 46.9844 112.314 47.2325C112.705 49.7334 108.061 55.538 106.46 57.3428C105.844 58.0385 104.927 58.6804 104.423 59.4434C103.676 60.5762 103.259 63.5831 103.52 64.918C103.781 66.2492 104.242 65.74 104.729 66.129C104.8 66.1859 104.774 66.2293 104.773 66.3106C104.221 66.9505 103.214 66.5931 102.821 65.9835C101.886 64.536 102.375 62.3061 102.672 60.7149C101.171 62.1137 97.4813 65.1679 95.8128 62.5303C95.3994 60.9546 96.2283 59.3679 97.3108 58.2315C97.9881 57.5196 99.365 56.47 100.438 57.0098C101.113 57.3498 100.675 58.4462 100.319 58.9122C99.6088 59.8389 98.2788 60.6746 97.1341 60.8731L97.0296 60.8907C96.162 65.3463 102.693 60.3259 102.98 59.4473C104.109 55.99 107.726 47.7561 111.313 46.5294ZM99.7513 57.7715C99.1111 58.1545 97.8204 59.1815 97.5589 59.8653L97.6155 59.9317C98.2306 59.5664 99.5713 58.5571 99.8284 57.8897L99.7513 57.7715ZM111.329 47.5362C108.781 49.2697 106.152 54.8599 104.915 57.6817L104.926 57.8184L104.991 57.8008C106.842 55.7295 111.025 50.8896 111.518 47.7383C111.525 47.6895 111.493 47.63 111.471 47.5811L111.329 47.5362Z" fill="#4A3523"/>
<path d="M32.8966 47.0409C33.0826 47.0387 33.3347 47.0141 33.506 47.0927C33.7 47.1823 33.8397 47.3764 33.8918 47.58C34.3259 49.272 30.8303 53.8282 29.797 55.1483C28.9545 56.2247 27.9089 57.3244 27.2013 58.4852C26.3546 59.8749 25.0498 64.8666 25.4816 66.4647C25.5973 66.8922 25.7561 67.0697 26.1291 67.2831C26.2407 67.3475 26.2349 67.3697 26.2931 67.4794L26.2023 67.5956C25.6331 67.8102 24.7708 67.5076 24.5802 66.9677C23.9984 65.3186 24.4984 63.0033 24.9259 61.4003L25.1574 60.6024C24.3605 61.5714 22.1424 64.1307 21.1837 63.8905C18.5274 63.2238 22.0178 58.1304 23.1252 57.4696C24.5516 56.6193 25.2843 56.4536 26.1271 57.6669C27.2746 54.7302 29.8789 48.3662 32.8966 47.0409ZM24.8498 57.7675C23.521 58.3178 21.479 61.1772 21.5021 62.5389L21.589 62.6932C21.7795 62.7213 21.8932 62.6211 22.0675 62.5204C22.7039 62.0775 27.2911 58.0617 24.8498 57.7675ZM33.1593 47.9247C30.8565 49.9878 29.209 53.2591 28.0949 56.1044L28.1418 56.1913C29.4159 54.7326 33.2129 49.9332 33.2277 48.0389L33.1593 47.9247Z" fill="#4A3523"/>
<path d="M100.55 47.0418C103.983 46.9069 97.329 55.4351 96.614 56.1492C94.055 58.708 92.9985 62.6068 93.0037 66.1404C93.0052 66.9619 93.7319 67.202 93.8416 67.4813L93.7459 67.6522C93.2999 67.9329 92.473 67.508 92.2957 67.1473C91.4992 65.5295 92.1049 63.1131 92.4939 61.45L92.699 60.658C91.9299 61.6018 91.0539 62.5887 90.0789 63.3191C88.406 64.5725 87.4504 63.6011 87.9392 61.7566C88.429 60.0173 89.5999 58.1734 91.1521 57.2029C92.1879 56.5562 93.0473 56.7299 93.6541 57.7811C93.943 57.0411 94.2421 56.3061 94.5525 55.575C95.5832 53.1985 98.0038 48.0426 100.55 47.0418ZM92.3367 57.8543C91.0786 58.4025 88.9423 61.2789 89.0623 62.5672L89.157 62.7029C89.3644 62.7303 89.4775 62.6316 89.6648 62.5242C90.2983 62.0812 94.8625 58.0432 92.3367 57.8543ZM100.798 47.9256C98.6298 49.5427 96.7506 53.5513 95.7244 55.9871L95.74 56.1131L95.7752 56.1395C96.9673 54.7808 100.903 49.7912 100.864 48.0096L100.798 47.9256Z" fill="#4A3523"/>
<path d="M78.7369 56.0669C79.1385 56.0847 79.2605 56.0381 79.482 56.3804C79.3672 56.8247 78.9464 57.6498 78.7388 58.104C78.3313 58.9826 77.9626 59.8795 77.6344 60.7915C78.3352 59.6574 79.8836 56.9689 81.5084 57.5366C81.9277 57.6833 82.539 58.7898 82.316 59.2173C82.0967 59.3365 82.1091 59.3335 81.8609 59.3091C81.3081 58.9721 81.5179 57.5468 80.2076 58.7065C78.8791 59.9037 77.9639 61.4752 77.1207 63.0376C76.9517 63.3495 76.2382 64.7671 75.7603 63.8559C75.4418 63.2492 76.0734 61.7387 76.3023 61.0757C76.0675 61.3171 75.8294 61.5562 75.5894 61.7925C74.7944 62.5703 73.6805 63.5322 72.4869 63.5093C71.3384 63.4876 71.2197 62.324 71.3004 61.4263C71.344 61.2262 71.3867 61.1177 71.3365 60.9184C70.9748 61.1586 70.5401 61.7686 70.2017 62.0893C69.5871 62.6709 68.6788 63.6808 67.7291 63.4526C66.7217 63.2103 66.8866 61.939 67.1138 61.1811C67.5727 59.6641 68.736 58.1502 70.1431 57.396C71.2236 56.8174 71.9852 56.9266 72.526 58.0415C72.7245 57.7193 73.2886 56.7372 73.8287 56.9731C74.3644 57.2065 73.7485 58.4215 73.564 58.7964C73.1291 59.6802 72.0957 61.4432 72.4459 62.4263C73.4633 63.3607 76.3008 60.3233 76.815 59.4077C77.384 58.3935 77.8086 56.7595 78.7369 56.0669ZM71.2271 58.1518C70.4112 58.5178 69.8144 59.0499 69.2691 59.7602C68.8642 60.2871 67.922 61.6797 68.1217 62.3657L68.2662 62.436C68.4205 62.379 68.4872 62.3595 68.6334 62.2788C69.3674 61.7726 72.2745 59.1505 71.7428 58.2534C71.5427 58.1224 71.4803 58.1467 71.2271 58.1518Z" fill="#4A3523"/>
<path d="M71.3439 46.7459C73.2215 46.6489 71.3318 48.7661 70.8983 49.4121C70.318 50.29 69.767 51.1856 69.2464 52.0998C71.0054 52.0531 78.3665 51.5168 79.2097 52.8836C79.2075 53.1592 79.2527 53.0458 79.0986 53.2458C78.5725 53.1088 77.53 52.8251 77.0129 52.7828C74.35 52.5621 71.3188 52.6747 68.661 52.9495C66.5052 57.0003 63.4179 63.718 63.1437 68.2629C63.144 68.6118 63.1753 69.2881 63.2956 69.6156C63.4076 69.9208 63.862 70.1305 63.8649 70.4712C63.7623 70.6157 63.8063 70.6179 63.6742 70.6624C63.452 70.7372 63.3298 70.6327 63.1547 70.5712C62.758 70.4305 62.2191 69.6741 62.1627 69.2756C61.5992 65.2907 65.3861 56.3758 67.2014 53.0777C66.0036 53.1392 61.1146 54.0141 60.5196 53.6281C60.4238 53.397 60.4207 53.5051 60.498 53.294C61.109 52.8184 66.6054 52.305 67.6584 52.2087C68.3971 50.8456 70.1315 47.6134 71.3439 46.7459Z" fill="#4A3523"/>
<path d="M110.543 10.7033C115.139 10.4418 119.837 11.3151 123.523 14.2912C129.672 19.256 129.822 29.5662 124.885 35.4143C121.937 38.9062 118.212 40.2815 113.728 40.6623C110.631 40.769 107.571 40.2984 104.46 40.3117C103.681 40.3147 99.5866 40.5168 99.213 40.343L99.128 40.0901C99.3932 38.9937 102.285 40.1384 102.475 37.757C102.555 36.7421 102.551 35.4641 102.55 34.4143L102.543 28.0861L102.539 18.5959C102.539 17.1086 102.569 15.3545 102.526 13.8772C102.444 11.0603 99.6447 12.0284 99.1299 11.2893C99.1462 11.0294 99.1476 11.103 99.3321 10.8557C100.436 10.7146 103.02 10.8865 104.255 10.8947C106.435 10.9092 108.375 10.8096 110.543 10.7033ZM113.336 12.1281C112.678 12.0263 111.689 12.0226 111.008 12.1008C109.213 12.3139 108.06 12.5383 108.006 14.6565C107.969 16.1029 107.979 17.5473 107.98 18.9944L107.984 27.007L107.995 33.0012C107.999 34.2418 107.969 35.5702 108.117 36.7971C108.451 39.5618 112.127 39.4818 114.162 39.1203C115.462 38.8877 116.693 38.3697 117.769 37.6047C120.6 35.4275 121.729 32.4956 122.214 28.9885C123.13 22.3619 121.183 13.3435 113.336 12.1281Z" fill="#4A3523"/>
<path d="M18.7918 10.2531C21.612 9.8921 26.4052 10.6228 29.0506 11.8144C29.6138 12.104 29.6075 13.5994 29.6169 14.158C29.6329 15.1241 30.2292 19.1946 29.8081 19.8117C29.6435 19.8589 29.3416 19.94 29.2424 19.7863C28.9914 19.3972 28.7335 18.6799 28.5229 18.2469C27.4783 16.1355 25.713 13.9176 23.5857 12.8466C18.391 10.2314 11.9628 12.1466 9.33859 17.4349C7.41588 21.3095 7.19953 25.754 8.49556 29.7926C8.47986 26.7167 8.55632 23.3897 10.8296 20.9156C11.3971 20.2979 13.0392 19.307 13.8703 19.3043C14.0211 19.399 14.0649 19.4041 14.1336 19.5839C14.3288 20.0953 14.2913 20.8416 14.2875 21.3426C14.2576 25.1727 11.5144 23.7643 10.4992 26.7108C9.67231 29.3789 10.367 31.7301 11.4231 34.2077C13.3538 38.737 18.8789 40.9009 23.4191 39.2171C24.238 38.9133 24.6701 38.1036 24.9406 37.2895C25.2243 36.1016 25.4252 33.6637 25.1571 32.4475C24.541 29.6526 20.6778 30.6512 19.0125 28.4424C17.6793 26.674 17.6645 25.7284 17.7698 23.5975C18.388 24.2174 19.2164 25.0872 19.9869 25.4593C22.6052 26.7244 26.2645 26.0884 28.6665 27.9822C31.0267 29.8888 30.5071 33.2648 30.4765 35.9405C30.4703 36.482 31.0274 38.8852 30.559 39.143C28.3145 40.3764 24.7718 40.7691 22.2825 40.9854C16.8192 41.4602 11.1581 40.5987 6.89923 36.9084C4.03227 34.3798 2.28703 30.8164 2.04723 27.0016C1.72813 22.9855 3.03349 19.0093 5.67093 15.9635C8.99725 12.1567 13.8801 10.5746 18.7918 10.2531Z" fill="#4A3523"/>
<path d="M50.0304 10.2901C50.3157 10.2686 50.9824 10.291 51.1114 10.5196C51.8512 11.8379 52.6827 13.6336 53.3204 14.959L59.3077 27.4825L61.7111 32.5333C62.5997 34.3957 63.535 36.5778 64.8614 38.169C65.8771 39.3874 66.4074 39.1964 67.6183 39.7364C67.6395 40.0349 67.6537 40.0838 67.5841 40.3682C67.3107 40.5081 61.5265 40.2538 60.6378 40.3116C59.9163 40.3583 56.2107 40.4991 55.6183 40.3673C55.4925 40.1169 55.4964 40.2058 55.5138 39.9532C55.799 39.5031 56.707 39.5426 57.215 39.336C57.8195 39.0901 58.3133 38.6046 58.0939 37.921C57.6555 36.5568 56.9937 35.2578 56.381 33.9698C55.4496 32.0256 54.5291 30.0761 53.6202 28.1212C52.3203 28.0974 50.9598 28.1157 49.6554 28.1153L43.8253 28.1212C42.8755 30.3738 41.685 32.7514 40.9445 35.0567C40.2678 37.1631 41.451 39.3842 43.7667 39.4835C43.9729 39.4924 44.7312 39.5953 44.8937 39.7227C44.9506 40.0202 44.9505 40.0573 44.8849 40.3526C44.6762 40.5348 39.8196 40.3389 39.2696 40.3077C38.4446 40.261 34.0526 40.5643 33.6486 40.3214C33.4168 39.7593 34.007 39.5252 34.4347 39.4444C36.4574 39.0607 37.5856 37.388 38.4816 35.6085C39.6294 33.329 40.6814 30.8624 41.7423 28.4923L46.9777 16.8223C47.6142 15.3953 48.26 13.9723 48.9152 12.5538C49.163 12.0136 49.7147 10.7302 50.0304 10.2901ZM48.5851 17.2276C47.3471 20.305 45.8515 23.5533 44.507 26.6055L48.9142 26.584L52.9152 26.5919L49.8556 20.0303C49.6139 19.5056 48.8114 17.5905 48.5851 17.2276Z" fill="#4A3523"/>
<path d="M66.6394 10.7918C68.7141 10.8052 70.973 10.8876 73.0496 10.891C74.0417 10.8926 78.3294 10.7344 78.8251 10.8597L78.897 10.9877C78.8977 11.0734 78.9251 11.2688 78.8999 11.3419C78.7688 11.7197 76.7424 11.5792 75.9659 12.4755C75.6221 12.8722 75.5472 13.3362 75.4917 13.8381C75.2442 16.0714 75.4183 19.0098 75.4198 21.306C75.4213 24.1686 75.2731 27.4634 75.4643 30.2738C75.6332 32.7519 76.3489 35.2075 78.2991 36.8816C80.0024 38.3444 82.3823 38.8815 84.5844 38.6896C86.536 38.5199 88.2164 37.6891 89.4789 36.1802C90.4058 35.0726 90.9741 33.7087 91.2601 32.3012C91.5906 30.676 91.5528 29.0058 91.5528 27.356L91.5506 22.6703C91.552 21.9119 91.5913 21.0488 91.5558 20.2973C91.4231 17.5302 92.3019 12.6375 88.6572 11.8347C88.2386 11.7424 87.5881 11.6164 87.2762 11.3586C87.1783 11.0986 87.208 11.1808 87.2517 10.875C87.8185 10.7437 91.2675 10.8558 92.0833 10.8713C92.8724 10.8821 97.109 10.7525 97.5062 10.8541C97.6017 11.0912 97.6099 11.1001 97.5595 11.3422C97.2446 11.7855 96.2792 11.7138 95.7198 11.9721C93.1006 13.1821 93.4207 16.9571 93.4214 19.3698L93.4259 25.9212C93.4244 28.8876 93.617 32.07 92.5182 34.8656C91.578 37.2692 89.7116 39.1948 87.3384 40.2097C83.3463 41.9218 77.2069 41.2291 73.8061 38.4511C69.6629 35.0666 70.0047 30.4941 70.0079 25.7566L70.0124 17.0071C70.0116 15.9131 70.126 13.6642 69.7291 12.7059C69.1967 11.4203 67.5762 11.8869 66.7168 11.5581C66.5881 11.3352 66.6319 11.0633 66.6394 10.7918Z" fill="#4A3523"/>
<path d="M131.746 10.8089C133.299 10.665 136.043 10.9341 137.75 10.8898C139.641 10.9052 141.533 10.7774 143.425 10.8028C143.819 10.8081 144.131 10.9023 143.985 11.3771C143.363 11.9971 141.243 11.3309 140.809 12.9492C140.296 14.8558 140.459 17.1948 140.459 19.1857L140.461 25.9743L140.459 32.8162C140.457 34.1474 140.436 35.4877 140.484 36.8166C140.516 37.71 140.685 38.923 141.631 39.3052C142.427 39.626 143.152 39.3623 143.959 39.6964C144.085 39.8845 144.037 40.2016 144.029 40.4446C141.895 40.4713 139.621 40.2898 137.425 40.3053C136.159 40.3253 134.893 40.355 133.628 40.3942C133.216 40.4053 132.173 40.4579 131.819 40.4024C131.652 40.2246 131.642 40.2357 131.602 40.0053C131.944 39.1659 133.872 39.8756 134.545 38.7748C134.858 38.2629 135.025 37.8814 135.048 37.2226C135.101 35.7303 135.071 34.181 135.065 32.6896V24.7871V17.6464C135.065 16.2538 135.118 14.6303 134.938 13.2594C134.685 11.3219 132.445 11.9317 131.802 11.4638C131.665 11.2539 131.721 11.0717 131.746 10.8089Z" fill="#4A3523"/>
<path d="M139.964 2C140.647 2.07793 143.556 3.38732 143.962 3.80811C144.061 4.08021 144.044 3.96864 143.976 4.27163C143.551 4.61033 137.706 6.49414 136.66 6.85603C135.999 7.09324 133.996 8.00889 133.464 7.65737C133.38 7.41431 133.383 7.53262 133.446 7.29015C133.889 6.83581 135.233 5.93594 135.84 5.46857C137.052 4.53588 138.697 2.61917 139.964 2Z" fill="#4A3523"/>
</svg>
