<svg width="143" height="84" viewBox="0 0 143 84" fill="none" xmlns="http://www.w3.org/2000/svg">
<path d="M128.682 63.1935C129.093 63.301 129.156 63.3324 129.313 63.7014C129.296 64.2776 128.03 66.9916 127.719 67.7228C128.23 67.0458 130.93 63.6577 132.125 64.4836C133.137 65.4514 131.733 67.7441 132.33 68.6994C132.918 69.6413 135.665 66.6508 136 66.1613C136.47 65.4746 136.663 64.6905 137.308 64.1262C137.521 63.9403 137.639 63.9039 137.905 63.9299C138.149 64.0589 138.151 64.0777 138.302 64.3185C138.217 65.3991 135.981 68.1391 136.537 69.2775C137.964 70.1603 141.252 65.8202 141.994 65.8029L141.999 65.9601C141.455 67.103 139.737 68.6548 138.684 69.3986C136.676 70.8171 134.816 70.7361 135.467 67.7238C133.498 69.8842 130.45 71.0714 131.21 66.7092C131.291 66.2429 131.374 65.7446 131.403 65.2717L131.407 65.1682L131.358 65.1955C129.282 66.3486 128.06 68.7071 126.62 70.5099C126.47 70.6976 126.297 70.7036 126.08 70.6984C125.182 70.1836 126.255 68.0254 126.554 67.2355C125.129 68.549 121.766 71.4328 119.881 69.2414C119.473 68.7659 119.704 67.5906 119.831 67.0285C119.039 67.6625 117.68 68.5473 117.008 69.2199C116.555 69.6738 115.811 71.7472 115.488 72.4836C115.107 73.3482 114.707 74.2039 114.288 75.05C112.926 77.7139 110.863 81.1793 108.248 82.8361C107.598 83.2483 106.63 83.5722 105.87 83.341C105.534 83.2387 105.094 82.9217 105.003 82.6369C104.198 79.1729 109.883 74.219 112.201 72.2492C115.712 69.2642 115.321 70.1734 116.654 65.8557C115.679 67.0844 114.626 68.2629 113.403 69.2678C112.145 70.3008 110.697 70.2037 111.105 68.2014C111.433 66.5877 112.832 64.8851 114.15 63.9455C115.144 63.236 116.109 63.0225 116.83 64.2101C117.085 63.7497 117.195 63.3655 117.774 63.4201C118.611 64.1017 117.407 67.4612 117.098 68.3801C118.021 67.6221 119.206 66.8506 120.046 66.1379C121.176 65.0477 121.682 63.8394 123.316 63.3752C124.769 62.9615 125.018 64.3074 124.338 65.2892C123.583 66.3802 122.301 67.14 120.994 67.3996C120.979 67.4692 120.964 67.54 120.949 67.6096C120.123 71.587 126.46 66.959 127.121 65.8674C127.691 64.9293 127.728 63.9233 128.609 63.2492L128.682 63.1935ZM114.698 70.9348C113.084 72.2771 103.847 79.8983 105.893 82.4904C109.009 82.7685 112.88 75.3015 113.948 72.8947C114.125 72.4973 114.695 71.3747 114.752 70.9933L114.698 70.9348ZM115.814 64.4094C114.342 64.9099 112.348 67.1997 112.256 68.7111L112.322 68.8723C112.543 68.893 112.508 68.8667 112.742 68.7629C113.625 68.1358 116.225 65.5618 116.44 64.7424C116.274 64.4868 116.119 64.4338 115.814 64.4094ZM123.738 64.2609C123.022 64.6637 121.852 65.6055 121.502 66.3478L121.516 66.4572C122.167 66.142 123.412 65.0984 123.748 64.4465L123.738 64.2609Z" fill="#4A3523"/>
<path d="M35.8865 62.3073C38.0081 61.3536 38.8556 63.831 37.3074 64.1784C36.4315 63.9863 37.1598 63.5761 37.1091 63.068L36.9304 62.9714C36.1183 62.9739 34.8932 63.9478 34.6794 64.7634C34.3896 65.8698 35.0737 66.8889 35.5593 67.8151C37.3132 66.7489 38.4527 66.2517 40.3191 65.4479C40.5265 65.0364 40.69 64.6192 40.9138 64.1862C41.2457 63.544 41.6309 62.2735 42.5642 62.4284C42.749 62.4588 42.7404 62.5155 42.8288 62.6608C42.8273 63.138 41.0384 66.8853 40.7019 67.652C40.4365 68.1333 40.2146 68.6746 39.9939 69.1803C40.3199 68.7013 40.5817 68.2186 40.864 67.7135C41.7194 66.2385 43.0776 64.158 44.6199 63.3171C45.3761 62.9047 46.2638 63.0149 46.6316 63.8923C47.0411 64.8695 46.8045 65.7284 46.4353 66.6774C46.9284 66.503 48.3187 66.0501 48.6638 65.7565C49.6107 64.9452 50.0323 63.9528 51.28 63.4997C52.8355 62.9347 53.6288 63.7475 52.7224 65.2106C52.0254 66.3347 50.6306 67.119 49.3298 67.403C49.1272 68.3983 48.9298 69.4069 50.4197 69.1325C52.1262 68.818 54.4636 67.1294 55.4802 65.7145C56.084 64.8743 56.3589 62.6743 57.6306 62.4821C58.0067 62.6341 58.0343 62.9832 57.8855 63.3259C57.2925 64.6897 56.6397 65.9633 56.1628 67.3805C56.8492 66.2711 59.3423 62.1267 60.7322 64.821C60.8876 65.1218 61.0068 65.3784 60.8943 65.7126L60.6345 65.8405C59.9826 65.8012 60.2145 65.1075 59.7077 64.8063C58.5428 64.6669 56.2213 68.3989 55.7624 69.4411C55.6448 69.6583 55.2372 70.4602 55.029 70.526C53.3993 71.0384 54.805 67.7677 55.0232 67.1305C53.6669 68.4456 49.9303 71.6229 48.1482 69.112C47.7393 68.5357 48.1236 67.1996 48.324 66.5729C47.5477 66.8896 46.7444 67.1618 45.9529 67.4391C45.17 68.6176 44.2127 69.8571 42.9451 70.529C41.0276 71.5455 39.8063 70.2347 41.8327 68.8346C42.8041 68.1635 43.7535 67.7652 44.8152 67.2751C45.1777 66.707 45.4849 66.0379 45.6326 65.3786C45.7063 65.0501 45.7654 64.6107 45.5564 64.32C45.4721 64.203 45.3411 64.1234 45.1941 64.113C44.4452 64.0611 43.5367 65.1713 43.1208 65.6882C40.3305 69.1567 38.4102 73.6888 36.7995 77.8024C36.5134 78.5334 35.7102 81.439 35.2781 81.7468C35.1468 81.8401 34.91 81.8789 34.7566 81.8278C34.5856 81.7715 34.4634 81.6698 34.3943 81.5016C33.9543 80.4344 39.1803 68.0665 39.9753 66.2243C38.303 66.9629 37.4003 67.4737 35.8464 68.446C36.3573 70.432 35.8279 71.6157 34.281 73.03C33.3387 73.891 30.4719 74.7411 30.824 72.5192C31.0806 70.902 33.183 69.3743 34.5378 68.4792C34.275 67.8526 33.8679 67.1794 33.53 66.5817C32.1259 67.9798 29.068 70.6732 26.8669 69.905C25.4848 69.422 25.8109 67.3056 26.3728 66.28C26.9884 65.1564 28.0602 63.8788 29.322 63.4108C30.7268 62.9387 31.3135 64.2748 30.5476 65.3464C29.771 66.4321 28.4807 67.1386 27.1951 67.4137C27.0392 68.0382 26.8812 69.2658 27.9011 69.1843C29.8576 69.0283 31.891 67.2549 33.3201 65.9802C33.0576 64.1937 34.3846 62.9829 35.8865 62.3073ZM34.6306 69.2223C33.7587 69.8935 31.0838 71.9565 31.7536 73.2165C33.559 72.7863 34.9778 71.351 34.7497 69.3874C34.74 69.3036 34.6893 69.2653 34.6306 69.2223ZM44.0154 68.2067C43.5942 68.4329 41.3832 69.6053 41.7497 70.0993C42.4468 69.7854 43.6891 68.8822 44.0603 68.2468L44.0154 68.2067ZM29.9206 64.2624C29.2596 64.6325 28.0321 65.6618 27.7361 66.3366L27.8113 66.4313C28.1832 66.1962 30.2651 64.6695 29.9206 64.2624ZM52.0466 64.2546C51.4703 64.5943 50.0031 65.7535 49.8542 66.3727L49.9138 66.4157C50.5169 66.0538 51.8677 65.03 52.1238 64.3766L52.0466 64.2546Z" fill="#4A3523"/>
<path d="M15.7331 53.0047C15.9346 53.0002 16.1146 53.0064 16.3014 53.0916C16.4754 53.1702 16.6168 53.3215 16.6755 53.5047C17.4124 55.8068 12.4958 61.9648 11.0407 63.616C10.3381 64.4132 8.99434 65.439 8.53972 66.3259C7.91352 67.548 7.47384 70.5952 7.95964 71.8435C8.21413 72.4976 8.46577 72.3472 8.98699 72.6023C9.11398 72.6646 9.11106 72.6848 9.14812 72.8123L9.02214 72.9802C8.73527 73.1314 8.39281 73.2049 8.07879 73.1189C5.8657 72.516 6.62321 68.7168 7.00359 67.1912C5.58762 68.4778 1.38997 71.8611 0.0543714 68.9021C-0.0682669 68.0856 0.00188102 67.3643 0.417653 66.4558C0.970972 65.2469 2.99051 62.8335 4.59246 63.3875C5.13672 63.5753 5.19873 64.6357 4.80047 65.1726C4.00183 66.2479 2.79631 67.12 1.44988 67.3797L1.33757 67.4002C0.939168 69.1673 1.49757 69.5244 3.24578 68.9148C4.50598 68.475 6.56316 67.0107 7.31609 65.8894C7.71106 65.3006 8.12355 63.3083 8.58757 62.6267C9.96966 59.7974 12.6641 54.1734 15.7331 53.0047ZM4.0573 64.2595C3.41897 64.6409 2.12492 65.6834 1.86785 66.3611L1.93816 66.4412C2.44008 66.1312 4.08362 64.8791 4.12664 64.3318L4.0573 64.2595ZM15.7175 54.0183C13.2848 55.681 10.4479 61.5407 9.26433 64.2224L9.28484 64.3191L9.36687 64.3015C11.3905 62.099 15.4956 57.198 15.9284 54.2107L15.86 54.0584L15.7175 54.0183Z" fill="#4A3523"/>
<path d="M109.049 53.0026C109.272 52.9966 109.487 52.9907 109.684 53.1129C109.901 53.2478 110.012 53.4583 110.051 53.7067C110.442 56.2104 105.794 62.0221 104.191 63.8287C103.574 64.525 102.657 65.1675 102.152 65.9313C101.405 67.0654 100.986 70.0755 101.247 71.4117C101.508 72.7441 101.971 72.2343 102.458 72.6236C102.529 72.6806 102.504 72.7241 102.503 72.8053C101.951 73.446 100.942 73.0884 100.548 72.4781C99.6118 71.0291 100.102 68.7967 100.399 67.2037C98.8965 68.604 95.2025 71.6617 93.5322 69.0211C93.1183 67.4437 93.9485 65.855 95.0322 64.7174C95.7103 64.0047 97.0892 62.9542 98.1631 63.4947C98.8389 63.8354 98.3996 64.9327 98.0429 65.399C97.3324 66.3267 96.0013 67.1631 94.8554 67.3619L94.751 67.3805C93.8829 71.8405 100.422 66.8131 100.708 65.9342C101.839 62.4728 105.458 54.2307 109.049 53.0026ZM97.4746 64.2574C96.8337 64.6409 95.5421 65.6687 95.2802 66.3531L95.3369 66.4195C95.9524 66.0539 97.2948 65.0447 97.5527 64.3766L97.4746 64.2574ZM109.065 54.0104C106.514 55.7458 103.882 61.3428 102.645 64.1676L102.656 64.3043L102.72 64.2867C104.573 62.2132 108.762 57.3674 109.255 54.2125C109.262 54.1636 109.23 54.1042 109.208 54.0553L109.065 54.0104Z" fill="#4A3523"/>
<path d="M30.5475 53.5144C30.7336 53.5122 30.9862 53.4885 31.1578 53.5671C31.352 53.6569 31.4924 53.8507 31.5445 54.0544C31.9791 55.7481 28.4797 60.3086 27.4449 61.6306C26.6014 62.7082 25.5546 63.8103 24.8463 64.9724C23.9986 66.3641 22.6925 71.3598 23.1246 72.9597C23.2404 73.3876 23.3997 73.5664 23.773 73.78C23.8843 73.8443 23.8789 73.8657 23.9371 73.9753L23.8463 74.0915C23.2765 74.3065 22.4131 74.0042 22.2223 73.4636C21.6397 71.8128 22.1409 69.4952 22.5689 67.8904L22.8004 67.0906C22.0027 68.0606 19.7815 70.6236 18.8219 70.3825C16.163 69.7151 19.6562 64.6183 20.7652 63.9558C22.1934 63.1044 22.9273 62.9383 23.7711 64.1531C24.9198 61.2133 27.5264 54.8411 30.5475 53.5144ZM22.4918 64.2536C21.1615 64.8049 19.118 67.6669 19.1412 69.03L19.2281 69.1843C19.4187 69.2123 19.5323 69.1122 19.7066 69.0115C20.343 68.5687 24.9364 64.5481 22.4918 64.2536ZM30.8111 54.3991C28.5056 56.4646 26.8562 59.74 25.7408 62.5886L25.7887 62.6755C27.0643 61.2151 30.8647 56.4106 30.8795 54.5144L30.8111 54.3991Z" fill="#4A3523"/>
<path d="M98.2742 53.5166C101.711 53.3814 95.0513 61.9169 94.3347 62.6328C91.7728 65.1943 90.7153 69.0973 90.7205 72.6348C90.7219 73.4572 91.4496 73.698 91.5593 73.9775L91.4636 74.1484C91.0171 74.4295 90.1878 74.0037 90.0105 73.6426C89.2135 72.023 89.8203 69.6042 90.2097 67.9395L90.4148 67.1475C89.645 68.0922 88.7677 69.0794 87.7918 69.8105C86.117 71.0653 85.1606 70.0927 85.6501 68.2461C86.1404 66.5049 87.3122 64.6591 88.866 63.6875C89.9028 63.0401 90.7634 63.2145 91.3709 64.2666C91.6601 63.5258 91.9605 62.7905 92.2712 62.0586C93.303 59.6795 95.7256 54.5185 98.2742 53.5166ZM90.0525 64.3398C88.793 64.8886 86.655 67.7679 86.7751 69.0576L86.8699 69.1943C87.0774 69.2217 87.1902 69.1221 87.3777 69.0146C88.0119 68.5712 92.5811 64.529 90.0525 64.3398ZM98.5222 54.4014C96.352 56.0205 94.4714 60.0333 93.4441 62.4717L93.4597 62.5967L93.4949 62.623C94.6885 61.2627 98.6279 56.2679 98.5886 54.4844L98.5222 54.4014Z" fill="#4A3523"/>
<path d="M76.438 62.5506C76.8399 62.5684 76.9614 62.5217 77.1831 62.8641C77.0681 63.3089 76.6477 64.135 76.4399 64.5897C76.032 65.4692 75.663 66.3672 75.3344 67.2801C76.0361 66.1447 77.5858 63.4538 79.2124 64.0223C79.6321 64.1691 80.244 65.2759 80.021 65.7039C79.8014 65.8233 79.8143 65.8212 79.5659 65.7967C79.0118 65.46 79.2227 64.0319 77.9106 65.1932C76.5808 66.3915 75.6638 67.9642 74.8198 69.5281C74.6507 69.8404 73.9369 71.2597 73.4585 70.3475C73.1399 69.7399 73.7713 68.2279 74.0005 67.5643C73.7653 67.806 73.5269 68.0455 73.2866 68.282C72.4907 69.0607 71.3761 70.0238 70.1811 70.0008C69.0315 69.9791 68.9129 68.8145 68.9936 67.9158C69.0373 67.7156 69.08 67.6065 69.0298 67.407C68.6677 67.6473 68.2328 68.2577 67.894 68.5789C67.2787 69.1611 66.3693 70.1726 65.4184 69.9442C64.4096 69.7016 64.5747 68.4284 64.8022 67.6697C65.2616 66.151 66.4267 64.6356 67.8354 63.8807C68.917 63.3016 69.6799 63.4111 70.2212 64.5272C70.42 64.2045 70.9842 63.2213 71.5249 63.4578C72.0607 63.6917 71.4439 64.9078 71.2593 65.283C70.8238 66.1679 69.7896 67.9328 70.1401 68.9168C71.1587 69.8521 73.9994 66.8119 74.5141 65.8953C75.0838 64.8801 75.5086 63.244 76.438 62.5506ZM68.9204 64.6375C68.1034 65.0039 67.5064 65.5367 66.9604 66.2479C66.555 66.7752 65.6117 68.1695 65.812 68.8563L65.9555 68.9266C66.11 68.8695 66.1774 68.8502 66.3237 68.7693C67.0585 68.2627 69.9681 65.6382 69.436 64.7401C69.2356 64.6088 69.1739 64.6323 68.9204 64.6375Z" fill="#4A3523"/>
<path d="M69.0368 53.2195C70.9165 53.1224 69.0247 55.2419 68.5908 55.8886C68.0098 56.7674 67.4582 57.6641 66.937 58.5792C68.698 58.5325 76.0671 57.9956 76.9112 59.3638C76.909 59.6397 76.9542 59.5263 76.7999 59.7265C76.2733 59.5893 75.2297 59.3053 74.7119 59.263C72.0462 59.042 69.0117 59.1547 66.351 59.4299C64.1929 63.485 61.1022 70.21 60.8277 74.7598C60.828 75.1091 60.8594 75.7862 60.9798 76.114C61.0919 76.4196 61.5468 76.6295 61.5497 76.9706C61.447 77.1152 61.4911 77.1174 61.3588 77.1619C61.1364 77.2368 61.0141 77.1323 60.8387 77.0707C60.4416 76.9298 59.9021 76.1726 59.8457 75.7736C59.2816 71.7845 63.0725 62.8598 64.8898 59.5582C63.6907 59.6197 58.7964 60.4956 58.2008 60.1092C58.1049 59.8778 58.1018 59.9861 58.1791 59.7747C58.7908 59.2986 64.2932 58.7846 65.3473 58.6882C66.0868 57.3237 67.8231 54.088 69.0368 53.2195Z" fill="#4A3523"/>
<path d="M138.737 61.3707C140.085 61.2565 139.703 62.2302 138.994 62.848C137.797 62.9533 138.073 61.9595 138.737 61.3707Z" fill="#4A3523"/>
<path d="M108.543 8.70332C113.139 8.44174 117.837 9.31509 121.524 12.2912C127.672 17.256 127.822 27.5662 122.885 33.4143C119.937 36.9061 116.212 38.2815 111.728 38.6623C108.631 38.769 105.571 38.2984 102.46 38.3117C101.681 38.3147 97.5867 38.5167 97.213 38.343L97.1281 38.09C97.3933 36.9937 100.285 38.1384 100.475 35.757C100.555 34.7421 100.551 33.4641 100.55 32.4143L100.543 26.0861L100.539 16.5959C100.539 15.1086 100.569 13.3545 100.526 11.8771C100.444 9.06024 97.6447 10.0284 97.13 9.28926C97.1463 9.02939 97.1477 9.10298 97.3322 8.85566C98.436 8.71462 101.02 8.88648 102.255 8.89473C104.435 8.90917 106.375 8.80954 108.543 8.70332ZM111.336 10.1281C110.678 10.0263 109.689 10.0226 109.008 10.1008C107.213 10.3139 106.06 10.5383 106.006 12.6564C105.969 14.1029 105.979 15.5473 105.98 16.9943L105.984 25.007L105.995 31.0012C105.999 32.2418 105.969 33.5701 106.117 34.7971C106.451 37.5617 110.127 37.4818 112.162 37.1203C113.462 36.8877 114.693 36.3697 115.769 35.6047C118.6 33.4274 119.729 30.4956 120.214 26.9885C121.13 20.3619 119.183 11.3435 111.336 10.1281Z" fill="#4A3523"/>
<path d="M16.7919 8.25313C19.6121 7.89213 24.4052 8.6228 27.0507 9.8144C27.6139 10.1041 27.6076 11.5995 27.6169 12.158C27.633 13.1241 28.2292 17.1947 27.8082 17.8118C27.6435 17.8589 27.3417 17.94 27.2425 17.7863C26.9915 17.3972 26.7336 16.6799 26.523 16.247C25.4784 14.1356 23.7131 11.9176 21.5858 10.8466C16.391 8.23143 9.96288 10.1467 7.33865 15.4349C5.41594 19.3096 5.19959 23.7541 6.49563 27.7927C6.47992 24.7167 6.55638 21.3898 8.82963 18.9156C9.39718 18.2979 11.0393 17.307 11.8703 17.3043C12.0212 17.399 12.065 17.4041 12.1337 17.5839C12.3289 18.0953 12.2914 18.8416 12.2875 19.3427C12.2577 23.1727 9.51447 21.7643 8.49925 24.7108C7.67237 27.3789 8.36706 29.7301 9.42318 32.2077C11.3539 36.737 16.8789 38.901 21.4192 37.2171C22.2381 36.9134 22.6702 36.1036 22.9406 35.2896C23.2243 34.1016 23.4253 31.6637 23.1572 30.4475C22.541 27.6526 18.6778 28.6512 17.0126 26.4424C15.6794 24.6741 15.6645 23.7284 15.7699 21.5975C16.3881 22.2175 17.2165 23.0872 17.9869 23.4594C20.6053 24.7244 24.2646 24.0885 26.6665 25.9823C29.0268 27.8888 28.5071 31.2648 28.4765 33.9405C28.4704 34.4821 29.0275 36.8852 28.5591 37.143C26.3145 38.3765 22.7718 38.7691 20.2825 38.9854C14.8192 39.4603 9.15815 38.5987 4.89929 34.9084C2.03233 32.3799 0.287093 28.8164 0.0472915 25.0016C-0.271804 20.9856 1.03355 17.0093 3.67099 13.9635C6.99731 10.1567 11.8802 8.57465 16.7919 8.25313Z" fill="#4A3523"/>
<path d="M48.0305 8.29004C48.3158 8.2685 48.9824 8.29099 49.1115 8.51953C49.8513 9.83781 50.6828 11.6335 51.3205 12.959L57.3078 25.4824L59.7111 30.5332C60.5998 32.3957 61.5351 34.5778 62.8615 36.1689C63.8772 37.3874 64.4074 37.1963 65.6184 37.7363C65.6396 38.0349 65.6537 38.0838 65.5842 38.3682C65.3112 38.5081 59.5266 38.2537 58.6379 38.3115C57.9164 38.3582 54.2108 38.499 53.6184 38.3672C53.4925 38.1168 53.4965 38.2057 53.5139 37.9531C53.7991 37.5031 54.7071 37.5426 55.215 37.3359C55.8196 37.09 56.3134 36.6045 56.0939 35.9209C55.6556 34.5569 54.9937 33.2586 54.3811 31.9707C53.4496 30.0264 52.5292 28.0761 51.6203 26.1211C50.3204 26.0973 48.9599 26.1157 47.6555 26.1152L41.8254 26.1211C40.8756 28.3737 39.6851 30.7513 38.9445 33.0566C38.2679 35.1631 39.4511 37.3841 41.7668 37.4834C41.973 37.4923 42.7312 37.5953 42.8938 37.7227C42.9507 38.0201 42.9505 38.0573 42.885 38.3525C42.6763 38.5347 37.8197 38.3388 37.2697 38.3076C36.4447 38.2609 32.0527 38.5643 31.6486 38.3213C31.417 37.7593 32.007 37.5251 32.4348 37.4443C34.4575 37.0606 35.5856 35.3879 36.4816 33.6084C37.6294 31.329 38.6815 28.8623 39.7424 26.4922L44.9777 14.8223C45.6142 13.3952 46.2601 11.9722 46.9152 10.5537C47.163 10.0135 47.7148 8.73008 48.0305 8.29004ZM46.5852 15.2275C45.3472 18.3049 43.8516 21.5532 42.507 24.6055L46.9143 24.584L50.9152 24.5918L47.8557 18.0303C47.6139 17.5054 46.8114 15.5904 46.5852 15.2275Z" fill="#4A3523"/>
<path d="M64.6394 8.79181C66.7142 8.80514 68.9731 8.8876 71.0496 8.891C72.0417 8.89263 76.3295 8.73439 76.8252 8.85966L76.897 8.98768C76.8978 9.07339 76.9252 9.26882 76.9 9.34193C76.7689 9.71968 74.7424 9.57914 73.9659 10.4755C73.6221 10.8722 73.5473 11.3362 73.4917 11.8381C73.2443 14.0714 73.4184 17.0098 73.4199 19.306C73.4213 22.1686 73.2732 25.4634 73.4643 28.2738C73.6333 30.7519 74.349 33.2075 76.2991 34.8816C78.0025 36.3444 80.3824 36.8815 82.5844 36.6896C84.536 36.5199 86.2165 35.6891 87.479 34.1802C88.4059 33.0726 88.9742 31.7086 89.2602 30.3012C89.5906 28.676 89.5529 27.0057 89.5529 25.3559L89.5506 20.6703C89.5521 19.9119 89.5914 19.0487 89.5558 18.2973C89.4232 15.5302 90.3019 10.6375 86.6573 9.83465C86.2387 9.74242 85.5881 9.61641 85.2762 9.35861C85.1784 9.09858 85.2081 9.18081 85.2518 8.875C85.8186 8.74373 89.2676 8.85574 90.0834 8.8713C90.8725 8.88211 95.1091 8.75247 95.5062 8.85411C95.6018 9.09117 95.61 9.10013 95.5596 9.34216C95.2447 9.78553 94.2792 9.71375 93.7198 9.97207C91.1007 11.182 91.4207 14.9571 91.4215 17.3698L91.4259 23.9211C91.4244 26.8876 91.6171 30.07 90.5183 32.8656C89.578 35.2691 87.7116 37.1948 85.3384 38.2097C81.3463 39.9217 75.207 39.2291 71.8061 36.451C67.663 33.0666 68.0047 28.4941 68.008 23.7566L68.0124 15.0071C68.0117 13.913 68.1261 11.6642 67.7292 10.7058C67.1968 9.42031 65.5762 9.88688 64.7168 9.55811C64.5881 9.3352 64.632 9.06332 64.6394 8.79181Z" fill="#4A3523"/>
<path d="M129.746 8.80885C131.299 8.66499 134.043 8.93412 135.75 8.88975C137.641 8.90516 139.533 8.77737 141.425 8.80278C141.819 8.80804 142.131 8.90227 141.985 9.37706C141.363 9.99712 139.243 9.3309 138.809 10.9491C138.296 12.8558 138.459 15.1948 138.459 17.1857L138.461 23.9743L138.459 30.8162C138.457 32.1474 138.436 33.4877 138.484 34.8166C138.516 35.71 138.685 36.9229 139.632 37.3052C140.427 37.626 141.152 37.3622 141.96 37.6963C142.085 37.8845 142.037 38.2016 142.029 38.4446C139.895 38.4712 137.621 38.2897 135.425 38.3053C134.159 38.3253 132.893 38.3549 131.628 38.3942C131.216 38.4053 130.174 38.4579 129.819 38.4023C129.652 38.2246 129.642 38.2357 129.602 38.0053C129.944 37.1659 131.872 37.8756 132.545 36.7748C132.858 36.2629 133.025 35.8814 133.048 35.2226C133.101 33.7303 133.071 32.181 133.065 30.6896V22.787V15.6464C133.065 14.2538 133.118 12.6303 132.938 11.2594C132.685 9.32187 130.445 9.93171 129.802 9.46381C129.665 9.25386 129.721 9.07169 129.746 8.80885Z" fill="#4A3523"/>
<path d="M137.964 0C138.648 0.0779336 141.556 1.38732 141.962 1.80811C142.061 2.08021 142.044 1.96864 141.977 2.27163C141.551 2.61033 135.706 4.49414 134.66 4.85603C133.999 5.09324 131.996 6.00889 131.464 5.65737C131.38 5.41431 131.383 5.53262 131.446 5.29015C131.889 4.83581 133.233 3.93594 133.84 3.46857C135.052 2.53588 136.697 0.619172 137.964 0Z" fill="#4A3523"/>
</svg>
