<svg width="229" height="40" viewBox="0 0 229 40" fill="none" xmlns="http://www.w3.org/2000/svg">
<g clip-path="url(#clip0_9_517)">
<path d="M228.75 0.25V39.75H13.8999C14.0495 34.7261 13.9053 29.1894 13.9194 24.1416C13.9418 16.2162 13.9853 8.17546 13.8979 0.25H228.75Z" stroke="black" stroke-width="0.5"/>
<path d="M108.527 5.63781C114.514 5.41519 118.855 9.01687 119.316 14.9888C119.537 16.5722 119.385 18.2254 119.461 19.7984C119.8 26.7989 118.172 33.0092 110.001 33.8345C107.027 33.9303 104.592 33.3967 102.278 31.4292C98.5877 28.2913 98.9389 23.4544 98.9274 19.0816C98.9328 15.5416 98.8735 11.7266 101.394 8.91115C103.352 6.72356 105.659 5.82106 108.527 5.63781Z" fill="black"/>
<path d="M108.931 10.5399C113.874 10.2672 114.095 15.3957 113.946 19.0246C113.772 23.3098 114.918 27.869 109.522 29.0017C103.33 29.2752 104.526 21.8728 104.438 17.8237C104.36 14.2338 104.704 11.0242 108.931 10.5399Z" fill="white"/>
<path d="M52.6368 5.63692C58.1867 5.38428 63.1459 8.83243 63.4869 14.5812C63.6858 17.9325 63.9876 23.5043 63.1587 26.69C62.8315 27.9954 62.2258 29.2146 61.3831 30.2643C59.4517 32.667 57.1808 33.518 54.2354 33.8356C51.3746 33.9649 48.7326 33.3619 46.5122 31.4785C42.8252 28.3526 43.2056 23.6549 43.1529 19.3572C43.0949 14.6416 43.1628 9.97939 47.6706 7.15375C49.2875 6.14017 50.7444 5.77423 52.6368 5.63692Z" fill="black"/>
<path d="M53.003 10.5391C58.0488 10.2043 58.3156 15.2303 58.1724 18.9649C58.0115 23.1594 59.1039 27.813 53.8814 28.9859C47.6847 29.4091 48.6705 22.1341 48.6293 18.0232C48.5942 14.5085 48.8159 11.1157 53.003 10.5391Z" fill="white"/>
<path d="M191.372 5.80338L196.78 5.81264L196.788 33.6729L191.315 33.7016C191.347 31.63 191.329 29.5061 191.333 27.4301L191.379 17.5001C189.574 20.5683 187.879 24.7356 186.044 27.9973C184.958 27.9507 183.527 28.0164 182.416 28.0375C181.846 27.0936 180.977 25.2387 180.466 24.215C179.326 21.94 178.199 19.6583 177.086 17.3703L177.117 33.6793C175.299 33.6719 173.481 33.6782 171.663 33.6982L171.692 5.80472L177.021 5.8136C179.545 10.5106 181.816 16.0443 184.267 20.8721C186.546 15.7934 189.123 10.8325 191.372 5.80338Z" fill="black"/>
<path d="M123.745 5.80841C127.426 5.85979 135.158 5.3235 138.343 6.53761C140.341 7.2996 141.976 8.6913 142.856 10.6583C143.761 12.6833 143.883 15.2466 143.08 17.3237C142.238 19.5032 140.617 20.7472 138.547 21.6639C140.125 24.4804 141.539 27.422 143.049 30.278C143.634 31.3852 144.207 32.5389 144.714 33.6826C142.624 33.6693 140.501 33.6979 138.407 33.7071C138.023 32.6875 137.071 30.8556 136.57 29.8252C135.387 27.4183 134.222 25.0023 133.076 22.5774L129.217 22.5914L129.201 33.6757C127.467 33.6371 125.525 33.6894 123.777 33.7011C123.782 24.5351 123.937 14.9291 123.745 5.80841Z" fill="black"/>
<path d="M129.202 10.7306C131.08 10.7044 134.181 10.4632 135.852 11.0445C138.537 11.9773 138.817 15.0656 137.03 16.9996C134.988 18.4462 131.743 18.0467 129.193 18.0229C129.153 15.6365 129.198 13.127 129.202 10.7306Z" fill="white"/>
<path d="M20.8062 5.81005C23.1275 5.8215 25.4488 5.82103 27.7701 5.80864C31.5211 5.80302 35.3885 5.50655 38.3073 8.39209C41.5727 11.634 41.5586 17.4268 38.2701 20.6569C35.875 23.0094 33.3412 23.1899 30.1994 23.1884L26.2861 23.1987L26.2911 33.6919C24.4719 33.6759 22.6527 33.6822 20.8337 33.7107L20.8062 5.81005Z" fill="black"/>
<path d="M26.3037 10.7194C29.783 10.6789 35.6614 9.77679 35.2578 14.9831C35.1934 15.8126 34.7429 16.55 34.2303 17.1733C32.5542 18.6727 28.6517 18.235 26.2927 18.2211L26.3037 10.7194Z" fill="white"/>
<path d="M209.083 5.78369C210.375 5.86034 211.984 5.81327 213.299 5.80769C214.485 8.54018 215.993 13.073 217.046 15.966L223.496 33.6784C221.598 33.6664 219.699 33.6814 217.8 33.7234L216.131 28.7187L213.401 28.7267L206.37 28.7306C205.814 30.3651 205.257 32.0817 204.636 33.687C202.759 33.6727 200.843 33.6996 198.963 33.7071C202.203 24.4468 205.687 14.9954 209.083 5.78369Z" fill="black"/>
<path d="M211.271 14.2665C211.512 14.461 214.336 23.0634 214.685 24.0525L211.277 24.0569L207.853 24.0671C209.063 20.8765 210.173 17.5049 211.271 14.2665Z" fill="white"/>
<path d="M155.048 5.79422C156.436 5.82339 157.901 5.80343 159.295 5.8075C160.669 9.18321 162.046 13.27 163.311 16.7484L169.475 33.6659L163.779 33.7076C163.262 32.0596 162.646 30.3546 162.083 28.7159L159.427 28.7269L152.384 28.7253C151.795 30.2084 151.174 32.1511 150.636 33.6866L145.037 33.6853C146.016 30.5085 147.256 27.4167 148.341 24.2792C150.477 18.1007 152.948 11.9782 155.048 5.79422Z" fill="black"/>
<path d="M157.25 14.261C157.491 14.4113 160.368 23.1752 160.663 24.0374L157.548 24.0584L153.853 24.079C154.914 21.4377 156.395 17.0017 157.25 14.261Z" fill="white"/>
<path d="M67.9319 5.80719L73.4505 5.81945L73.4629 28.7407L85.9911 28.7172L85.9946 33.6698C80.0211 33.6471 73.9016 33.6281 67.9338 33.7057L67.9319 5.80719Z" fill="black"/>
<path d="M89.1396 5.80521L94.6582 5.82296L94.6312 33.6712C92.8038 33.6629 90.9762 33.6752 89.1492 33.7082L89.1396 5.80521Z" fill="black"/>
<path d="M3.3656 29.3085C3.80821 29.622 3.71927 30.2011 3.98458 30.8923C4.52787 32.3077 5.47793 34.4566 6.32525 35.6465C7.79309 35.3467 10.5398 35.5535 11.7076 33.9981C11.7838 33.8964 11.505 33.2591 11.4458 33.1074L11.5532 33.0194C12.1297 33.0884 12.3968 33.0579 12.6965 33.5932C12.8649 35.4409 9.47094 36.6401 8.021 36.8055C7.5863 36.8335 7.0332 36.8307 6.58789 36.8414C6.64153 37.6376 6.78009 39.587 5.67651 39.6912C5.20628 39.3552 4.99189 37.542 4.66834 36.6709C3.92968 36.4317 0.685786 35.5067 0.617798 34.6703C1.22054 34.3966 3.5082 35.1956 4.2206 35.406C3.92268 33.7169 2.7283 30.9246 3.3656 29.3085Z" fill="black"/>
<path d="M10.1922 19.352C10.3345 19.3781 10.4693 19.4133 10.5944 19.4884C12.0652 20.3713 12.9395 21.2428 11.8311 22.9488C11.6151 23.2815 11.1545 23.6872 10.9887 23.9821C11.2665 24.079 12.3485 24.4209 12.4399 24.6627C13.4824 27.4237 8.91059 25.8365 7.95752 25.4809C7.10956 25.0603 4.28002 23.7158 4.70494 22.6208C5.94518 21.564 9.68938 23.1768 11.1026 21.9399C11.2544 21.1648 10.1431 20.3161 10.1901 19.3894L10.1922 19.352ZM10.9915 24.9275L10.9423 24.7444C10.3208 24.5227 8.43745 23.8567 7.82864 23.8174L7.79516 23.984C8.63411 24.4686 10.011 25.0549 10.9915 24.9275Z" fill="black"/>
<path d="M7.82889 23.8174C8.43769 23.8567 10.3211 24.5227 10.9425 24.7444L10.9917 24.9275C10.0112 25.0549 8.63436 24.4686 7.79541 23.984L7.82889 23.8174Z" fill="black"/>
<path d="M9.60911 0.743713C9.70964 0.77249 9.98629 0.868053 10.0445 0.944514C15.8741 8.59893 9.96457 8.82798 4.6388 4.21598C4.18683 3.87893 4.0792 3.20448 4.29046 2.70016C6.10644 1.20293 8.55212 5.79522 11.0173 6.01532C11.9606 5.58209 9.11049 1.95381 9.60911 0.743713ZM7.09196 4.799C6.9232 3.96233 6.5591 3.81389 5.71214 3.76778C6.13312 4.28248 6.42179 4.59344 7.09196 4.799Z" fill="black"/>
<path d="M5.10035 7.12708C6.29278 7.23112 5.9745 7.86887 6.63018 8.68521C8.28885 10.7503 10.4043 10.5218 12.7005 10.9859C12.3532 11.4245 11.8589 11.9576 11.4821 12.3884L10.3151 12.3181C10.1557 12.3156 9.99646 12.3117 9.8372 12.3062C8.88976 12.28 5.67986 12.135 4.86589 11.5063C4.72087 11.3944 4.76375 11.2555 4.77281 11.0831C5.37568 10.2032 5.93778 10.5099 6.8417 10.7407C6.06206 9.71838 4.01207 8.38923 5.10035 7.12708Z" fill="black"/>
<path d="M10.3372 26.9421C11.5378 27.0898 12.9349 30.1223 12.0281 31.2605C11.1006 32.4244 10.0029 32.3063 8.72003 32.5884C7.71612 32.094 6.84547 31.8092 5.87064 31.1792C5.22241 30.6161 4.87264 30.3058 5.09876 29.3804C6.38505 27.8596 12.7271 34.6082 10.728 28.401C10.5787 27.9376 10.4558 27.4168 10.3372 26.9421Z" fill="black"/>
<path d="M4.7008 13.3748C4.76676 13.4129 4.84543 13.4585 4.9368 13.5113C5.34054 14.5151 5.84015 15.91 6.32354 16.8227C8.26464 16.7712 10.5853 16.7111 12.1729 15.4962C11.5717 14.7229 10.9748 14.2224 10.2492 13.5732C11.2414 13.6167 11.9072 13.5701 12.6368 14.3455C13.318 15.0698 13.2999 16.293 12.5116 16.9023C11.1147 17.9818 8.27751 18.1041 6.5817 18.2194C6.61265 18.876 6.83618 20.0047 6.01724 20.155C5.23556 19.7698 5.1961 18.8566 5.06216 18.0842C3.22235 17.9064 1.55828 17.1562 0 16.2006V15.8571C2.15154 16.2428 2.4783 16.4671 4.89872 16.6669C4.85959 16.3047 4.76835 15.8953 4.69707 15.534C4.66468 14.766 4.6292 14.1472 4.7008 13.3748Z" fill="black"/>
<path d="M4.69705 15.534C4.59493 15.5252 4.51761 15.4616 4.42847 15.4048C4.34037 14.8686 4.17168 13.8974 4.43956 13.4023L4.70078 13.3748C4.62918 14.1472 4.66466 14.766 4.69705 15.534Z" fill="black"/>
</g>
<defs>
<clipPath id="clip0_9_517">
<rect width="229" height="40" fill="white"/>
</clipPath>
</defs>
</svg>
