<svg width="142" height="31" viewBox="0 0 142 31" fill="none" xmlns="http://www.w3.org/2000/svg">
<path d="M128.682 10.1932C129.094 10.3008 129.157 10.3319 129.314 10.701C129.298 11.2773 128.031 13.9913 127.72 14.7225C128.231 14.0454 130.93 10.6581 132.125 11.4833C133.137 12.4511 131.734 14.7439 132.332 15.6991C132.92 16.6404 135.665 13.6504 136 13.161C136.471 12.4743 136.663 11.6902 137.308 11.1259C137.522 10.9399 137.64 10.9037 137.906 10.9296C138.149 11.0586 138.152 11.0772 138.303 11.3182C138.219 12.3987 135.982 15.1387 136.538 16.2772C137.965 17.1605 141.254 12.8189 141.996 12.8026L141.999 12.9598C141.455 14.1026 139.738 15.6544 138.685 16.3983C136.677 17.817 134.817 17.736 135.468 14.7235C133.499 16.8838 130.45 18.0711 131.21 13.7089C131.291 13.2425 131.375 12.7443 131.403 12.2714L131.409 12.1678L131.358 12.1952C129.282 13.3483 128.06 15.7068 126.621 17.5096C126.47 17.6972 126.298 17.7033 126.082 17.6981C125.183 17.1835 126.255 15.0252 126.554 14.2352C125.129 15.5487 121.767 18.4322 119.882 16.2411C119.474 15.7657 119.704 14.5903 119.832 14.0282C119.039 14.6623 117.68 15.547 117.008 16.2196C116.555 16.6736 115.811 18.7469 115.488 19.4833C115.107 20.3479 114.708 21.2036 114.289 22.0497C112.927 24.7135 110.864 28.179 108.249 29.8358C107.599 30.2482 106.63 30.5721 105.871 30.3407C105.535 30.2383 105.096 29.9214 105.004 29.6366C104.199 26.1727 109.884 21.2188 112.202 19.2489C115.712 16.2639 115.322 17.173 116.654 12.8553C115.679 14.0842 114.626 15.2626 113.403 16.2675C112.145 17.3005 110.699 17.2034 111.106 15.201C111.435 13.5874 112.833 11.8847 114.15 10.9452C115.145 10.2355 116.11 10.0218 116.832 11.2098C117.087 10.7494 117.196 10.3649 117.775 10.4198C118.612 11.1013 117.407 14.4609 117.098 15.3798C118.021 14.6219 119.206 13.8502 120.046 13.1376C121.176 12.0474 121.683 10.8392 123.316 10.3749C124.769 9.96109 125.019 11.3071 124.339 12.2889C123.584 13.3798 122.302 14.1397 120.996 14.3993C120.98 14.4689 120.964 14.5396 120.95 14.6093C120.123 18.5865 126.46 13.9587 127.122 12.8671C127.691 11.929 127.729 10.923 128.609 10.2489L128.682 10.1932ZM114.699 17.9344C113.085 19.2769 103.848 26.8982 105.894 29.4901C109.01 29.7674 112.882 22.3008 113.95 19.8944C114.126 19.4969 114.695 18.3744 114.752 17.993L114.699 17.9344ZM115.814 11.4091C114.342 11.9097 112.349 14.1994 112.257 15.7108L112.323 15.8719C112.544 15.8927 112.508 15.8664 112.743 15.7626C113.625 15.1358 116.225 12.5615 116.44 11.7421C116.275 11.4866 116.119 11.4335 115.814 11.4091ZM123.738 11.2606C123.022 11.6634 121.852 12.6053 121.502 13.3475L121.517 13.4569C122.168 13.1415 123.413 12.0979 123.749 11.4462L123.738 11.2606Z" fill="white"/>
<path d="M35.8871 9.30699C38.0087 8.35334 38.8562 10.8307 37.308 11.1781C36.4321 10.986 37.1604 10.5757 37.1097 10.0677L36.931 9.97106C36.1189 9.97358 34.8938 10.9475 34.68 11.763C34.3903 12.8695 35.0743 13.8886 35.5599 14.8148C37.3138 13.7486 38.4533 13.2514 40.3197 12.4476C40.5271 12.0361 40.6906 11.6189 40.9144 11.1859C41.2463 10.5437 41.6315 9.27315 42.5648 9.42809C42.7496 9.45849 42.741 9.51515 42.8295 9.66051C42.8279 10.1377 41.039 13.885 40.7025 14.6517C40.4371 15.133 40.2152 15.6743 39.9945 16.18C40.3205 15.701 40.5823 15.2183 40.8646 14.7132C41.72 13.2382 43.0782 11.1577 44.6205 10.3168C45.3767 9.90442 46.2644 10.0146 46.6322 10.892C47.0417 11.8692 46.8051 12.7281 46.4359 13.6771C46.929 13.5027 48.3193 13.0498 48.6644 12.7562C49.6113 11.9449 50.0329 10.9525 51.2806 10.4994C52.8362 9.93438 53.6294 10.7472 52.723 12.2103C52.026 13.3344 50.6313 14.1187 49.3304 14.4027C49.1279 15.3979 48.9304 16.4066 50.4203 16.1322C52.1268 15.8177 54.4642 14.1291 55.4808 12.7142C56.0846 11.874 56.3595 9.674 57.6312 9.4818C58.0073 9.63383 58.035 9.98292 57.8861 10.3255C57.2932 11.6894 56.6403 12.963 56.1634 14.3802C56.8498 13.2708 59.3429 9.12637 60.7328 11.8207C60.8882 12.1215 61.0074 12.3781 60.8949 12.7123L60.6351 12.8402C59.9832 12.8009 60.2152 12.1072 59.7084 11.806C58.5434 11.6666 56.2219 15.3986 55.763 16.4408C55.6455 16.658 55.2378 17.4599 55.0296 17.5257C53.3999 18.0381 54.8056 14.7674 55.0238 14.1302C53.6675 15.4453 49.9309 18.6226 48.1488 16.1117C47.7399 15.5354 48.1242 14.1993 48.3246 13.5726C47.5484 13.8893 46.745 14.1615 45.9535 14.4388C45.1706 15.6173 44.2134 16.8568 42.9457 17.5287C41.0282 18.5452 39.8069 17.2344 41.8334 15.8343C42.8047 15.1632 43.7541 14.7649 44.8158 14.2748C45.1783 13.7067 45.4855 13.0376 45.6332 12.3783C45.7069 12.0498 45.766 11.6104 45.557 11.3197C45.4727 11.2027 45.3417 11.1231 45.1947 11.1127C44.4458 11.0607 43.5373 12.1709 43.1214 12.6879C40.3311 16.1564 38.4109 20.6885 36.8002 24.8021C36.514 25.5331 35.7108 28.4387 35.2787 28.7464C35.1474 28.8398 34.9107 28.8786 34.7572 28.8275C34.5862 28.7712 34.464 28.6695 34.3949 28.5013C33.955 27.4341 39.1809 15.0662 39.9759 13.224C38.3037 13.9626 37.4009 14.4734 35.847 15.4457C36.3579 17.4316 35.8285 18.6154 34.2816 20.0297C33.3393 20.8907 30.4725 21.7408 30.8246 19.5189C31.0812 17.9017 33.1836 16.374 34.5384 15.4789C34.2756 14.8523 33.8685 14.1791 33.5306 13.5814C32.1265 14.9795 29.0686 17.6729 26.8675 16.9047C25.4854 16.4217 25.8115 14.3053 26.3734 13.2797C26.989 12.1561 28.0608 10.8785 29.3226 10.4105C30.7274 9.93841 31.3141 11.2745 30.5482 12.3461C29.7716 13.4318 28.4813 14.1383 27.1957 14.4134C27.0398 15.0379 26.8818 16.2655 27.9017 16.1839C29.8582 16.028 31.8917 14.2546 33.3207 12.9798C33.0582 11.1934 34.3853 9.98264 35.8871 9.30699ZM34.6312 16.222C33.7593 16.8932 31.0845 18.9561 31.7543 20.2162C33.5596 19.786 34.9784 18.3507 34.7503 16.3871C34.7406 16.3033 34.6899 16.265 34.6312 16.222ZM44.016 15.2064C43.5948 15.4326 41.3838 16.605 41.7503 17.099C42.4474 16.7851 43.6897 15.8819 44.0609 15.2464L44.016 15.2064ZM29.9212 11.2621C29.2603 11.6322 28.0327 12.6615 27.7367 13.3363L27.8119 13.431C28.1838 13.1959 30.2657 11.6692 29.9212 11.2621ZM52.0472 11.2543C51.471 11.594 50.0037 12.7532 49.8548 13.3724L49.9144 13.4154C50.5175 13.0535 51.8683 12.0297 52.1244 11.3763L52.0472 11.2543Z" fill="white"/>
<path d="M15.734 0.00428829C15.9355 -0.000143106 16.1156 0.00597466 16.3024 0.0912024C16.4763 0.169817 16.6177 0.321118 16.6764 0.504288C17.4134 2.80656 12.4955 8.9648 11.0407 10.6156C10.3382 11.4128 8.99538 12.4387 8.54067 13.3256C7.91446 14.5477 7.47475 17.5949 7.96059 18.8432C8.21508 19.4973 8.46672 19.3468 8.98793 19.6019C9.11468 19.6641 9.11202 19.6845 9.14907 19.8119L9.02309 19.9799C8.73614 20.1311 8.3929 20.2055 8.07875 20.1195C5.86608 19.5164 6.62319 15.7164 7.00356 14.1908C5.58731 15.4777 1.38972 18.8611 0.0543409 15.9017C-0.0682974 15.0852 0.0018505 14.3639 0.417622 13.4555C0.970788 12.2467 2.99046 9.83358 4.59243 10.3871C5.13701 10.5747 5.19896 11.6353 4.80043 12.1723C4.00174 13.2476 2.79641 14.1197 1.44985 14.3793L1.33754 14.3998C0.939205 16.1667 1.49798 16.5238 3.24575 15.9144C4.50586 15.4747 6.563 14.0104 7.31606 12.8891C7.71103 12.3002 8.12449 10.3079 8.58852 9.62636C9.97064 6.79698 12.6651 1.17303 15.734 0.00428829ZM4.05825 11.2592C3.42004 11.6404 2.12597 12.6829 1.86879 13.3607L1.93911 13.4408C2.44103 13.1308 4.08456 11.8787 4.12758 11.3314L4.05825 11.2592ZM15.7174 1.01796C13.2848 2.68078 10.4479 8.54041 9.2643 11.2221L9.28579 11.3187L9.36684 11.3012C11.3904 9.09865 15.4956 4.19762 15.9284 1.21034L15.861 1.058L15.7174 1.01796Z" fill="white"/>
<path d="M109.049 0.00265233C109.273 -0.00327559 109.488 -0.0100324 109.684 0.112027C109.902 0.247004 110.013 0.45834 110.051 0.706754C110.443 3.21052 105.794 9.02115 104.192 10.8278C103.575 11.5242 102.657 12.1666 102.153 12.9304C101.405 14.0642 100.987 17.0743 101.248 18.4109C101.509 19.7434 101.971 19.2336 102.459 19.6228C102.53 19.6798 102.504 19.7239 102.504 19.8054C101.952 20.4461 100.942 20.0876 100.548 19.4773C99.6127 18.0281 100.103 15.7957 100.4 14.2028C98.8974 15.603 95.2034 18.6614 93.5329 16.0212C93.119 14.4438 93.9492 12.8551 95.0329 11.7175C95.7109 11.0048 97.0898 9.95424 98.1637 10.4948C98.8393 10.8356 98.4003 11.9328 98.0436 12.3991C97.333 13.3267 96.0019 14.1632 94.8561 14.362L94.7516 14.3796C93.8831 18.8401 100.421 13.8135 100.708 12.9343C101.838 9.47321 105.459 1.23097 109.049 0.00265233ZM97.4752 11.2566C96.8345 11.6399 95.5429 12.6677 95.2809 13.3523L95.3375 13.4187C95.9533 13.0529 97.2957 12.0437 97.5534 11.3757L97.4752 11.2566ZM109.066 1.01046C106.515 2.74582 103.883 8.34185 102.645 11.1667L102.657 11.3044L102.72 11.2868C104.574 9.21333 108.762 4.36746 109.256 1.21261C109.263 1.1638 109.231 1.10425 109.209 1.05539L109.066 1.01046Z" fill="white"/>
<path d="M30.5481 0.514077C30.7342 0.511852 30.9868 0.4882 31.1584 0.566811C31.3526 0.656621 31.493 0.850416 31.5451 1.05412C31.9797 2.74782 28.4803 7.30825 27.4455 8.63029C26.602 9.70786 25.5552 10.81 24.8469 11.9721C23.9992 13.3638 22.6931 18.3595 23.1252 19.9594C23.241 20.3873 23.4003 20.5661 23.7736 20.7797C23.8849 20.844 23.8795 20.8654 23.9377 20.975L23.8469 21.0912C23.2771 21.3062 22.4137 21.0039 22.2229 20.4633C21.6403 18.8125 22.1415 16.4949 22.5695 14.8901L22.801 14.0902C22.0033 15.0603 19.7821 17.6233 18.8225 17.3822C16.1636 16.7148 19.6568 11.6179 20.7658 10.9555C22.194 10.1041 22.9279 9.93798 23.7717 11.1527C24.9204 8.21297 27.527 1.84083 30.5481 0.514077ZM22.4924 11.2533C21.1621 11.8046 19.1186 14.6666 19.1418 16.0297L19.2287 16.184C19.4193 16.212 19.5329 16.1119 19.7072 16.0111C20.3436 15.5684 24.937 11.5478 22.4924 11.2533ZM30.8117 1.39884C28.5062 3.46425 26.8568 6.73974 25.7414 9.5883L25.7893 9.67521C27.0649 8.21481 30.8653 3.41034 30.8801 1.51408L30.8117 1.39884Z" fill="white"/>
<path d="M98.2746 0.515692C101.712 0.380292 95.0509 8.91797 94.3352 9.63288C91.7733 12.1944 90.7157 16.0974 90.7209 19.6348C90.7224 20.4573 91.45 20.698 91.5598 20.9776L91.4641 21.1485C91.0176 21.4295 90.1894 21.0038 90.0119 20.6426C89.2146 19.023 89.8208 16.6035 90.2102 14.9385L90.4162 14.1466C89.6463 15.0913 88.7683 16.0784 87.7922 16.8096C86.1175 18.0644 85.1612 17.0926 85.6506 15.2462C86.1409 13.5048 87.3135 11.6591 88.8674 10.6876C89.9043 10.0402 90.7648 10.2143 91.3723 11.2667C91.6616 10.5258 91.9609 9.78966 92.2717 9.05768C93.3035 6.6785 95.7261 1.5176 98.2746 0.515692ZM90.0529 11.3399C88.7935 11.8889 86.6554 14.7681 86.7756 16.0577L86.8703 16.1934C87.078 16.2209 87.1905 16.1213 87.3781 16.0137C88.0126 15.57 92.5814 11.529 90.0529 11.3399ZM98.5227 1.40046C96.3525 3.01941 94.4719 7.03234 93.4445 9.47077L93.4602 9.59577L93.4953 9.62311C94.6888 8.26299 98.6293 3.26805 98.5901 1.48444L98.5227 1.40046Z" fill="white"/>
<path d="M76.4386 9.55035C76.8405 9.56815 76.962 9.5215 77.1837 9.86383C77.0688 10.3087 76.6483 11.1347 76.4405 11.5894C76.0326 12.469 75.6636 13.3669 75.3351 14.2798C76.0367 13.1445 77.5865 10.4536 79.213 11.022C79.6328 11.1689 80.2446 12.2756 80.0216 12.7037C79.802 12.8231 79.8149 12.8209 79.5665 12.7964C79.0124 12.4598 79.2233 11.0316 77.9112 12.1929C76.5814 13.3913 75.6645 14.9639 74.8204 16.5279C74.6513 16.8401 73.9375 18.2594 73.4591 17.3472C73.1405 16.7396 73.7719 15.2277 74.0011 14.564C73.7659 14.8058 73.5275 15.0452 73.2872 15.2818C72.4913 16.0605 71.3767 17.0235 70.1817 17.0005C69.0321 16.9788 68.9135 15.8143 68.9942 14.9156C69.0379 14.7154 69.0806 14.6063 69.0304 14.4068C68.6684 14.647 68.2334 15.2575 67.8946 15.5787C67.2794 16.1608 66.3699 17.1723 65.419 16.9439C64.4102 16.7014 64.5753 15.4282 64.8028 14.6695C65.2622 13.1507 66.4273 11.6354 67.836 10.8804C68.9176 10.3014 69.6805 10.4109 70.2218 11.5269C70.4206 11.2043 70.9848 10.221 71.5255 10.4576C72.0613 10.6914 71.4445 11.9076 71.2599 12.2828C70.8244 13.1676 69.7902 14.9325 70.1407 15.9166C71.1593 16.8518 74 13.8117 74.5147 12.8951C75.0844 11.8798 75.5092 10.2438 76.4386 9.55035ZM68.921 11.6373C68.104 12.0036 67.507 12.5364 66.961 13.2476C66.5556 13.775 65.6123 15.1693 65.8126 15.856L65.9562 15.9263C66.1107 15.8692 66.178 15.8499 66.3243 15.7691C67.0591 15.2625 69.9687 12.638 69.4366 11.7398C69.2362 11.6086 69.1745 11.6321 68.921 11.6373Z" fill="white"/>
<path d="M69.0374 0.219237C70.9171 0.122085 69.0253 2.24163 68.5914 2.88832C68.0104 3.76714 67.4588 4.66376 66.9376 5.57891C68.6986 5.53219 76.0677 4.99526 76.9118 6.36354C76.9096 6.63942 76.9548 6.52596 76.8005 6.7262C76.2739 6.589 75.2303 6.30496 74.7125 6.26268C72.0468 6.04168 69.0123 6.15441 66.3516 6.42955C64.1935 10.4847 61.1028 17.2097 60.8283 21.7595C60.8286 22.1088 60.86 22.7859 60.9804 23.1137C61.0925 23.4193 61.5474 23.6292 61.5503 23.9703C61.4476 24.1149 61.4917 24.1171 61.3594 24.1616C61.137 24.2365 61.0146 24.132 60.8393 24.0704C60.4422 23.9295 59.9027 23.1723 59.8463 22.7733C59.2822 18.7842 63.0731 9.85953 64.8904 6.55785C63.6913 6.6194 58.797 7.49526 58.2014 7.10887C58.1055 6.87749 58.1024 6.98576 58.1797 6.7744C58.7914 6.29828 64.2938 5.78434 65.3479 5.68793C66.0874 4.32335 67.8237 1.08767 69.0374 0.219237Z" fill="white"/>
<path d="M138.738 8.37036C140.086 8.25615 139.704 9.2299 138.995 9.84766C137.798 9.95297 138.074 8.9592 138.738 8.37036Z" fill="white"/>
</svg>
