<svg width="142" height="31" viewBox="0 0 142 31" fill="none" xmlns="http://www.w3.org/2000/svg">
<path d="M128.543 10.182C128.954 10.2894 129.017 10.321 129.173 10.6898C129.156 11.2661 127.891 13.9761 127.581 14.7064C128.092 14.0301 130.789 10.6458 131.982 11.4711C132.993 12.4379 131.591 14.7279 132.187 15.682C132.775 16.6222 135.517 13.6362 135.853 13.1469C136.322 12.4609 136.515 11.6774 137.159 11.1136C137.372 10.928 137.49 10.8915 137.756 10.9174C137.999 11.0463 138.001 11.0653 138.152 11.306C138.068 12.3855 135.834 15.1231 136.39 16.2601C137.815 17.141 141.1 12.8062 141.841 12.7894L141.846 12.9457C141.302 14.0872 139.586 15.6372 138.534 16.3802C136.528 17.7974 134.67 17.7166 135.32 14.7074C133.353 16.8653 130.308 18.0515 131.067 13.6947C131.148 13.2288 131.233 12.7307 131.261 12.2582L131.266 12.1547L131.215 12.182C129.141 13.3339 127.921 15.6898 126.483 17.4906C126.333 17.678 126.161 17.6833 125.944 17.6781C125.047 17.1639 126.118 15.0081 126.417 14.2191C124.994 15.5311 121.635 18.4121 119.752 16.223C119.345 15.7482 119.574 14.5747 119.701 14.0131C118.91 14.6464 117.552 15.5297 116.881 16.2015C116.428 16.6549 115.685 18.7256 115.362 19.4613C114.982 20.3251 114.583 21.1805 114.164 22.0258C112.804 24.6866 110.743 28.1481 108.132 29.8031C107.482 30.2149 106.514 30.5389 105.756 30.308C105.42 30.2058 104.981 29.8893 104.89 29.6049C104.084 26.1445 109.765 21.1945 112.08 19.2269C115.587 16.2454 115.197 17.1541 116.527 12.8412C115.554 14.0687 114.501 15.2466 113.279 16.2504C112.023 17.282 110.579 17.1849 110.985 15.1849C111.314 13.573 112.71 11.8716 114.025 10.933C115.019 10.224 115.983 10.0109 116.704 11.1976C116.959 10.7376 117.068 10.3538 117.646 10.4086C118.483 11.0894 117.28 14.4448 116.971 15.3627C117.892 14.6056 119.077 13.8353 119.916 13.1234C121.044 12.0345 121.55 10.8275 123.182 10.3636C124.633 9.95027 124.883 11.2949 124.204 12.2758C123.45 13.3655 122.168 14.1239 120.863 14.3832C120.848 14.4528 120.832 14.5235 120.818 14.5931C119.993 18.5656 126.321 13.9453 126.983 12.8539C127.552 11.9168 127.59 10.9111 128.47 10.2377L128.543 10.182ZM114.574 17.9144C112.962 19.2553 103.735 26.8692 105.778 29.4584C108.891 29.736 112.758 22.2763 113.825 19.8724C114.002 19.4753 114.571 18.3538 114.628 17.973L114.574 17.9144ZM115.688 11.3969C114.218 11.8969 112.227 14.1839 112.135 15.6937L112.2 15.8549C112.421 15.8756 112.386 15.8492 112.62 15.7455C113.502 15.1194 116.098 12.5487 116.313 11.7299C116.148 11.4744 115.994 11.4213 115.688 11.3969ZM123.604 11.2484C122.889 11.6507 121.72 12.5909 121.37 13.3324L121.385 13.4427C122.035 13.1278 123.279 12.0851 123.614 11.434L123.604 11.2484Z" fill="white"/>
<path d="M35.8476 9.29706C37.9671 8.34439 38.8135 10.8185 37.2666 11.1652C36.3917 10.9734 37.119 10.5643 37.0683 10.0568L36.8906 9.96014C36.0793 9.9625 34.8549 10.9354 34.6416 11.7502C34.3521 12.8555 35.0354 13.8737 35.5205 14.799C37.2728 13.7337 38.4109 13.2368 40.2754 12.4338C40.4826 12.0227 40.6455 11.6056 40.8691 11.173C41.2007 10.5314 41.5863 9.26236 42.5185 9.41718C42.7027 9.44756 42.694 9.50449 42.7822 9.6496C42.7809 10.126 40.9934 13.869 40.6572 14.6349C40.392 15.1157 40.1707 15.6571 39.9502 16.1623C40.2758 15.6838 40.5374 15.2019 40.8193 14.6974C41.6737 13.224 43.0305 11.145 44.5713 10.3049C45.3267 9.89298 46.2137 10.0037 46.581 10.8801C46.9901 11.8563 46.7536 12.7142 46.3848 13.6623C46.877 13.4882 48.2665 13.0357 48.6113 12.7424C49.5572 11.932 49.9782 10.9401 51.2246 10.4875C52.7783 9.92325 53.5714 10.735 52.666 12.1965C51.9699 13.3195 50.5759 14.1032 49.2764 14.3869C49.074 15.3811 48.877 16.3885 50.3652 16.1144C52.07 15.8002 54.4055 14.1137 55.4209 12.7004C56.024 11.861 56.298 9.66374 57.5683 9.47186C57.9439 9.62374 57.9709 9.97146 57.8223 10.3137C57.23 11.676 56.5779 12.9487 56.1016 14.3644C56.7872 13.2562 59.2777 9.11643 60.666 11.8078C60.8213 12.1084 60.9407 12.3645 60.8281 12.6984L60.5683 12.8264C59.9171 12.7871 60.1491 12.0929 59.6426 11.7922C58.4788 11.6536 56.1603 15.3823 55.7021 16.423C55.5845 16.6403 55.1765 17.4409 54.9687 17.506C53.341 18.0175 54.7462 14.7504 54.9639 14.1144C53.6093 15.4279 49.877 18.6017 48.0967 16.0939C47.6882 15.5183 48.0713 14.1838 48.2715 13.5578C47.4961 13.8741 46.694 14.146 45.9033 14.423C45.1213 15.6002 44.1647 16.8378 42.8984 17.509C40.983 18.5245 39.7635 17.2152 41.7881 15.8166C42.7582 15.1463 43.7062 14.7485 44.7666 14.259C45.1288 13.6915 45.4355 13.023 45.583 12.3644C45.6566 12.0364 45.7154 11.5982 45.5068 11.3078C45.4226 11.1908 45.2915 11.1102 45.1445 11.0998C44.3966 11.0483 43.4896 12.1567 43.0742 12.673C40.2868 16.1378 38.3688 20.6653 36.7598 24.7746C36.474 25.5044 35.672 28.4076 35.2402 28.715C35.1091 28.8084 34.8721 28.8472 34.7187 28.7961C34.5479 28.7398 34.4255 28.6381 34.3564 28.4699C33.9172 27.4036 39.138 15.0512 39.9326 13.2101C38.262 13.948 37.3599 14.4577 35.8076 15.4289C36.3178 17.4126 35.7883 18.5944 34.2432 20.007C33.3019 20.8671 30.4397 21.7172 30.791 19.4982C31.0471 17.8825 33.1475 16.3563 34.501 15.4621C34.2384 14.8361 33.8317 14.1627 33.4941 13.5656C32.0917 14.962 29.0367 17.6543 26.8379 16.8869C25.4568 16.4046 25.7833 14.2894 26.3447 13.2648C26.9596 12.1425 28.0296 10.8661 29.29 10.3986C30.6933 9.92691 31.2796 11.2619 30.5146 12.3322C29.7389 13.4167 28.4502 14.1228 27.166 14.3976C27.0103 15.0214 26.8517 16.2464 27.8701 16.1652C29.8246 16.0097 31.8556 14.2385 33.2832 12.965C33.0212 11.1808 34.3476 9.97194 35.8476 9.29706ZM34.5928 16.2043C33.7216 16.8749 31.0494 18.936 31.7187 20.1945C33.5223 19.7648 34.9409 18.33 34.7129 16.3683C34.7031 16.2848 34.6514 16.2472 34.5928 16.2043ZM43.9678 15.1896C43.5471 15.4155 41.3384 16.5867 41.7041 17.0803C42.4003 16.7669 43.6418 15.8646 44.0127 15.2297L43.9678 15.1896ZM29.8887 11.2492C29.2284 11.6188 28.0018 12.6473 27.706 13.3215L27.7812 13.4162C28.1527 13.1814 30.2327 11.6559 29.8887 11.2492ZM51.9902 11.2424C51.4144 11.5819 49.9496 12.7391 49.8008 13.3576L49.8594 13.4006C50.4618 13.0391 51.8117 12.0161 52.0674 11.3635L51.9902 11.2424Z" fill="white"/>
<path d="M15.7163 0.00415424C15.9175 -0.000280716 16.0972 0.006091 16.2837 0.0910683C16.4574 0.169588 16.5991 0.320219 16.6577 0.503178C17.3946 2.80266 12.4821 8.95569 11.0288 10.6047C10.327 11.401 8.98497 12.4249 8.53077 13.3108C7.90524 14.5316 7.46636 17.5756 7.95166 18.8225C8.20581 19.4757 8.45667 19.3258 8.97705 19.5803C9.10392 19.6425 9.10119 19.663 9.13819 19.7903L9.01319 19.9583C8.72653 20.1094 8.38368 20.1829 8.06983 20.0969C5.85941 19.4944 6.61567 15.6989 6.99561 14.1751C5.58098 15.4604 1.38809 18.8405 0.0542032 15.884C-0.068301 15.0684 0.00216493 14.3482 0.417484 13.4407C0.970255 12.2331 2.98728 9.82215 4.58741 10.3752C5.1314 10.5627 5.19352 11.6231 4.79541 12.1594C3.99758 13.2336 2.79283 14.1042 1.44776 14.3635L1.33643 14.384C0.938424 16.1494 1.49634 16.5057 3.24268 15.8967C4.50143 15.4573 6.55589 13.9952 7.30811 12.8752C7.7026 12.2871 8.11517 10.2975 8.57862 9.61646C9.95919 6.79026 12.6506 1.17168 15.7163 0.00415424ZM4.05323 11.2463C3.41569 11.6272 2.12256 12.6689 1.86573 13.346L1.93702 13.426C2.4386 13.1161 4.07884 11.8664 4.12256 11.3196L4.05323 11.2463ZM15.6997 1.01685C13.2699 2.67802 10.4367 8.53042 9.2544 11.2092L9.27491 11.3069L9.35694 11.2883C11.3785 9.08795 15.4796 4.1921 15.9116 1.20826L15.8433 1.05689L15.6997 1.01685Z" fill="white"/>
<path d="M108.931 0.00265273C109.154 -0.00327017 109.369 -0.0100533 109.565 0.112028C109.782 0.246856 109.894 0.457606 109.932 0.705778C110.323 3.20687 105.679 9.01148 104.079 10.8161C103.462 11.5118 102.545 12.1537 102.041 12.9167C101.295 14.0497 100.877 17.0565 101.138 18.3913C101.399 19.722 101.86 19.2124 102.347 19.6013C102.418 19.6583 102.392 19.7024 102.391 19.7839C101.84 20.4235 100.832 20.0662 100.439 19.4568C99.5039 18.0092 99.9934 15.7785 100.29 14.1872C98.7894 15.5859 95.0987 18.6416 93.4301 16.0036C93.0167 14.4279 93.8467 12.8412 94.9292 11.7048C95.6064 10.9929 96.9833 9.94307 98.0561 10.4831C98.7317 10.8232 98.2933 11.9195 97.937 12.3855C97.2271 13.3122 95.8971 14.1479 94.7524 14.3464L94.6479 14.364C93.7804 18.8199 100.312 13.7975 100.598 12.9196C101.727 9.46207 105.344 1.2294 108.931 0.00265273ZM97.3696 11.2448C96.7294 11.6278 95.4388 12.6548 95.1772 13.3386L95.2339 13.405C95.8488 13.0398 97.1894 12.0304 97.4467 11.363L97.3696 11.2448ZM108.947 1.00949C106.398 2.74326 103.77 8.33337 102.534 11.155L102.544 11.2917L102.609 11.2741C104.46 9.20276 108.643 4.36202 109.136 1.21066C109.144 1.1618 109.112 1.10227 109.089 1.05343L108.947 1.00949Z" fill="white"/>
<path d="M30.5148 0.513351C30.7008 0.511116 30.9529 0.486607 31.1242 0.565109C31.3184 0.654783 31.4579 0.849728 31.5099 1.05339C31.9436 2.74553 28.4487 7.30039 27.4152 8.62077C26.5726 9.69717 25.5271 10.7978 24.8195 11.9587C23.9727 13.3487 22.6679 18.3403 23.0998 19.9382C23.2154 20.3654 23.3744 20.5432 23.7473 20.7565C23.8586 20.8208 23.8532 20.8424 23.9113 20.9518L23.8205 21.068C23.2514 21.2827 22.3892 20.981 22.1984 20.4411C21.6165 18.7921 22.1165 16.4768 22.5441 14.8737L22.7756 14.0749C21.9788 15.0437 19.7607 17.6039 18.8019 17.3639C16.1456 16.6972 19.636 11.6038 20.7433 10.943C22.17 10.0926 22.9024 9.92688 23.7453 11.1403C24.8928 8.20372 27.497 1.83867 30.5148 0.513351ZM22.468 11.2409C21.139 11.7913 19.0968 14.6508 19.1203 16.0124L19.2072 16.1667C19.3976 16.1947 19.5115 16.0945 19.6857 15.9938C20.3214 15.5516 24.9094 11.5352 22.468 11.2409ZM30.7775 1.39714C28.4745 3.46031 26.8272 6.73237 25.7131 9.5778L25.7599 9.66472C27.0341 8.20607 30.831 3.40666 30.8459 1.51237L30.7775 1.39714Z" fill="white"/>
<path d="M98.1679 0.51507C101.601 0.380298 94.9485 8.90584 94.2323 9.62151C91.6732 12.1803 90.6168 16.08 90.622 19.6137C90.6237 20.435 91.3502 20.6753 91.4599 20.9545L91.3642 21.1254C90.9182 21.4061 90.0902 20.9813 89.913 20.6205C89.1165 19.0026 89.7232 16.5854 90.1122 14.9223L90.3173 14.1313C89.5482 15.0751 88.6713 16.061 87.6962 16.7914C86.0233 18.0447 85.0685 17.0735 85.5575 15.2289C86.0473 13.4896 87.2182 11.6456 88.7704 10.6752C89.8061 10.0287 90.6656 10.2032 91.2724 11.2543C91.5613 10.5144 91.8604 9.77931 92.1708 9.04827C93.2014 6.67174 95.622 1.51591 98.1679 0.51507ZM89.955 11.3276C88.6969 11.8758 86.5608 14.7511 86.6806 16.0395L86.7753 16.1762C86.9828 16.2036 87.0957 16.1039 87.2831 15.9965C87.9168 15.5533 92.4807 11.5165 89.955 11.3276ZM98.4159 1.39886C96.248 3.01602 94.3689 7.02457 93.3427 9.46038L93.3583 9.58538L93.3935 9.61273C94.5856 8.25412 98.5213 3.26465 98.4823 1.48284L98.4159 1.39886Z" fill="white"/>
<path d="M76.3551 9.53979C76.7567 9.55757 76.8787 9.51102 77.1002 9.85327C76.9854 10.2976 76.5646 11.1227 76.357 11.5769C75.9495 12.4555 75.5808 13.3525 75.2525 14.2644C75.9534 13.1303 77.5018 10.4418 79.1266 11.0095C79.5459 11.1562 80.1572 12.2627 79.9342 12.6902C79.7149 12.8095 79.7273 12.8064 79.4791 12.782C78.9263 12.445 79.136 11.0197 77.8258 12.1794C76.4973 13.3766 75.582 14.9481 74.7389 16.5105C74.5699 16.8224 73.8564 18.24 73.3785 17.3289C73.06 16.7221 73.6916 15.2116 73.9205 14.5486C73.6857 14.79 73.4476 15.0291 73.2076 15.2654C72.4126 16.0432 71.2987 17.0051 70.1051 16.9822C68.9566 16.9605 68.8378 15.7969 68.9186 14.8992C68.9622 14.6992 69.0049 14.5906 68.9547 14.3914C68.593 14.6315 68.1583 15.2416 67.8199 15.5623C67.2053 16.1438 66.297 17.1537 65.3473 16.9255C64.3399 16.6832 64.5048 15.4119 64.732 14.6541C65.1909 13.137 66.3542 11.6231 67.7613 10.8689C68.8418 10.2903 69.6034 10.3995 70.1441 11.5144C70.3427 11.1922 70.9068 10.2101 71.4469 10.446C71.9826 10.6794 71.3667 11.8944 71.1822 12.2693C70.7473 13.1531 69.7139 14.9161 70.0641 15.8992C71.0815 16.8336 73.919 13.7962 74.4332 12.8806C75.0022 11.8664 75.4268 10.2324 76.3551 9.53979ZM68.8453 11.6248C68.0294 11.9907 67.4326 12.5228 66.8873 13.2332C66.4824 13.76 65.5402 15.1526 65.7399 15.8386L65.8844 15.9089C66.0387 15.8519 66.1054 15.8325 66.2516 15.7517C66.9856 15.2456 69.8927 12.6234 69.3609 11.7263C69.1609 11.5953 69.0985 11.6196 68.8453 11.6248Z" fill="white"/>
<path d="M68.9621 0.218867C70.8397 0.121821 68.95 2.23906 68.5165 2.88505C67.9362 3.76292 67.3852 4.65856 66.8646 5.57273C68.6236 5.52606 75.9847 4.9897 76.8279 6.3565C76.8257 6.63209 76.8709 6.51874 76.7168 6.71876C76.1907 6.58171 75.1482 6.29798 74.631 6.25575C71.9682 6.03499 68.937 6.1476 66.2792 6.42244C64.1234 10.4732 61.0361 17.1909 60.7619 21.7358C60.7622 22.0847 60.7935 22.7611 60.9138 23.0885C61.0258 23.3937 61.4802 23.6034 61.4831 23.9442C61.3805 24.0886 61.4245 24.0908 61.2924 24.1353C61.0702 24.2101 60.948 24.1057 60.7729 24.0442C60.3762 23.9034 59.8373 23.147 59.7809 22.7485C59.2174 18.7636 63.0042 9.8487 64.8196 6.5506C63.6218 6.61208 58.7328 7.48699 58.1378 7.10103C58.042 6.86989 58.0389 6.97805 58.1162 6.76692C58.7272 6.29132 64.2236 5.77793 65.2766 5.68162C66.0153 4.31853 67.7497 1.08636 68.9621 0.218867Z" fill="white"/>
</svg>
