<svg width="40" height="40" viewBox="0 0 40 40" fill="none" xmlns="http://www.w3.org/2000/svg">
<path d="M24.7675 1.25058C25.1526 1.26013 25.5206 1.41248 25.7998 1.67802L25.8274 1.70497L29.2758 5.15722C29.5513 5.43246 29.7133 5.80125 29.7295 6.19047C29.7459 6.58176 29.6138 6.96477 29.3596 7.26274L29.3585 7.26406L29.3574 7.26537C28.964 7.72409 28.7582 8.31442 28.7812 8.9183C28.8042 9.52219 29.0544 10.0951 29.4817 10.5225C29.9095 10.948 30.4821 11.1965 31.0852 11.2186C31.689 11.2407 32.279 11.034 32.7371 10.6399L32.7391 10.6382L32.7412 10.6365C33.0298 10.3903 33.3983 10.2585 33.7768 10.2654L33.8134 10.2665L33.85 10.2685C34.2259 10.2931 34.5805 10.4537 34.8471 10.7208L38.295 14.1686C38.5863 14.46 38.7499 14.8552 38.7499 15.2672C38.7499 15.6792 38.5863 16.0743 38.295 16.3657L32.7995 21.8612C32.46 22.2008 32.046 22.4567 31.5905 22.6087C31.5024 22.6383 31.4223 22.688 31.3567 22.7538C31.291 22.8197 31.2417 22.8999 31.2124 22.9882L31.2121 22.9893L31.2117 22.9905C31.0597 23.4464 30.8039 23.8608 30.4644 24.201L16.3698 38.2948L16.3696 38.295C16.0782 38.5863 15.6831 38.7499 15.2711 38.7499C14.8591 38.7499 14.4639 38.5863 14.1726 38.295L10.7247 34.8472C10.4489 34.5719 10.2867 34.2028 10.2705 33.8134C10.2541 33.4221 10.3862 33.0391 10.6404 32.7412L10.6431 32.7379C11.0369 32.2794 11.243 31.689 11.2201 31.085C11.1972 30.4809 10.947 29.9078 10.5196 29.4804C10.0922 29.053 9.51906 28.8028 8.91503 28.7799C8.31101 28.757 7.72062 28.9631 7.26205 29.3569L7.25883 29.3596C6.96086 29.6138 6.57785 29.7459 6.18657 29.7295C5.79711 29.7132 5.42812 29.551 5.15283 29.2752L1.70497 25.8274C1.42282 25.5452 1.26045 25.1655 1.25058 24.7675L1.25009 24.7289L1.25058 24.6903C1.26045 24.2923 1.42282 23.9127 1.70497 23.6304L15.799 9.5395C16.1387 9.2004 16.5526 8.94477 17.0079 8.79277C17.096 8.76325 17.1761 8.7136 17.2417 8.64775C17.3074 8.58189 17.3568 8.50164 17.386 8.41337L17.3863 8.4123L17.3867 8.41122C17.5387 7.95496 17.7949 7.54039 18.135 7.20038L23.6304 1.70497C23.9218 1.41372 24.3169 1.25009 24.7289 1.25009L24.7675 1.25058ZM19.9026 8.96826L19.9025 8.96835C19.8371 9.03375 19.7878 9.11352 19.7586 9.20126C19.6072 9.65742 19.3517 10.0721 19.0124 10.4125C18.6726 10.7535 18.258 11.0106 17.8015 11.1635L17.8007 11.1637L17.7998 11.164C17.7117 11.1934 17.6316 11.2427 17.5658 11.3081L4.14203 24.7289L6.35766 26.9446C7.15564 26.4794 8.0747 26.2462 9.00976 26.2817C10.2436 26.3285 11.4143 26.8396 12.2873 27.7126C13.1604 28.5857 13.6715 29.7564 13.7183 30.9902C13.7538 31.9253 13.5205 32.8443 13.0553 33.6422L15.2711 35.858L28.695 22.4349L28.7071 22.4224C28.7669 22.3589 28.8123 22.283 28.8399 22.2001C28.9913 21.744 29.2467 21.3294 29.586 20.989C29.9258 20.648 30.3404 20.3909 30.7969 20.2381L30.7978 20.2378L30.7987 20.2375C30.8865 20.2083 30.9662 20.159 31.0316 20.0935L35.858 15.2672L33.6427 13.0518C32.8458 13.5171 31.928 13.7511 30.9938 13.7169C29.7605 13.6718 28.5896 13.1628 27.7154 12.2917L27.7145 12.2909L27.7136 12.29C26.841 11.4171 26.3301 10.247 26.2831 9.01362C26.2474 8.07863 26.4803 7.15958 26.9451 6.36147L24.7285 4.14233L19.9026 8.96826Z" fill="white"/>
<path d="M17.3966 8.79815C17.8847 8.31 18.6762 8.31 19.1643 8.79815L20.4542 10.088C20.9423 10.5762 20.9423 11.3676 20.4542 11.8558C19.966 12.3439 19.1746 12.3439 18.6864 11.8558L17.3966 10.5659C16.9084 10.0778 16.9084 9.28631 17.3966 8.79815Z" fill="white"/>
<path d="M21.2649 12.6681C21.7529 12.1797 22.5443 12.1794 23.0327 12.6673L23.8929 13.5267C24.3812 14.0146 24.3816 14.8061 23.8936 15.2944C23.4057 15.7828 22.6142 15.7832 22.1259 15.2952L21.2657 14.4359C20.7773 13.9479 20.777 13.1565 21.2649 12.6681Z" fill="white"/>
<path d="M24.7056 16.1064C25.1939 15.6184 25.9854 15.6188 26.4733 16.1071L27.3327 16.9673C27.8206 17.4557 27.8203 18.2471 27.3319 18.7351C26.8435 19.223 26.0521 19.2226 25.5641 18.7343L24.7048 17.8741C24.2168 17.3858 24.2172 16.5943 24.7056 16.1064Z" fill="white"/>
<path d="M28.1442 19.5458C28.6324 19.0576 29.4238 19.0576 29.912 19.5458L31.2018 20.8356C31.69 21.3238 31.69 22.1153 31.2018 22.6034C30.7137 23.0916 29.9222 23.0916 29.4341 22.6034L28.1442 21.3136C27.6561 20.8254 27.6561 20.034 28.1442 19.5458Z" fill="white"/>
</svg>
