<svg width="105" height="40" viewBox="0 0 105 40" fill="none" xmlns="http://www.w3.org/2000/svg">
<g clip-path="url(#clip0_10_665)">
<path d="M68.25 39.7533L70 39.6333V25.8333V12.0333L68.25 11.9133C67.2866 11.8467 68.4133 11.7633 70.75 11.7267L75 11.6667V12.7433V13.82L76.0133 12.59C78.55 9.51334 83.51 11.3667 85.9 16.2867C86.7066 17.9467 86.8133 18.5567 86.8233 21.5C86.8333 24.48 86.7366 25.0333 85.91 26.7133C83.51 31.5967 78.6366 33.4533 76.0266 30.4767L75 29.31V34.47V39.6333L76.75 39.7533C77.7133 39.82 75.8 39.8767 72.5 39.8767C69.2 39.8767 67.2866 39.82 68.25 39.7533ZM80.07 30.42C81.2266 29.4067 81.5 27.6967 81.5 21.5C81.5 15.2167 81.2333 13.6167 80 12.5C78.37 11.0267 75.9633 12.55 75.3133 15.4667C75.0866 16.4933 74.9833 19.2833 75.0533 22.5C75.15 26.8767 75.2833 28.06 75.7966 29.0967C76.8233 31.1733 78.59 31.72 80.07 30.42ZM55.29 31.4967C53.1566 30.8133 50.6033 28.3367 49.45 25.8333C46.4966 19.4233 50.7933 11.6967 57.6466 11.0967C61.3266 10.7733 65.2 13.1467 67.0166 16.84C68.1733 19.19 68.1866 23.7567 67.0433 26.08C66.1 27.9933 64.01 30.1467 62.1933 31.07C60.4666 31.9533 57.3133 32.1467 55.29 31.4967ZM59.8566 31.1767C60.73 30.8133 61.2166 30.2833 61.7633 29.0933C62.4366 27.6367 62.5 26.9867 62.5 21.5C62.5 16.0133 62.4366 15.3633 61.7633 13.9067C60.4266 11.01 57.0766 10.5133 55.4266 12.9667C54.16 14.8533 53.9266 16.4333 54.0533 22.3233C54.16 27.4667 54.2233 27.9333 55.0033 29.3233C56.2566 31.57 57.65 32.1 59.8566 31.1767ZM96.1133 31.64C91.44 30.76 88.58 27.0633 88.5266 21.8333C88.5033 19.6233 88.6466 18.85 89.3666 17.3167C90.5333 14.83 92.0166 13.2167 94.08 12.19C96.1133 11.1767 97.9566 11.1033 99.84 11.9567C102.6 13.21 104.403 15.8333 104.853 19.25L105.087 21H99.3266H93.57L93.75 24.2833C94.0066 28.9467 95.0133 30.6 97.78 30.91C100.893 31.2633 103.187 29.5433 104.22 26.0833C104.54 25.01 104.85 24.4267 104.923 24.7533C105.157 25.8333 103.99 28.5633 102.777 29.78C101.107 31.45 98.69 32.1233 96.1133 31.64ZM100.22 17.6633C99.8633 12.66 98.61 10.9333 96.1733 12.0967C94.5466 12.8733 93.93 14.3067 93.74 17.7467L93.58 20.6667H97.0066H100.433L100.22 17.6633ZM5.14665 30.9767C3.77665 30.58 2.67331 29.3367 2.31331 27.7833C2.14998 27.0767 2.01331 23.2467 2.00665 19.27L1.99998 12.0433L0.916646 11.9067L-0.166687 11.7733L0.916646 11.72L1.99998 11.6667V9.21334V6.76L3.74331 6.55334C4.69998 6.44 5.89998 6.04 6.40998 5.66334L7.33331 4.98V8.30667V11.6333L9.08331 11.7533L10.8333 11.8767L9.08331 11.94L7.33331 12V21.3333V30.6667H8.99998C9.91665 30.6667 10.6666 30.8167 10.6666 31C10.6666 31.41 6.57331 31.3933 5.14665 30.9767ZM11.3333 31C11.3333 30.8167 12.0833 30.6667 13 30.6667H14.6666V21.35V12.0333L12.9166 11.9133C11.9533 11.8467 13.08 11.7633 15.4166 11.7267L19.6666 11.6667V12.9167L19.67 14.1667L20.32 13.1C22.3866 9.71 27 10.9333 27 14.8733C27 16.01 26.8066 16.5567 26.1833 17.1833C24.4166 18.9467 21.3333 17.7133 21.3333 15.24C21.3333 13.24 23.54 11.8867 25.3366 12.7833C26.5233 13.3767 26.59 13.2633 25.6033 12.3467C24.72 11.5233 22.7966 11.4467 21.7366 12.19C21.3266 12.4767 20.6933 13.2933 20.33 14.01C19.7233 15.1933 19.6666 15.9833 19.6666 22.9867V30.6667H21.3333C22.25 30.6667 23 30.81 23 30.9833C23 31.1733 20.63 31.3067 17.1666 31.3167C13.51 31.3233 11.3333 31.2067 11.3333 31ZM27.6666 31C27.6666 30.8167 28.4166 30.6667 29.3333 30.6667H31V21.35V12.0333L29.25 11.9133C28.2866 11.8467 29.4133 11.7633 31.75 11.7267L36 11.6667V21.1667V30.6667H37.1666C37.81 30.6667 38.3333 30.8167 38.3333 31C38.3333 31.2067 36.3333 31.3333 33 31.3333C29.6666 31.3333 27.6666 31.2067 27.6666 31ZM39.3333 31C39.3333 30.8167 39.9333 30.6667 40.6666 30.6667H42V16.5167V2.36667L40.25 2.24667C39.2866 2.18 40.4133 2.09667 42.75 2.06L47 2V16.3333V30.6667H48.6666C49.5833 30.6667 50.3333 30.8167 50.3333 31C50.3333 31.21 48.2766 31.3333 44.8333 31.3333C41.39 31.3333 39.3333 31.21 39.3333 31ZM33.2233 9.33334C32.6066 7.59667 31.26 2.36667 31.2566 1.69334C31.2433 0.0633357 33.9733 -0.653331 35.1666 0.666669C35.7466 1.31 35.7366 1.45 34.84 4.91667C33.67 9.42667 33.46 10 33.2233 9.33334Z" fill="white"/>
</g>
<defs>
<clipPath id="clip0_10_665">
<rect width="105" height="40" fill="white"/>
</clipPath>
</defs>
</svg>
